<svg width="223" height="171" viewBox="0 0 223 171" fill="none" xmlns="http://www.w3.org/2000/svg">
<g filter="url(#filter0_f_498_3503)">
<path d="M81.5837 91.8504C83.3751 91.8705 101.55 120.248 101.55 131.275C101.55 136.571 99.4465 141.649 95.7021 145.394C91.9577 149.138 86.8791 151.242 81.5837 151.242C76.2882 151.242 71.2097 149.138 67.4652 145.394C63.7208 141.649 61.6172 136.571 61.6172 131.275C61.6172 120.248 79.7923 91.8307 81.5837 91.8504Z" fill="#42A0F0"/>
<path d="M66.3602 138.739C68.3552 139.349 70.8908 136.84 72.0236 133.135C73.1565 129.43 72.4575 125.931 70.4624 125.321C68.4674 124.711 65.9318 127.221 64.799 130.926C63.6662 134.631 64.3651 138.129 66.3602 138.739Z" fill="white"/>
<path d="M128.622 129.273C129.751 129.286 141.203 147.166 141.203 154.114C141.183 157.438 139.848 160.618 137.491 162.961C135.134 165.304 131.945 166.619 128.622 166.619C125.298 166.619 122.11 165.304 119.753 162.961C117.395 160.618 116.061 157.438 116.041 154.114C116.041 147.166 127.493 129.261 128.622 129.273Z" fill="#42A0F0"/>
<path d="M119.03 158.817C120.287 159.201 121.884 157.62 122.598 155.286C123.312 152.951 122.871 150.747 121.614 150.363C120.357 149.978 118.76 151.559 118.046 153.894C117.332 156.228 117.773 158.432 119.03 158.817Z" fill="white"/>
<g filter="url(#filter1_d_498_3503)">
<path d="M140.977 129.178H53.3371C44.8354 129.172 36.6657 125.877 30.5385 119.983C24.4112 114.089 20.8013 106.054 20.4646 97.5587C20.1279 89.0636 23.0904 80.7676 28.7319 74.4074C34.3735 68.0472 42.2567 64.1159 50.7313 63.4365C51.9398 54.903 55.7933 46.963 61.7497 40.7337C67.7061 34.5044 75.4656 30.2993 83.9365 28.71C92.4074 27.1206 101.163 28.2271 108.973 31.8736C116.782 35.5201 123.252 41.5233 127.471 49.0384C135.21 46.3594 143.572 46.0463 151.49 48.1391C159.408 50.232 166.523 54.6358 171.928 60.789C177.332 66.9422 180.782 74.5658 181.836 82.6875C182.89 90.8091 181.501 99.0607 177.846 106.39C175.701 113.012 171.514 118.784 165.884 122.878C160.255 126.972 153.473 129.178 146.513 129.178H140.977Z" fill="url(#paint0_linear_498_3503)"/>
<path d="M146.512 128.72C150.047 128.72 153.522 128.156 156.841 127.043C160.051 125.966 163.064 124.396 165.797 122.375C168.499 120.377 170.867 117.983 172.836 115.261C174.829 112.504 176.368 109.472 177.41 106.249L177.421 106.216L177.437 106.185C178.822 103.416 179.889 100.487 180.607 97.4795C181.347 94.3845 181.722 91.1867 181.722 87.9749C181.722 85.2101 181.443 82.4472 180.894 79.7629C180.359 77.147 179.56 74.574 178.52 72.1153C177.499 69.701 176.235 67.3725 174.764 65.1943C173.306 63.0367 171.632 61.0077 169.788 59.1638C167.944 57.3199 165.915 55.6458 163.758 54.1882C161.579 52.7166 159.251 51.4527 156.837 50.4316C154.378 49.3916 151.805 48.5928 149.189 48.0576C146.505 47.5083 143.742 47.2298 140.977 47.2298C136.399 47.2298 131.905 47.9832 127.621 49.469L127.26 49.5944L127.072 49.2609C123.585 43.0613 118.514 37.8548 112.406 34.2043C109.316 32.3581 105.998 30.9315 102.541 29.964C98.9758 28.9659 95.2721 28.4598 91.5333 28.4598C86.5043 28.4598 81.5953 29.3649 76.9426 31.1499C72.4478 32.8743 68.3245 35.3653 64.6872 38.5536C61.0709 41.7235 58.0698 45.4638 55.7673 49.6705C53.4083 53.9805 51.8664 58.6328 51.1846 63.4982L51.1335 63.8624L50.7669 63.8911C46.6658 64.2121 42.7199 65.2919 39.0391 67.1004C35.4625 68.8577 32.2687 71.2346 29.5465 74.165C23.9529 80.1863 20.8724 88.0315 20.8724 96.2554C20.8724 100.638 21.7307 104.89 23.4234 108.892C24.237 110.815 25.2441 112.671 26.4165 114.406C27.578 116.125 28.9118 117.742 30.381 119.211C31.8502 120.681 33.4669 122.014 35.186 123.176C36.9216 124.348 38.7769 125.355 40.7004 126.169C44.7025 127.862 48.9541 128.72 53.3369 128.72H140.977H146.512ZM146.512 129.178H140.977H53.3369C35.1545 129.178 20.4146 114.438 20.4146 96.2554C20.4146 78.9497 33.7664 64.7626 50.7312 63.4347C53.5373 43.4106 70.7357 28.002 91.5333 28.002C106.962 28.002 120.411 36.4821 127.471 49.0365C131.702 47.5691 136.246 46.7719 140.977 46.7719C163.733 46.7719 182.18 65.2193 182.18 87.9749C182.18 94.5931 180.619 100.848 177.846 106.389C173.572 119.614 161.159 129.178 146.512 129.178Z" fill="white" fill-opacity="0.5"/>
</g>
</g>
<defs>
<filter id="filter0_f_498_3503" x="16.4146" y="24.002" width="169.765" height="146.617" filterUnits="userSpaceOnUse" color-interpolation-filters="sRGB">
<feFlood flood-opacity="0" result="BackgroundImageFix"/>
<feBlend mode="normal" in="SourceGraphic" in2="BackgroundImageFix" result="shape"/>
<feGaussianBlur stdDeviation="2" result="effect1_foregroundBlur_498_3503"/>
</filter>
<filter id="filter1_d_498_3503" x="0.414551" y="0.00195312" width="221.765" height="161.176" filterUnits="userSpaceOnUse" color-interpolation-filters="sRGB">
<feFlood flood-opacity="0" result="BackgroundImageFix"/>
<feColorMatrix in="SourceAlpha" type="matrix" values="0 0 0 0 0 0 0 0 0 0 0 0 0 0 0 0 0 0 127 0" result="hardAlpha"/>
<feOffset dx="10" dy="2"/>
<feGaussianBlur stdDeviation="15"/>
<feColorMatrix type="matrix" values="0 0 0 0 0.501961 0 0 0 0 0.501961 0 0 0 0 0.501961 0 0 0 0.302 0"/>
<feBlend mode="normal" in2="BackgroundImageFix" result="effect1_dropShadow_498_3503"/>
<feBlend mode="normal" in="SourceGraphic" in2="effect1_dropShadow_498_3503" result="shape"/>
</filter>
<linearGradient id="paint0_linear_498_3503" x1="101.309" y1="28.0032" x2="148.3" y2="141.615" gradientUnits="userSpaceOnUse">
<stop stop-color="white" stop-opacity="0.604"/>
<stop offset="1" stop-color="white" stop-opacity="0.2"/>
</linearGradient>
</defs>
</svg>
