<svg width="227" height="172" viewBox="0 0 227 172" fill="none" xmlns="http://www.w3.org/2000/svg">
<g filter="url(#filter0_f_498_3547)">
<path d="M51.9226 14.6347C55.1318 14.6339 58.3328 14.9581 61.4766 15.6025C67.5442 16.8522 73.305 19.2886 78.428 22.7718C85.5254 27.5823 91.196 34.2159 94.8437 41.9753C98.4915 49.7348 99.9817 58.3335 99.1578 66.8679C98.3338 75.4023 95.2261 83.5572 90.1614 90.4755C85.0966 97.3938 78.2617 102.82 70.3751 106.184C67.5081 107.402 64.5272 108.332 61.4762 108.961C54.8603 110.302 48.0346 110.218 41.4536 108.715C34.8727 107.212 28.6876 104.324 23.3104 100.243C17.9331 96.1617 13.4872 90.9818 10.2688 85.048C7.05042 79.1141 5.13338 72.5626 4.64542 65.8298C9.83309 67.0439 15.2219 67.1219 20.4426 66.0587C25.1274 65.0993 29.5774 63.2267 33.5387 60.548C39.4272 56.5727 44.0365 50.975 46.8079 44.4331C47.7444 42.2175 48.4591 39.9146 48.9418 37.5582C49.9705 32.5091 49.9325 27.3008 48.8301 22.2673C48.2755 19.7504 47.4554 17.2994 46.3835 14.9556C48.2221 14.7417 50.0716 14.6345 51.9226 14.6347Z" fill="#713FFD"/>
<g filter="url(#filter1_f_498_3547)">
<path d="M84.0019 29.3638C73.3603 19.7821 59.4195 17.9164 52.8643 25.1967C46.3091 32.477 49.6218 46.1464 60.2634 55.7281C70.905 65.3099 84.8458 67.1755 91.401 59.8953C97.9562 52.615 94.6435 38.9456 84.0019 29.3638Z" fill="#A586FC"/>
</g>
<g filter="url(#filter2_d_498_3547)">
<path d="M145.651 139.228H58.0112C49.5095 139.222 41.3398 135.927 35.2125 130.033C29.0852 124.14 25.4754 116.104 25.1387 107.609C24.8019 99.1139 27.7644 90.8179 33.406 84.4577C39.0476 78.0975 46.9308 74.1662 55.4053 73.4868C56.6138 64.9533 60.4674 57.0133 66.4238 50.784C72.3801 44.5547 80.1396 40.3496 88.6106 38.7603C97.0815 37.1709 105.838 38.2774 113.647 41.9239C121.456 45.5704 127.926 51.5736 132.145 59.0887C139.885 56.4096 148.247 56.0966 156.165 58.1896C164.083 60.2825 171.198 64.6866 176.602 70.8401C182.007 76.9935 185.456 84.6174 186.51 92.7393C187.564 100.861 186.174 109.113 182.519 116.442C180.374 123.063 176.186 128.835 170.557 132.929C164.928 137.023 158.147 139.228 151.187 139.228H145.651Z" fill="url(#paint0_linear_498_3547)"/>
<path d="M151.186 138.77C154.721 138.77 158.195 138.206 161.514 137.093C164.724 136.017 167.737 134.446 170.47 132.425C173.171 130.427 175.539 128.034 177.509 125.312C179.502 122.556 181.041 119.524 182.083 116.301L182.094 116.268L182.11 116.237C183.495 113.468 184.563 110.539 185.281 107.531C186.021 104.436 186.396 101.238 186.396 98.0252C186.396 95.2604 186.117 92.4975 185.568 89.8132C185.033 87.1973 184.234 84.6243 183.194 82.1656C182.173 79.7513 180.909 77.4228 179.438 75.2446C177.98 73.087 176.306 71.058 174.462 69.2141C172.618 67.3702 170.589 65.6961 168.431 64.2385C166.253 62.7669 163.925 61.503 161.51 60.4819C159.052 59.4419 156.479 58.6431 153.863 58.1079C151.179 57.5586 148.416 57.2801 145.651 57.2801C141.073 57.2801 136.579 58.0334 132.295 59.5193L131.934 59.6447L131.746 59.3112C128.259 53.1116 123.188 47.9051 117.08 44.2546C113.991 42.4084 110.672 40.9818 107.216 40.0143C103.65 39.0161 99.9462 38.5101 96.2073 38.5101C91.1784 38.5101 86.2694 39.4151 81.6166 41.2002C77.1218 42.9246 72.9985 45.4155 69.3613 48.6039C65.7449 51.7738 62.7438 55.5141 60.4413 59.7208C58.0823 64.0308 56.5405 68.6831 55.8586 73.5485L55.8076 73.9127L55.441 73.9414C51.3398 74.2624 47.394 75.3422 43.7132 77.1507C40.1366 78.908 36.9428 81.2849 34.2206 84.2153C28.627 90.2366 25.5464 98.0818 25.5464 106.306C25.5464 110.689 26.4047 114.94 28.0975 118.942C28.9111 120.866 29.9181 122.721 31.0906 124.457C32.2521 126.176 33.5859 127.792 35.0551 129.262C36.5243 130.731 38.141 132.065 39.8601 133.226C41.5956 134.399 43.4509 135.406 45.3745 136.219C49.3766 137.912 53.6281 138.77 58.011 138.77H145.651H151.186ZM151.186 139.228H145.651H58.011C39.8286 139.228 25.0886 124.488 25.0886 106.306C25.0886 89 38.4405 74.8129 55.4053 73.485C58.2114 53.4609 75.4097 38.0522 96.2073 38.0522C111.637 38.0522 125.085 46.5323 132.145 59.0868C136.376 57.6193 140.92 56.8222 145.651 56.8222C168.406 56.8222 186.854 75.2696 186.854 98.0252C186.854 104.645 185.293 110.899 182.519 116.442C178.244 129.664 165.832 139.228 151.186 139.228Z" fill="white" fill-opacity="0.5"/>
</g>
</g>
<defs>
<filter id="filter0_f_498_3547" x="0.645508" y="10.6348" width="190.208" height="132.594" filterUnits="userSpaceOnUse" color-interpolation-filters="sRGB">
<feFlood flood-opacity="0" result="BackgroundImageFix"/>
<feBlend mode="normal" in="SourceGraphic" in2="BackgroundImageFix" result="shape"/>
<feGaussianBlur stdDeviation="2" result="effect1_foregroundBlur_498_3547"/>
</filter>
<filter id="filter1_f_498_3547" x="29.4988" y="0.755615" width="85.2678" height="83.5806" filterUnits="userSpaceOnUse" color-interpolation-filters="sRGB">
<feFlood flood-opacity="0" result="BackgroundImageFix"/>
<feBlend mode="normal" in="SourceGraphic" in2="BackgroundImageFix" result="shape"/>
<feGaussianBlur stdDeviation="10" result="effect1_foregroundBlur_498_3547"/>
</filter>
<filter id="filter2_d_498_3547" x="5.08862" y="10.0522" width="221.765" height="161.176" filterUnits="userSpaceOnUse" color-interpolation-filters="sRGB">
<feFlood flood-opacity="0" result="BackgroundImageFix"/>
<feColorMatrix in="SourceAlpha" type="matrix" values="0 0 0 0 0 0 0 0 0 0 0 0 0 0 0 0 0 0 127 0" result="hardAlpha"/>
<feOffset dx="10" dy="2"/>
<feGaussianBlur stdDeviation="15"/>
<feColorMatrix type="matrix" values="0 0 0 0 0.501961 0 0 0 0 0.501961 0 0 0 0 0.501961 0 0 0 0.302 0"/>
<feBlend mode="normal" in2="BackgroundImageFix" result="effect1_dropShadow_498_3547"/>
<feBlend mode="normal" in="SourceGraphic" in2="effect1_dropShadow_498_3547" result="shape"/>
</filter>
<linearGradient id="paint0_linear_498_3547" x1="105.983" y1="38.0535" x2="152.974" y2="151.665" gradientUnits="userSpaceOnUse">
<stop stop-color="white" stop-opacity="0.604"/>
<stop offset="1" stop-color="white" stop-opacity="0.2"/>
</linearGradient>
</defs>
</svg>
