<svg width="223" height="168" viewBox="0 0 223 168" fill="none" xmlns="http://www.w3.org/2000/svg">
<g filter="url(#filter0_f_498_3314)">
<path d="M69.7075 102.147L100.236 150.992" stroke="#42A0F0" stroke-width="9" stroke-linecap="round"/>
<path d="M77.0729 114.148L80.0579 100.206" stroke="#42A0F0" stroke-width="9" stroke-linecap="round"/>
<path d="M77.0726 114.148L62.9614 110.892" stroke="#42A0F0" stroke-width="9" stroke-linecap="round"/>
<path d="M93.354 140.198L107.194 143.625" stroke="#42A0F0" stroke-width="9" stroke-linecap="round"/>
<path d="M93.3542 140.199L90.0978 154.31" stroke="#42A0F0" stroke-width="9" stroke-linecap="round"/>
<path d="M98.4998 101.414L71.4628 152.275" stroke="#42A0F0" stroke-width="9" stroke-linecap="round"/>
<path d="M91.7888 113.793L105.355 109.407" stroke="#42A0F0" stroke-width="9" stroke-linecap="round"/>
<path d="M91.7889 113.793L87.5535 99.9438" stroke="#42A0F0" stroke-width="9" stroke-linecap="round"/>
<path d="M77.3694 140.919L81.3222 154.617" stroke="#42A0F0" stroke-width="9" stroke-linecap="round"/>
<path d="M77.3695 140.919L63.5207 145.154" stroke="#42A0F0" stroke-width="9" stroke-linecap="round"/>
<path d="M113.531 125.982L55.9656 127.998" stroke="#42A0F0" stroke-width="9" stroke-linecap="round"/>
<path d="M99.4549 126.36L110.036 135.916" stroke="#42A0F0" stroke-width="9" stroke-linecap="round"/>
<path d="M99.4551 126.36L109.331 115.768" stroke="#42A0F0" stroke-width="9" stroke-linecap="round"/>
<path d="M68.7537 127.435L58.8668 137.708" stroke="#42A0F0" stroke-width="9" stroke-linecap="round"/>
<path d="M68.7536 127.435L58.1612 117.56" stroke="#42A0F0" stroke-width="9" stroke-linecap="round"/>
<path d="M145.857 133.01L134.241 159.095" stroke="#42A0F0" stroke-width="6.00313" stroke-linecap="round"/>
<path d="M142.965 139.363L149.523 136.726" stroke="#42A0F0" stroke-width="6.00313" stroke-linecap="round"/>
<path d="M142.965 139.363L140.393 132.66" stroke="#42A0F0" stroke-width="6.00313" stroke-linecap="round"/>
<path d="M136.77 153.275L139.198 159.913" stroke="#42A0F0" stroke-width="6.00313" stroke-linecap="round"/>
<path d="M136.77 153.275L130.067 155.848" stroke="#42A0F0" stroke-width="6.00313" stroke-linecap="round"/>
<path d="M154.137 144.642L125.739 147.625" stroke="#42A0F0" stroke-width="6.00313" stroke-linecap="round"/>
<path d="M147.189 145.315L152.752 149.675" stroke="#42A0F0" stroke-width="6.00313" stroke-linecap="round"/>
<path d="M147.189 145.314L151.708 139.735" stroke="#42A0F0" stroke-width="6.00313" stroke-linecap="round"/>
<path d="M132.043 146.906L127.508 152.327" stroke="#42A0F0" stroke-width="6.00313" stroke-linecap="round"/>
<path d="M132.043 146.906L126.464 142.387" stroke="#42A0F0" stroke-width="6.00313" stroke-linecap="round"/>
<path d="M148.205 157.628L131.422 134.526" stroke="#42A0F0" stroke-width="6.00313" stroke-linecap="round"/>
<path d="M144.149 151.947L143.154 158.945" stroke="#42A0F0" stroke-width="6.00313" stroke-linecap="round"/>
<path d="M144.149 151.948L151.24 153.071" stroke="#42A0F0" stroke-width="6.00313" stroke-linecap="round"/>
<path d="M135.198 139.626L128.236 138.41" stroke="#42A0F0" stroke-width="6.00313" stroke-linecap="round"/>
<path d="M135.198 139.626L136.321 132.535" stroke="#42A0F0" stroke-width="6.00313" stroke-linecap="round"/>
<g filter="url(#filter1_d_498_3314)">
<path d="M141.264 129.72H53.624C45.1222 129.713 36.9526 126.418 30.8253 120.525C24.698 114.631 21.0882 106.595 20.7514 98.1004C20.4147 89.6054 23.3772 81.3094 29.0188 74.9492C34.6604 68.589 42.5436 64.6577 51.0181 63.9783C52.2266 55.4447 56.0802 47.5047 62.0365 41.2755C67.9929 35.0462 75.7524 30.8411 84.2233 29.2517C92.6943 27.6624 101.45 28.7688 109.26 32.4154C117.069 36.0619 123.539 42.065 127.758 49.5802C135.497 46.9011 143.859 46.588 151.777 48.6809C159.695 50.7737 166.81 55.1776 172.215 61.3308C177.619 67.484 181.069 75.1076 182.123 83.2292C183.177 91.3509 181.788 99.6024 178.133 106.931C175.988 113.554 171.801 119.326 166.171 123.42C160.542 127.514 153.76 129.72 146.799 129.72H141.264Z" fill="url(#paint0_linear_498_3314)"/>
<path d="M146.799 129.262C150.333 129.262 153.808 128.698 157.128 127.585C160.337 126.508 163.35 124.938 166.084 122.917C168.785 120.919 171.154 118.525 173.123 115.803C175.116 113.046 176.655 110.014 177.697 106.791L177.708 106.758L177.723 106.727C179.108 103.958 180.175 101.029 180.894 98.0215C181.634 94.9265 182.009 91.7287 182.009 88.5169C182.009 85.7521 181.73 82.9892 181.181 80.3049C180.645 77.689 179.847 75.116 178.807 72.6573C177.786 70.243 176.522 67.9145 175.05 65.7363C173.593 63.5787 171.919 61.5497 170.075 59.7058C168.231 57.8619 166.202 56.1878 164.044 54.7302C161.866 53.2586 159.537 51.9947 157.123 50.9736C154.664 49.9336 152.091 49.1348 149.476 48.5996C146.791 48.0503 144.028 47.7718 141.263 47.7718C136.686 47.7718 132.192 48.5252 127.908 50.011L127.546 50.1364L127.359 49.8029C123.872 43.6033 118.8 38.3968 112.692 34.7463C109.603 32.9001 106.284 31.4735 102.828 30.506C99.2624 29.5078 95.5587 29.0018 91.8199 29.0018C86.7909 29.0018 81.8819 29.9068 77.2292 31.6919C72.7344 33.4163 68.6111 35.9072 64.9738 39.0956C61.3575 42.2655 58.3564 46.0058 56.0539 50.2125C53.6949 54.5225 52.153 59.1748 51.4712 64.0402L51.4202 64.4044L51.0535 64.4331C46.9524 64.7541 43.0066 65.8339 39.3257 67.6424C35.7491 69.3997 32.5553 71.7766 29.8331 74.707C24.2395 80.7283 21.159 88.5735 21.159 96.7974C21.159 101.18 22.0173 105.432 23.71 109.434C24.5236 111.357 25.5307 113.213 26.7032 114.948C27.8646 116.667 29.1985 118.284 30.6677 119.753C32.1369 121.223 33.7535 122.556 35.4727 123.718C37.2082 124.89 39.0635 125.897 40.987 126.711C44.9891 128.404 49.2407 129.262 53.6235 129.262H141.263H146.799ZM146.799 129.72H141.263H53.6235C35.4411 129.72 20.7012 114.98 20.7012 96.7974C20.7012 79.4917 34.053 65.3046 51.0178 63.9767C53.8239 43.9526 71.0223 28.5439 91.8199 28.5439C107.249 28.5439 120.697 37.0241 127.758 49.5785C131.989 48.1111 136.533 47.3139 141.263 47.3139C164.019 47.3139 182.466 65.7613 182.466 88.5169C182.466 95.1351 180.905 101.39 178.133 106.931C173.859 120.156 161.446 129.72 146.799 129.72Z" fill="white" fill-opacity="0.5"/>
</g>
</g>
<defs>
<filter id="filter0_f_498_3314" x="16.7012" y="24.5439" width="169.765" height="142.371" filterUnits="userSpaceOnUse" color-interpolation-filters="sRGB">
<feFlood flood-opacity="0" result="BackgroundImageFix"/>
<feBlend mode="normal" in="SourceGraphic" in2="BackgroundImageFix" result="shape"/>
<feGaussianBlur stdDeviation="2" result="effect1_foregroundBlur_498_3314"/>
</filter>
<filter id="filter1_d_498_3314" x="0.701172" y="0.543945" width="221.765" height="161.176" filterUnits="userSpaceOnUse" color-interpolation-filters="sRGB">
<feFlood flood-opacity="0" result="BackgroundImageFix"/>
<feColorMatrix in="SourceAlpha" type="matrix" values="0 0 0 0 0 0 0 0 0 0 0 0 0 0 0 0 0 0 127 0" result="hardAlpha"/>
<feOffset dx="10" dy="2"/>
<feGaussianBlur stdDeviation="15"/>
<feColorMatrix type="matrix" values="0 0 0 0 0.501961 0 0 0 0 0.501961 0 0 0 0 0.501961 0 0 0 0.302 0"/>
<feBlend mode="normal" in2="BackgroundImageFix" result="effect1_dropShadow_498_3314"/>
<feBlend mode="normal" in="SourceGraphic" in2="effect1_dropShadow_498_3314" result="shape"/>
</filter>
<linearGradient id="paint0_linear_498_3314" x1="101.596" y1="28.5449" x2="148.586" y2="142.157" gradientUnits="userSpaceOnUse">
<stop stop-color="white" stop-opacity="0.604"/>
<stop offset="1" stop-color="white" stop-opacity="0.2"/>
</linearGradient>
</defs>
</svg>
