<svg width="222" height="162" viewBox="0 0 222 162" fill="none" xmlns="http://www.w3.org/2000/svg">
<g filter="url(#filter0_f_498_3286)">
<g filter="url(#filter1_d_498_3286)">
<path d="M140.562 129.768H52.9223C44.4206 129.762 36.2509 126.467 30.1237 120.573C23.9964 114.68 20.3865 106.644 20.0498 98.149C19.7131 89.6539 22.6756 81.358 28.3171 74.9977C33.9587 68.6375 41.8419 64.7063 50.3165 64.0269C51.525 55.4933 55.3785 47.5533 61.3349 41.324C67.2913 35.0948 75.0508 30.8896 83.5217 29.3003C91.9926 27.711 100.749 28.8174 108.558 32.4639C116.367 36.1105 122.837 42.1136 127.056 49.6287C134.796 46.9497 143.157 46.6366 151.075 48.7295C158.993 50.8223 166.108 55.2261 171.513 61.3793C176.918 67.5325 180.367 75.1562 181.421 83.2778C182.475 91.3995 181.086 99.651 177.431 106.98C175.286 113.602 171.099 119.374 165.47 123.469C159.84 127.563 153.058 129.768 146.098 129.768H140.562Z" fill="url(#paint0_linear_498_3286)"/>
<path d="M146.098 129.31C149.632 129.31 153.107 128.746 156.426 127.633C159.636 126.557 162.649 124.986 165.382 122.965C168.084 120.967 170.452 118.573 172.421 115.851C174.415 113.095 175.954 110.063 176.996 106.839L177.006 106.806L177.022 106.775C178.407 104.006 179.474 101.078 180.193 98.0699C180.932 94.9748 181.307 91.777 181.307 88.5652C181.307 85.8004 181.029 83.0375 180.48 80.3532C179.944 77.7374 179.146 75.1643 178.106 72.7056C177.085 70.2914 175.821 67.9628 174.349 65.7846C172.891 63.627 171.217 61.5981 169.373 59.7541C167.53 57.9102 165.501 56.2362 163.343 54.7785C161.165 53.3069 158.836 52.043 156.422 51.0219C153.963 49.9819 151.39 49.1832 148.774 48.6479C146.09 48.0986 143.327 47.8201 140.562 47.8201C135.984 47.8201 131.491 48.5735 127.206 50.0594L126.845 50.1847L126.657 49.8512C123.171 43.6516 118.099 38.4451 111.991 34.7946C108.902 32.9485 105.583 31.5218 102.127 30.5543C98.5612 29.5562 94.8575 29.0501 91.1187 29.0501C86.0898 29.0501 81.1808 29.9552 76.528 31.7402C72.0332 33.4646 67.9099 35.9556 64.2727 39.1439C60.6563 42.3139 57.6552 46.0542 55.3527 50.2608C52.9937 54.5708 51.4518 59.2231 50.77 64.0886L50.719 64.4528L50.3524 64.4815C46.2512 64.8025 42.3054 65.8823 38.6245 67.6908C35.0479 69.4481 31.8542 71.8249 29.1319 74.7553C23.5384 80.7767 20.4578 88.6219 20.4578 96.8458C20.4578 101.229 21.3161 105.48 23.0089 109.482C23.8225 111.406 24.8295 113.261 26.002 114.997C27.1634 116.716 28.4973 118.332 29.9665 119.802C31.4357 121.271 33.0523 122.605 34.7715 123.766C36.507 124.939 38.3623 125.946 40.2859 126.759C44.288 128.452 48.5395 129.31 52.9224 129.31H140.562H146.098ZM146.098 129.768H140.562H52.9224C34.7399 129.768 20 115.028 20 96.8458C20 79.54 33.3519 65.353 50.3166 64.025C53.1228 44.001 70.3211 28.5923 91.1187 28.5923C106.548 28.5923 119.996 37.0724 127.056 49.6268C131.288 48.1594 135.832 47.3623 140.562 47.3623C163.318 47.3623 181.765 65.8097 181.765 88.5652C181.765 95.1834 180.204 101.438 177.431 106.98C173.158 120.204 160.745 129.768 146.098 129.768Z" fill="white" fill-opacity="0.5"/>
</g>
</g>
<defs>
<filter id="filter0_f_498_3286" x="16" y="24.5923" width="169.765" height="109.176" filterUnits="userSpaceOnUse" color-interpolation-filters="sRGB">
<feFlood flood-opacity="0" result="BackgroundImageFix"/>
<feBlend mode="normal" in="SourceGraphic" in2="BackgroundImageFix" result="shape"/>
<feGaussianBlur stdDeviation="2" result="effect1_foregroundBlur_498_3286"/>
</filter>
<filter id="filter1_d_498_3286" x="0" y="0.592285" width="221.765" height="161.176" filterUnits="userSpaceOnUse" color-interpolation-filters="sRGB">
<feFlood flood-opacity="0" result="BackgroundImageFix"/>
<feColorMatrix in="SourceAlpha" type="matrix" values="0 0 0 0 0 0 0 0 0 0 0 0 0 0 0 0 0 0 127 0" result="hardAlpha"/>
<feOffset dx="10" dy="2"/>
<feGaussianBlur stdDeviation="15"/>
<feColorMatrix type="matrix" values="0 0 0 0 0.501961 0 0 0 0 0.501961 0 0 0 0 0.501961 0 0 0 0.302 0"/>
<feBlend mode="normal" in2="BackgroundImageFix" result="effect1_dropShadow_498_3286"/>
<feBlend mode="normal" in="SourceGraphic" in2="effect1_dropShadow_498_3286" result="shape"/>
</filter>
<linearGradient id="paint0_linear_498_3286" x1="100.894" y1="28.5935" x2="147.885" y2="142.205" gradientUnits="userSpaceOnUse">
<stop stop-color="white" stop-opacity="0.604"/>
<stop offset="1" stop-color="white" stop-opacity="0.2"/>
</linearGradient>
</defs>
</svg>
