<svg width="231" height="171" viewBox="0 0 231 171" fill="none" xmlns="http://www.w3.org/2000/svg">
<g filter="url(#filter0_f_498_3538)">
<path d="M60.9393 109.504C85.8442 109.504 106.034 89.212 106.034 64.1806C106.034 39.1493 85.8442 18.8574 60.9393 18.8574C36.0344 18.8574 15.845 39.1493 15.845 64.1806C15.845 89.212 36.0344 109.504 60.9393 109.504Z" fill="#FA9E42"/>
<g filter="url(#filter1_f_498_3538)">
<path d="M57.6808 57.7351C72.6679 49.7748 81.0506 36.2296 76.4039 27.4812C71.7572 18.7328 55.8409 18.094 40.8537 26.0543C25.8665 34.0146 17.4839 47.5598 22.1306 56.3082C26.7772 65.0566 42.6936 65.6954 57.6808 57.7351Z" fill="#F8E36F"/>
</g>
<g filter="url(#filter2_d_498_3538)">
<path d="M149.683 138.804H62.0439C53.5422 138.797 45.3725 135.502 39.2452 129.609C33.118 123.715 29.5081 115.679 29.1714 107.184C28.8346 98.6894 31.7972 90.3934 37.4387 84.0331C43.0803 77.6729 50.9635 73.7417 59.438 73.0623C60.6466 64.5287 64.5001 56.5887 70.4565 50.3594C76.4129 44.1302 84.1723 39.925 92.6433 38.3357C101.114 36.7464 109.87 37.8528 117.68 41.4993C125.489 45.1459 131.958 51.149 136.178 58.6641C143.917 55.985 152.279 55.672 160.197 57.765C168.115 59.858 175.23 64.2621 180.635 70.4155C186.04 76.569 189.489 84.1929 190.543 92.3147C191.597 100.437 190.207 108.688 186.552 116.017C184.407 122.639 180.219 128.411 174.59 132.504C168.961 136.598 162.18 138.803 155.219 138.804H149.683Z" fill="url(#paint0_linear_498_3538)"/>
<path d="M155.219 138.346C158.753 138.346 162.228 137.782 165.547 136.669C168.756 135.593 171.769 134.022 174.502 132.001C177.204 130.003 179.572 127.61 181.541 124.888C183.535 122.132 185.074 119.1 186.116 115.877L186.127 115.843L186.142 115.812C187.528 113.044 188.595 110.115 189.314 107.107C190.054 104.012 190.429 100.813 190.429 97.6009C190.429 94.8361 190.15 92.0732 189.601 89.3889C189.066 86.773 188.267 84.2 187.227 81.7412C186.206 79.327 184.942 76.9985 183.47 74.8203C182.013 72.6627 180.339 70.6337 178.495 68.7898C176.651 66.9459 174.622 65.2718 172.464 63.8141C170.286 62.3426 167.957 61.0787 165.543 60.0575C163.084 59.0176 160.511 58.2188 157.896 57.6835C155.211 57.1343 152.448 56.8557 149.684 56.8557C145.106 56.8557 140.612 57.6091 136.328 59.095L135.966 59.2203L135.779 58.8869C132.292 52.6872 127.221 47.4808 121.112 43.8303C118.023 41.9841 114.704 40.5575 111.248 39.59C107.683 38.5918 103.979 38.0857 100.24 38.0857C95.2111 38.0857 90.3021 38.9908 85.6493 40.7759C81.1545 42.5003 77.0313 44.9912 73.394 48.1795C69.7776 51.3495 66.7766 55.0898 64.4741 59.2965C62.115 63.6064 60.5732 68.2588 59.8914 73.1242L59.8403 73.4884L59.4737 73.5171C55.3725 73.8381 51.4267 74.9179 47.7459 76.7264C44.1693 78.4837 40.9755 80.8606 38.2533 83.791C32.6597 89.8123 29.5791 97.6575 29.5791 105.881C29.5791 110.264 30.4374 114.516 32.1302 118.518C32.9438 120.441 33.9508 122.297 35.1233 124.032C36.2848 125.751 37.6186 127.368 39.0878 128.837C40.557 130.307 42.1737 131.64 43.8928 132.802C45.6284 133.974 47.4837 134.981 49.4072 135.795C53.4093 137.488 57.6608 138.346 62.0437 138.346H149.684H155.219ZM155.219 138.804H149.684H62.0437C43.8613 138.804 29.1213 124.064 29.1213 105.881C29.1213 88.5757 42.4732 74.3886 59.438 73.0607C62.2441 53.0366 79.4425 37.6279 100.24 37.6279C115.669 37.6279 129.117 46.108 136.178 58.6624C140.409 57.195 144.953 56.3979 149.684 56.3979C172.439 56.3979 190.887 74.8453 190.887 97.6009C190.887 104.22 189.326 110.475 186.552 116.017C182.277 129.24 169.865 138.804 155.219 138.804Z" fill="white" fill-opacity="0.5"/>
</g>
</g>
<defs>
<filter id="filter0_f_498_3538" x="11.845" y="14.8574" width="183.042" height="127.947" filterUnits="userSpaceOnUse" color-interpolation-filters="sRGB">
<feFlood flood-opacity="0" result="BackgroundImageFix"/>
<feBlend mode="normal" in="SourceGraphic" in2="BackgroundImageFix" result="shape"/>
<feGaussianBlur stdDeviation="2" result="effect1_foregroundBlur_498_3538"/>
</filter>
<filter id="filter1_f_498_3538" x="0.848633" y="0.478027" width="96.8372" height="82.8333" filterUnits="userSpaceOnUse" color-interpolation-filters="sRGB">
<feFlood flood-opacity="0" result="BackgroundImageFix"/>
<feBlend mode="normal" in="SourceGraphic" in2="BackgroundImageFix" result="shape"/>
<feGaussianBlur stdDeviation="10" result="effect1_foregroundBlur_498_3538"/>
</filter>
<filter id="filter2_d_498_3538" x="9.12134" y="9.62793" width="221.765" height="161.176" filterUnits="userSpaceOnUse" color-interpolation-filters="sRGB">
<feFlood flood-opacity="0" result="BackgroundImageFix"/>
<feColorMatrix in="SourceAlpha" type="matrix" values="0 0 0 0 0 0 0 0 0 0 0 0 0 0 0 0 0 0 127 0" result="hardAlpha"/>
<feOffset dx="10" dy="2"/>
<feGaussianBlur stdDeviation="15"/>
<feColorMatrix type="matrix" values="0 0 0 0 0.501961 0 0 0 0 0.501961 0 0 0 0 0.501961 0 0 0 0.302 0"/>
<feBlend mode="normal" in2="BackgroundImageFix" result="effect1_dropShadow_498_3538"/>
<feBlend mode="normal" in="SourceGraphic" in2="effect1_dropShadow_498_3538" result="shape"/>
</filter>
<linearGradient id="paint0_linear_498_3538" x1="110.015" y1="37.6289" x2="157.006" y2="151.241" gradientUnits="userSpaceOnUse">
<stop stop-color="white" stop-opacity="0.604"/>
<stop offset="1" stop-color="white" stop-opacity="0.2"/>
</linearGradient>
</defs>
</svg>
