<svg width="223" height="167" viewBox="0 0 223 167" fill="none" xmlns="http://www.w3.org/2000/svg">
<g filter="url(#filter0_f_498_4399)">
<path d="M84.6719 103.152C84.9607 103.161 87.8926 114.711 87.8926 119.2C87.8926 123.688 86.4505 127.327 84.6719 127.327C82.8933 127.327 81.4512 123.688 81.4512 119.2C81.4512 114.712 84.3812 103.145 84.6719 103.152Z" fill="#42A0F0"/>
<path d="M84.1806 116.622C84.651 116.785 84.7941 117.802 84.5002 118.893C84.2063 119.984 83.5864 120.736 83.1158 120.573C82.6453 120.41 82.5019 119.393 82.7962 118.302C83.0906 117.211 83.7096 116.459 84.1806 116.622Z" fill="white"/>
<path d="M112.109 103.152C112.398 103.161 115.33 114.711 115.33 119.2C115.33 123.688 113.887 127.327 112.109 127.327C110.33 127.327 108.888 123.688 108.888 119.2C108.888 114.712 111.818 103.145 112.109 103.152Z" fill="#42A0F0"/>
<path d="M111.618 116.622C112.088 116.785 112.231 117.802 111.937 118.893C111.643 119.984 111.023 120.736 110.553 120.573C110.082 120.41 109.939 119.393 110.233 118.302C110.528 117.211 111.147 116.459 111.618 116.622Z" fill="white"/>
<path d="M139.546 101.779C139.835 101.787 142.767 113.338 142.767 117.826C142.767 122.314 141.324 125.953 139.546 125.953C137.767 125.953 136.325 122.315 136.325 117.826C136.325 113.338 139.255 101.771 139.546 101.779Z" fill="#42A0F0"/>
<path d="M139.055 115.248C139.525 115.412 139.668 116.428 139.374 117.52C139.08 118.611 138.46 119.362 137.99 119.199C137.519 119.036 137.376 118.019 137.67 116.928C137.965 115.837 138.584 115.085 139.055 115.248Z" fill="white"/>
<path d="M97.5835 133.826C97.8724 133.834 100.804 145.384 100.804 149.873C100.804 154.361 99.3621 158 97.5835 158C95.8049 158 94.3628 154.362 94.3628 149.873C94.3628 145.385 97.2928 133.818 97.5835 133.826Z" fill="#42A0F0"/>
<path d="M97.0922 147.295C97.5626 147.459 97.7057 148.475 97.4118 149.566C97.118 150.658 96.498 151.409 96.0275 151.246C95.5569 151.083 95.4136 150.066 95.7079 148.975C96.0022 147.884 96.6213 147.132 97.0922 147.295Z" fill="white"/>
<path d="M125.021 133.826C125.309 133.834 128.241 145.384 128.241 149.873C128.241 154.361 126.799 158 125.021 158C123.242 158 121.8 154.362 121.8 149.873C121.8 145.385 124.73 133.818 125.021 133.826Z" fill="#42A0F0"/>
<path d="M124.529 147.295C125 147.459 125.143 148.475 124.849 149.566C124.555 150.658 123.935 151.409 123.464 151.246C122.994 151.083 122.851 150.066 123.145 148.975C123.439 147.884 124.058 147.132 124.529 147.295Z" fill="white"/>
<path d="M154.071 133.826C154.36 133.834 157.292 145.384 157.292 149.873C157.292 154.361 155.85 158 154.071 158C152.293 158 150.851 154.362 150.851 149.873C150.851 145.385 153.781 133.818 154.071 133.826Z" fill="#42A0F0"/>
<path d="M153.58 147.295C154.05 147.459 154.193 148.475 153.9 149.566C153.606 150.658 152.986 151.409 152.515 151.246C152.045 151.083 151.901 150.066 152.196 148.975C152.49 147.884 153.109 147.132 153.58 147.295Z" fill="white"/>
<path d="M51.7864 115.57H70.287L59.6525 131.187L72.0866 131.422L45.9878 162.313L52.3115 138.761H40.7349L51.7864 115.57Z" fill="url(#paint0_linear_498_4399)"/>
<g filter="url(#filter1_d_498_4399)">
<path d="M140.851 130H53.2114C44.7097 129.993 36.54 126.698 30.4127 120.804C24.2854 114.911 20.6756 106.875 20.3388 98.3802C20.0021 89.8852 22.9646 81.5892 28.6062 75.2289C34.2478 68.8687 42.131 64.9375 50.6055 64.2581C51.814 55.7245 55.6676 47.7845 61.624 41.5552C67.5803 35.326 75.3398 31.1208 83.8107 29.5315C92.2817 27.9422 101.038 29.0486 108.847 32.6951C116.656 36.3417 123.126 42.3448 127.346 49.8599C135.085 47.1809 143.447 46.8678 151.364 48.9607C159.282 51.0535 166.397 55.4573 171.802 61.6105C177.207 67.7637 180.656 75.3874 181.71 83.509C182.764 91.6307 181.375 99.8822 177.72 107.211C175.576 113.833 171.388 119.606 165.759 123.7C160.129 127.794 153.348 129.999 146.387 130H140.851Z" fill="url(#paint1_linear_498_4399)"/>
<path d="M146.387 129.542C149.921 129.542 153.396 128.977 156.715 127.865C159.925 126.788 162.938 125.218 165.671 123.196C168.373 121.198 170.741 118.805 172.71 116.083C174.704 113.326 176.243 110.294 177.285 107.07L177.296 107.037L177.311 107.006C178.696 104.238 179.763 101.309 180.482 98.3013C181.221 95.2063 181.596 92.0084 181.596 88.7967C181.596 86.0319 181.318 83.269 180.769 80.5847C180.233 77.9688 179.435 75.3958 178.395 72.937C177.374 70.5228 176.11 68.1943 174.638 66.0161C173.18 63.8585 171.506 61.8295 169.663 59.9856C167.819 58.1417 165.79 56.4676 163.632 55.0099C161.454 53.5384 159.125 52.2745 156.711 51.2533C154.252 50.2134 151.679 49.4146 149.063 48.8793C146.379 48.3301 143.616 48.0515 140.851 48.0515C136.273 48.0515 131.78 48.8049 127.496 50.2908L127.134 50.4162L126.946 50.0827C123.46 43.8831 118.388 38.6766 112.28 35.0261C109.191 33.1799 105.872 31.7533 102.416 30.7858C98.8503 29.7876 95.1466 29.2815 91.4078 29.2815C86.3788 29.2815 81.4698 30.1866 76.8171 31.9717C72.3223 33.6961 68.199 36.187 64.5617 39.3753C60.9454 42.5453 57.9443 46.2856 55.6418 50.4923C53.2828 54.8022 51.7409 59.4546 51.0591 64.32L51.0081 64.6842L50.6414 64.7129C46.5403 65.0339 42.5945 66.1137 38.9136 67.9222C35.337 69.6795 32.1432 72.0564 29.421 74.9868C23.8274 81.0081 20.7469 88.8533 20.7469 97.0772C20.7469 101.46 21.6052 105.712 23.2979 109.714C24.1115 111.637 25.1186 113.493 26.2911 115.228C27.4525 116.947 28.7864 118.564 30.2556 120.033C31.7247 121.502 33.3414 122.836 35.0605 123.998C36.7961 125.17 38.6514 126.177 40.5749 126.991C44.577 128.684 48.8286 129.542 53.2114 129.542H140.851H146.387ZM146.387 130H140.851H53.2114C35.029 130 20.2891 115.26 20.2891 97.0772C20.2891 79.7715 33.6409 65.5844 50.6057 64.2565C53.4118 44.2324 70.6102 28.8237 91.4078 28.8237C106.837 28.8237 120.285 37.3039 127.346 49.8583C131.577 48.3909 136.121 47.5937 140.851 47.5937C163.607 47.5937 182.054 66.0411 182.054 88.7967C182.054 95.4148 180.493 101.67 177.72 107.211C173.447 120.435 161.034 130 146.387 130Z" fill="white" fill-opacity="0.5"/>
</g>
</g>
<defs>
<filter id="filter0_f_498_4399" x="16.2891" y="24.8237" width="169.765" height="141.489" filterUnits="userSpaceOnUse" color-interpolation-filters="sRGB">
<feFlood flood-opacity="0" result="BackgroundImageFix"/>
<feBlend mode="normal" in="SourceGraphic" in2="BackgroundImageFix" result="shape"/>
<feGaussianBlur stdDeviation="2" result="effect1_foregroundBlur_498_4399"/>
</filter>
<filter id="filter1_d_498_4399" x="0.289062" y="0.82373" width="221.765" height="161.176" filterUnits="userSpaceOnUse" color-interpolation-filters="sRGB">
<feFlood flood-opacity="0" result="BackgroundImageFix"/>
<feColorMatrix in="SourceAlpha" type="matrix" values="0 0 0 0 0 0 0 0 0 0 0 0 0 0 0 0 0 0 127 0" result="hardAlpha"/>
<feOffset dx="10" dy="2"/>
<feGaussianBlur stdDeviation="15"/>
<feColorMatrix type="matrix" values="0 0 0 0 0.501961 0 0 0 0 0.501961 0 0 0 0 0.501961 0 0 0 0.302 0"/>
<feBlend mode="normal" in2="BackgroundImageFix" result="effect1_dropShadow_498_4399"/>
<feBlend mode="normal" in="SourceGraphic" in2="effect1_dropShadow_498_4399" result="shape"/>
</filter>
<linearGradient id="paint0_linear_498_4399" x1="53.5264" y1="138.942" x2="38.8818" y2="133.573" gradientUnits="userSpaceOnUse">
<stop stop-color="#FFD100"/>
<stop offset="1" stop-color="#FFF0AA"/>
</linearGradient>
<linearGradient id="paint1_linear_498_4399" x1="101.183" y1="28.8247" x2="148.174" y2="142.437" gradientUnits="userSpaceOnUse">
<stop stop-color="white" stop-opacity="0.604"/>
<stop offset="1" stop-color="white" stop-opacity="0.2"/>
</linearGradient>
</defs>
</svg>
