<svg width="223" height="172" viewBox="0 0 223 172" fill="none" xmlns="http://www.w3.org/2000/svg">
<g filter="url(#filter0_f_498_3291)">
<path d="M70.9517 119.695C70.9517 119.695 133.712 120.297 147.301 116.35C160.889 112.404 160.872 91.9225 147.301 86.8737C133.73 81.825 129.092 99.8714 129.092 99.8714" stroke="#D0D0D0" stroke-width="20" stroke-linecap="round"/>
<path d="M50.3608 140.762C50.3608 140.762 96.4202 136.601 116.725 140.762C137.031 144.924 130.565 156.862 120.942 157.408C111.319 157.954 102.439 151.63 102.439 151.63" stroke="#D0D0D0" stroke-width="20" stroke-linecap="round"/>
<path d="M148.395 140.731H166.707" stroke="#D0D0D0" stroke-width="20" stroke-linecap="round"/>
<g filter="url(#filter1_d_498_3291)">
<path d="M141.298 129.515H53.6586C45.1569 129.509 36.9873 126.214 30.86 120.32C24.7327 114.426 21.1228 106.391 20.7861 97.8958C20.4494 89.4008 23.4119 81.1048 29.0535 74.7446C34.695 68.3844 42.5782 64.4531 51.0528 63.7737C52.2613 55.2401 56.1148 47.3002 62.0712 41.0709C68.0276 34.8416 75.7871 30.6365 84.258 29.0471C92.7289 27.4578 101.485 28.5642 109.294 32.2108C117.104 35.8573 123.573 41.8604 127.793 49.3756C135.532 46.6965 143.894 46.3834 151.812 48.4764C159.73 50.5694 166.845 54.9735 172.25 61.1269C177.655 67.2804 181.104 74.9043 182.158 83.0262C183.211 91.148 181.822 99.3997 178.167 106.729C176.021 113.35 171.834 119.122 166.205 123.216C160.576 127.31 153.794 129.515 146.834 129.515H141.298Z" fill="url(#paint0_linear_498_3291)"/>
<path d="M146.834 129.057C150.368 129.057 153.843 128.493 157.162 127.38C160.371 126.304 163.384 124.734 166.117 122.712C168.819 120.714 171.187 118.321 173.156 115.599C175.15 112.843 176.689 109.811 177.731 106.588L177.742 106.555L177.757 106.524C179.143 103.755 180.21 100.826 180.929 97.8181C181.669 94.7231 182.044 91.5249 182.044 88.3123C182.044 85.5475 181.765 82.7846 181.216 80.1003C180.681 77.4844 179.882 74.9114 178.842 72.4527C177.821 70.0385 176.557 67.7099 175.085 65.5317C173.628 63.3741 171.954 61.3451 170.11 59.5012C168.266 57.6573 166.237 55.9832 164.079 54.5256C161.901 53.054 159.572 51.7901 157.158 50.769C154.699 49.729 152.126 48.9303 149.511 48.395C146.826 47.8457 144.063 47.5672 141.299 47.5672C136.721 47.5672 132.227 48.3206 127.943 49.8064L127.581 49.9318L127.394 49.5983C123.907 43.3987 118.836 38.1922 112.727 34.5417C109.638 32.6955 106.319 31.2689 102.863 30.3014C99.2975 29.3033 95.5939 28.7972 91.855 28.7972C86.8261 28.7972 81.9171 29.7023 77.2643 31.4873C72.7695 33.2117 68.6462 35.7027 65.009 38.891C61.3926 42.061 58.3915 45.8012 56.089 50.0079C53.73 54.3179 52.1882 58.9702 51.5063 63.8356L51.4553 64.1998L51.0887 64.2285C46.9875 64.5495 43.0417 65.6293 39.3609 67.4378C35.7843 69.1951 32.5905 71.572 29.8683 74.5024C24.2747 80.5237 21.1941 88.3689 21.1941 96.5928C21.1941 100.976 22.0524 105.227 23.7452 109.229C24.5588 111.153 25.5658 113.008 26.7383 114.744C27.8998 116.463 29.2336 118.08 30.7028 119.549C32.172 121.018 33.7887 122.352 35.5078 123.513C37.2433 124.686 39.0986 125.693 41.0222 126.506C45.0243 128.199 49.2758 129.057 53.6587 129.057H141.299H146.834ZM146.834 129.515H141.299H53.6587C35.4763 129.515 20.7363 114.775 20.7363 96.5928C20.7363 79.2871 34.0882 65.1 51.053 63.7721C53.8591 43.748 71.0574 28.3394 91.855 28.3394C107.284 28.3394 120.732 36.8194 127.793 49.3739C132.024 47.9064 136.568 47.1094 141.299 47.1094C164.054 47.1094 182.502 65.5567 182.502 88.3123C182.502 94.9319 180.941 101.186 178.167 106.729C173.892 119.951 161.48 129.515 146.834 129.515Z" fill="white" fill-opacity="0.5"/>
</g>
</g>
<defs>
<filter id="filter0_f_498_3291" x="16.7363" y="24.3394" width="169.765" height="147.102" filterUnits="userSpaceOnUse" color-interpolation-filters="sRGB">
<feFlood flood-opacity="0" result="BackgroundImageFix"/>
<feBlend mode="normal" in="SourceGraphic" in2="BackgroundImageFix" result="shape"/>
<feGaussianBlur stdDeviation="2" result="effect1_foregroundBlur_498_3291"/>
</filter>
<filter id="filter1_d_498_3291" x="0.736328" y="0.339355" width="221.765" height="161.176" filterUnits="userSpaceOnUse" color-interpolation-filters="sRGB">
<feFlood flood-opacity="0" result="BackgroundImageFix"/>
<feColorMatrix in="SourceAlpha" type="matrix" values="0 0 0 0 0 0 0 0 0 0 0 0 0 0 0 0 0 0 127 0" result="hardAlpha"/>
<feOffset dx="10" dy="2"/>
<feGaussianBlur stdDeviation="15"/>
<feColorMatrix type="matrix" values="0 0 0 0 0.501961 0 0 0 0 0.501961 0 0 0 0 0.501961 0 0 0 0.302 0"/>
<feBlend mode="normal" in2="BackgroundImageFix" result="effect1_dropShadow_498_3291"/>
<feBlend mode="normal" in="SourceGraphic" in2="effect1_dropShadow_498_3291" result="shape"/>
</filter>
<linearGradient id="paint0_linear_498_3291" x1="101.63" y1="28.3403" x2="148.621" y2="141.952" gradientUnits="userSpaceOnUse">
<stop stop-color="white" stop-opacity="0.604"/>
<stop offset="1" stop-color="white" stop-opacity="0.2"/>
</linearGradient>
</defs>
</svg>
