<svg width="223" height="171" viewBox="0 0 223 171" fill="none" xmlns="http://www.w3.org/2000/svg">
<g filter="url(#filter0_f_498_4462)">
<path d="M113.471 118.555C113.471 118.555 145.575 119.544 158.348 115.835C171.936 111.889 171.919 91.4073 158.348 86.3586C144.777 81.3099 140.139 99.3563 140.139 99.3563" stroke="#D0D0D0" stroke-width="20" stroke-linecap="round"/>
<path d="M93.6475 138.544C93.6475 138.544 107.468 136.086 127.773 140.247C148.078 144.408 141.613 156.347 131.989 156.893C122.366 157.438 113.486 151.115 113.486 151.115" stroke="#D0D0D0" stroke-width="20" stroke-linecap="round"/>
<path d="M159.442 140.216H177.754" stroke="#D0D0D0" stroke-width="20" stroke-linecap="round"/>
<path d="M67.5584 108.294C66.553 108.308 56.353 124.231 56.353 130.42C56.353 133.392 57.5336 136.242 59.635 138.343C61.7364 140.445 64.5865 141.625 67.5584 141.625C70.5302 141.625 73.3804 140.445 75.4818 138.343C77.5832 136.242 78.7638 133.392 78.7638 130.42C78.7638 124.231 68.5637 108.283 67.5584 108.294Z" fill="#42A0F0"/>
<path d="M73.7997 127.078C72.6799 127.421 72.2876 129.384 72.9233 131.463C73.5591 133.543 74.9822 134.951 76.1019 134.609C77.2217 134.266 77.614 132.303 76.9783 130.224C76.3425 128.144 74.9194 126.736 73.7997 127.078Z" fill="white"/>
<path d="M37.3689 130.767C36.5393 130.776 28.1211 143.92 28.1211 149.028C28.1211 151.48 29.0954 153.833 30.8297 155.567C32.564 157.301 34.9162 158.276 37.3689 158.276C39.8215 158.276 42.1737 157.301 43.908 155.567C45.6423 153.833 46.6166 151.48 46.6166 149.028C46.6166 143.92 38.1989 130.758 37.3689 130.767Z" fill="#42A0F0"/>
<path d="M42.5201 146.27C41.596 146.553 41.2721 148.173 41.7967 149.889C42.3214 151.605 43.4958 152.767 44.42 152.484C45.3441 152.202 45.668 150.582 45.1433 148.866C44.6187 147.15 43.4442 145.987 42.5201 146.27Z" fill="white"/>
<g filter="url(#filter1_d_498_4462)">
<path d="M140.901 129.458H53.2612C44.7595 129.451 36.5898 126.156 30.4625 120.262C24.3352 114.369 20.7254 106.333 20.3887 97.8382C20.0519 89.3432 23.0144 81.0472 28.656 74.687C34.2976 68.3268 42.1808 64.3955 50.6553 63.7161C51.8638 55.1825 55.7174 47.2425 61.6738 41.0133C67.6301 34.784 75.3896 30.5789 83.8606 28.9895C92.3315 27.4002 101.088 28.5066 108.897 32.1531C116.706 35.7997 123.176 41.8028 127.395 49.318C135.135 46.6389 143.497 46.3258 151.415 48.4188C159.333 50.5118 166.448 54.9159 171.852 61.0693C177.257 67.2228 180.706 74.8467 181.76 82.9685C182.814 91.0904 181.424 99.3421 177.769 106.671C175.624 113.293 171.436 119.064 165.807 123.158C160.178 127.252 153.397 129.457 146.437 129.458H140.901Z" fill="url(#paint0_linear_498_4462)"/>
<path d="M146.436 129C149.97 129 153.445 128.436 156.764 127.323C159.973 126.246 162.986 124.676 165.719 122.655C168.421 120.657 170.789 118.264 172.758 115.541C174.752 112.785 176.291 109.754 177.333 106.53L177.344 106.497L177.359 106.466C178.745 103.697 179.812 100.768 180.531 97.7605C181.271 94.6655 181.646 91.4673 181.646 88.2547C181.646 85.4899 181.367 82.727 180.818 80.0427C180.283 77.4268 179.484 74.8538 178.444 72.3951C177.423 69.9808 176.159 67.6523 174.687 65.4741C173.23 63.3165 171.556 61.2875 169.712 59.4436C167.868 57.5997 165.839 55.9256 163.681 54.468C161.503 52.9964 159.174 51.7325 156.76 50.7113C154.301 49.6714 151.728 48.8726 149.113 48.3373C146.428 47.7881 143.665 47.5095 140.901 47.5095C136.323 47.5095 131.829 48.2629 127.545 49.7488L127.183 49.8742L126.996 49.5407C123.509 43.3411 118.438 38.1346 112.329 34.4841C109.24 32.6379 105.922 31.2113 102.465 30.2438C98.8996 29.2456 95.1959 28.7395 91.4571 28.7395C86.4282 28.7395 81.5191 29.6446 76.8664 31.4297C72.3716 33.1541 68.2483 35.645 64.611 38.8334C60.9947 42.0033 57.9936 45.7436 55.6911 49.9503C53.3321 54.2603 51.7902 58.9126 51.1084 63.778L51.0574 64.1422L50.6907 64.1709C46.5896 64.4919 42.6438 65.5717 38.9629 67.3802C35.3863 69.1375 32.1925 71.5144 29.4703 74.4448C23.8767 80.4661 20.7962 88.3113 20.7962 96.5352C20.7962 100.918 21.6545 105.17 23.3472 109.172C24.1608 111.095 25.1679 112.951 26.3404 114.686C27.5018 116.405 28.8357 118.022 30.3049 119.491C31.7741 120.96 33.3907 122.294 35.1099 123.456C36.8454 124.628 38.7007 125.635 40.6242 126.449C44.6263 128.142 48.8779 129 53.2607 129H140.901H146.436ZM146.436 129.458H140.901H53.2607C35.0783 129.458 20.3384 114.718 20.3384 96.5352C20.3384 79.2295 33.6903 65.0424 50.655 63.7145C53.4611 43.6904 70.6595 28.2817 91.4571 28.2817C106.886 28.2817 120.334 36.7618 127.395 49.3163C131.626 47.8488 136.17 47.0517 140.901 47.0517C163.656 47.0517 182.104 65.4991 182.104 88.2547C182.104 94.8743 180.543 101.129 177.769 106.671C173.494 119.894 161.082 129.458 146.436 129.458Z" fill="white" fill-opacity="0.5"/>
</g>
</g>
<defs>
<filter id="filter0_f_498_4462" x="16.3384" y="24.2817" width="175.416" height="146.644" filterUnits="userSpaceOnUse" color-interpolation-filters="sRGB">
<feFlood flood-opacity="0" result="BackgroundImageFix"/>
<feBlend mode="normal" in="SourceGraphic" in2="BackgroundImageFix" result="shape"/>
<feGaussianBlur stdDeviation="2" result="effect1_foregroundBlur_498_4462"/>
</filter>
<filter id="filter1_d_498_4462" x="0.338379" y="0.281738" width="221.765" height="161.176" filterUnits="userSpaceOnUse" color-interpolation-filters="sRGB">
<feFlood flood-opacity="0" result="BackgroundImageFix"/>
<feColorMatrix in="SourceAlpha" type="matrix" values="0 0 0 0 0 0 0 0 0 0 0 0 0 0 0 0 0 0 127 0" result="hardAlpha"/>
<feOffset dx="10" dy="2"/>
<feGaussianBlur stdDeviation="15"/>
<feColorMatrix type="matrix" values="0 0 0 0 0.501961 0 0 0 0 0.501961 0 0 0 0 0.501961 0 0 0 0.302 0"/>
<feBlend mode="normal" in2="BackgroundImageFix" result="effect1_dropShadow_498_4462"/>
<feBlend mode="normal" in="SourceGraphic" in2="effect1_dropShadow_498_4462" result="shape"/>
</filter>
<linearGradient id="paint0_linear_498_4462" x1="101.233" y1="28.2827" x2="148.224" y2="141.895" gradientUnits="userSpaceOnUse">
<stop stop-color="white" stop-opacity="0.604"/>
<stop offset="1" stop-color="white" stop-opacity="0.2"/>
</linearGradient>
</defs>
</svg>
