<svg width="223" height="174" viewBox="0 0 223 174" fill="none" xmlns="http://www.w3.org/2000/svg">
<g filter="url(#filter0_f_498_4479)">
<path d="M108.52 120.845C108.52 120.845 140.624 121.833 153.397 118.124C166.985 114.178 166.968 93.6964 153.397 88.6477C139.826 83.5989 135.188 101.645 135.188 101.645" stroke="#D0D0D0" stroke-width="20" stroke-linecap="round"/>
<path d="M88.6963 140.834C88.6963 140.834 102.517 138.375 122.822 142.536C143.127 146.697 136.661 158.636 127.038 159.182C117.415 159.727 108.535 153.404 108.535 153.404" stroke="#D0D0D0" stroke-width="20" stroke-linecap="round"/>
<path d="M154.491 142.505H172.803" stroke="#D0D0D0" stroke-width="20" stroke-linecap="round"/>
<path d="M72.5054 135.543V148.457" stroke="#42A0F0" stroke-width="2" stroke-linecap="round"/>
<path d="M72.48 138.7L74.704 136.404" stroke="#42A0F0" stroke-width="2" stroke-linecap="round"/>
<path d="M72.4798 138.7L70.1838 136.404" stroke="#42A0F0" stroke-width="2" stroke-linecap="round"/>
<path d="M72.48 145.587L74.704 147.883" stroke="#42A0F0" stroke-width="2" stroke-linecap="round"/>
<path d="M72.4798 145.587L70.1838 147.883" stroke="#42A0F0" stroke-width="2" stroke-linecap="round"/>
<path d="M78.0664 138.825L66.8826 145.282" stroke="#42A0F0" stroke-width="2" stroke-linecap="round"/>
<path d="M75.3195 140.381L78.4199 141.159" stroke="#42A0F0" stroke-width="2" stroke-linecap="round"/>
<path d="M75.3195 140.381L76.1599 137.245" stroke="#42A0F0" stroke-width="2" stroke-linecap="round"/>
<path d="M69.3552 143.825L68.4789 146.899" stroke="#42A0F0" stroke-width="2" stroke-linecap="round"/>
<path d="M69.3552 143.825L66.219 142.985" stroke="#42A0F0" stroke-width="2" stroke-linecap="round"/>
<path d="M78.0046 145.282L66.8209 138.825" stroke="#42A0F0" stroke-width="2" stroke-linecap="round"/>
<path d="M75.2832 143.682L76.1595 146.756" stroke="#42A0F0" stroke-width="2" stroke-linecap="round"/>
<path d="M75.2832 143.682L78.4194 142.841" stroke="#42A0F0" stroke-width="2" stroke-linecap="round"/>
<path d="M69.3191 140.238L66.2187 141.016" stroke="#42A0F0" stroke-width="2" stroke-linecap="round"/>
<path d="M69.3191 140.238L68.4787 137.102" stroke="#42A0F0" stroke-width="2" stroke-linecap="round"/>
<path d="M33.7039 132.15V156.239" stroke="#42A0F0" stroke-width="4" stroke-linecap="round"/>
<path d="M33.6553 138.039L37.804 133.756" stroke="#42A0F0" stroke-width="4" stroke-linecap="round"/>
<path d="M33.6552 138.039L29.3728 133.756" stroke="#42A0F0" stroke-width="4" stroke-linecap="round"/>
<path d="M33.6553 150.886L37.804 155.169" stroke="#42A0F0" stroke-width="4" stroke-linecap="round"/>
<path d="M33.6552 150.886L29.3728 155.169" stroke="#42A0F0" stroke-width="4" stroke-linecap="round"/>
<path d="M44.0774 138.272L23.2156 150.317" stroke="#42A0F0" stroke-width="4" stroke-linecap="round"/>
<path d="M38.9535 141.175L44.7364 142.627" stroke="#42A0F0" stroke-width="4" stroke-linecap="round"/>
<path d="M38.9535 141.175L40.521 135.325" stroke="#42A0F0" stroke-width="4" stroke-linecap="round"/>
<path d="M27.8274 147.599L26.1931 153.333" stroke="#42A0F0" stroke-width="4" stroke-linecap="round"/>
<path d="M27.8272 147.598L21.9774 146.031" stroke="#42A0F0" stroke-width="4" stroke-linecap="round"/>
<path d="M43.9619 150.317L23.1002 138.272" stroke="#42A0F0" stroke-width="4" stroke-linecap="round"/>
<path d="M38.8866 147.331L40.5209 153.065" stroke="#42A0F0" stroke-width="4" stroke-linecap="round"/>
<path d="M38.8865 147.331L44.7363 145.763" stroke="#42A0F0" stroke-width="4" stroke-linecap="round"/>
<path d="M27.7603 140.907L21.9773 142.358" stroke="#42A0F0" stroke-width="4" stroke-linecap="round"/>
<path d="M27.7602 140.907L26.1927 135.057" stroke="#42A0F0" stroke-width="4" stroke-linecap="round"/>
<path d="M51.1006 102.393V126.482" stroke="#42A0F0" stroke-width="4" stroke-linecap="round"/>
<path d="M51.052 108.281L55.2007 103.999" stroke="#42A0F0" stroke-width="4" stroke-linecap="round"/>
<path d="M51.0521 108.281L46.7698 103.999" stroke="#42A0F0" stroke-width="4" stroke-linecap="round"/>
<path d="M51.052 121.128L55.2007 125.411" stroke="#42A0F0" stroke-width="4" stroke-linecap="round"/>
<path d="M51.0521 121.128L46.7698 125.411" stroke="#42A0F0" stroke-width="4" stroke-linecap="round"/>
<path d="M61.4741 108.515L40.6124 120.559" stroke="#42A0F0" stroke-width="4" stroke-linecap="round"/>
<path d="M56.3507 111.417L62.1337 112.869" stroke="#42A0F0" stroke-width="4" stroke-linecap="round"/>
<path d="M56.3503 111.417L57.9177 105.567" stroke="#42A0F0" stroke-width="4" stroke-linecap="round"/>
<path d="M45.2244 117.841L43.5901 123.575" stroke="#42A0F0" stroke-width="4" stroke-linecap="round"/>
<path d="M45.2244 117.841L39.3746 116.274" stroke="#42A0F0" stroke-width="4" stroke-linecap="round"/>
<path d="M61.3589 120.559L40.4971 108.515" stroke="#42A0F0" stroke-width="4" stroke-linecap="round"/>
<path d="M56.2833 117.573L57.9176 123.307" stroke="#42A0F0" stroke-width="4" stroke-linecap="round"/>
<path d="M56.2835 117.573L62.1333 116.006" stroke="#42A0F0" stroke-width="4" stroke-linecap="round"/>
<path d="M45.1572 111.149L39.3743 112.601" stroke="#42A0F0" stroke-width="4" stroke-linecap="round"/>
<path d="M45.1574 111.15L43.59 105.3" stroke="#42A0F0" stroke-width="4" stroke-linecap="round"/>
<g filter="url(#filter1_d_498_4479)">
<path d="M141.443 129.458H53.8034C45.3017 129.451 37.132 126.156 31.0048 120.262C24.8775 114.369 21.2676 106.333 20.9309 97.8382C20.5942 89.3432 23.5567 81.0472 29.1982 74.687C34.8398 68.3268 42.723 64.3955 51.1976 63.7161C52.4061 55.1825 56.2596 47.2425 62.216 41.0133C68.1724 34.784 75.9319 30.5789 84.4028 28.9895C92.8737 27.4002 101.63 28.5066 109.439 32.1531C117.248 35.7997 123.718 41.8028 127.938 49.318C135.677 46.6389 144.039 46.3258 151.957 48.4188C159.875 50.5118 166.99 54.9159 172.395 61.0693C177.799 67.2228 181.248 74.8467 182.302 82.9685C183.356 91.0904 181.967 99.3421 178.311 106.671C176.166 113.293 171.979 119.064 166.35 123.158C160.72 127.252 153.939 129.457 146.979 129.458H141.443Z" fill="url(#paint0_linear_498_4479)"/>
<path d="M146.979 129C150.513 129 153.987 128.436 157.306 127.323C160.516 126.246 163.529 124.676 166.262 122.655C168.963 120.657 171.332 118.264 173.301 115.541C175.294 112.785 176.834 109.754 177.876 106.53L177.886 106.497L177.902 106.466C179.288 103.697 180.355 100.768 181.074 97.7605C181.813 94.6655 182.188 91.4673 182.188 88.2547C182.188 85.4899 181.91 82.727 181.36 80.0427C180.825 77.4268 180.026 74.8538 178.986 72.3951C177.965 69.9808 176.701 67.6523 175.23 65.4741C173.772 63.3165 172.098 61.2875 170.254 59.4436C168.41 57.5997 166.381 55.9256 164.224 54.468C162.045 52.9964 159.717 51.7325 157.303 50.7113C154.844 49.6714 152.271 48.8726 149.655 48.3373C146.971 47.7881 144.208 47.5095 141.443 47.5095C136.865 47.5095 132.372 48.2629 128.087 49.7488L127.726 49.8742L127.538 49.5407C124.052 43.3411 118.98 38.1346 112.872 34.4841C109.783 32.6379 106.464 31.2113 103.008 30.2438C99.4421 29.2456 95.7384 28.7395 91.9996 28.7395C86.9706 28.7395 82.0616 29.6446 77.4089 31.4297C72.9141 33.1541 68.7908 35.645 65.1535 38.8334C61.5372 42.0033 58.5361 45.7436 56.2336 49.9503C53.8746 54.2603 52.3327 58.9126 51.6509 63.778L51.5999 64.1422L51.2332 64.1709C47.1321 64.4919 43.1863 65.5717 39.5054 67.3802C35.9288 69.1375 32.735 71.5144 30.0128 74.4448C24.4192 80.4661 21.3387 88.3113 21.3387 96.5352C21.3387 100.918 22.197 105.17 23.8897 109.172C24.7033 111.095 25.7104 112.951 26.8829 114.686C28.0443 116.405 29.3782 118.022 30.8473 119.491C32.3165 120.96 33.9332 122.294 35.6523 123.456C37.3879 124.628 39.2432 125.635 41.1667 126.449C45.1688 128.142 49.4204 129 53.8032 129H141.443H146.979ZM146.979 129.458H141.443H53.8032C35.6208 129.458 20.8809 114.718 20.8809 96.5352C20.8809 79.2295 34.2327 65.0424 51.1975 63.7145C54.0036 43.6904 71.202 28.2817 91.9996 28.2817C107.429 28.2817 120.877 36.7618 127.937 49.3163C132.169 47.8488 136.712 47.0517 141.443 47.0517C164.199 47.0517 182.646 65.4991 182.646 88.2547C182.646 94.8743 181.085 101.129 178.311 106.671C174.037 119.894 161.624 129.458 146.979 129.458Z" fill="white" fill-opacity="0.5"/>
</g>
</g>
<defs>
<filter id="filter0_f_498_4479" x="15.9768" y="24.2817" width="170.827" height="148.933" filterUnits="userSpaceOnUse" color-interpolation-filters="sRGB">
<feFlood flood-opacity="0" result="BackgroundImageFix"/>
<feBlend mode="normal" in="SourceGraphic" in2="BackgroundImageFix" result="shape"/>
<feGaussianBlur stdDeviation="2" result="effect1_foregroundBlur_498_4479"/>
</filter>
<filter id="filter1_d_498_4479" x="0.880859" y="0.281738" width="221.765" height="161.176" filterUnits="userSpaceOnUse" color-interpolation-filters="sRGB">
<feFlood flood-opacity="0" result="BackgroundImageFix"/>
<feColorMatrix in="SourceAlpha" type="matrix" values="0 0 0 0 0 0 0 0 0 0 0 0 0 0 0 0 0 0 127 0" result="hardAlpha"/>
<feOffset dx="10" dy="2"/>
<feGaussianBlur stdDeviation="15"/>
<feColorMatrix type="matrix" values="0 0 0 0 0.501961 0 0 0 0 0.501961 0 0 0 0 0.501961 0 0 0 0.302 0"/>
<feBlend mode="normal" in2="BackgroundImageFix" result="effect1_dropShadow_498_4479"/>
<feBlend mode="normal" in="SourceGraphic" in2="effect1_dropShadow_498_4479" result="shape"/>
</filter>
<linearGradient id="paint0_linear_498_4479" x1="101.775" y1="28.2827" x2="148.766" y2="141.895" gradientUnits="userSpaceOnUse">
<stop stop-color="white" stop-opacity="0.604"/>
<stop offset="1" stop-color="white" stop-opacity="0.2"/>
</linearGradient>
</defs>
</svg>
