<svg width="222" height="179" viewBox="0 0 222 179" fill="none" xmlns="http://www.w3.org/2000/svg">
<g filter="url(#filter0_f_498_3301)">
<path d="M93.0907 95.6372H124.255L106.339 121.946L127.286 122.342L83.3197 174.381L93.9729 134.705H74.4702L93.0907 95.6372Z" fill="url(#paint0_linear_498_3301)"/>
<path d="M141.246 123.327H154.928L147.062 134.878L156.259 135.052L136.955 157.899L141.633 140.48H133.072L141.246 123.327Z" fill="url(#paint1_linear_498_3301)"/>
<path d="M46.4789 135.009H60.1615L52.2959 146.56L61.4928 146.734L42.1888 169.581L46.8662 152.162H38.3052L46.4789 135.009Z" fill="url(#paint2_linear_498_3301)"/>
<g filter="url(#filter1_d_498_3301)">
<path d="M140.708 129.515H53.0683C44.5666 129.509 36.3969 126.214 30.2697 120.32C24.1424 114.426 20.5325 106.391 20.1958 97.8958C19.8591 89.4008 22.8216 81.1048 28.4631 74.7446C34.1047 68.3844 41.9879 64.4531 50.4625 63.7737C51.671 55.2401 55.5245 47.3002 61.4809 41.0709C67.4373 34.8416 75.1968 30.6365 83.6677 29.0471C92.1386 27.4578 100.895 28.5642 108.704 32.2108C116.513 35.8573 122.983 41.8604 127.202 49.3756C134.942 46.6965 143.304 46.3834 151.222 48.4764C159.14 50.5694 166.255 54.9735 171.66 61.1269C177.064 67.2804 180.513 74.9043 181.567 83.0262C182.621 91.148 181.232 99.3997 177.576 106.729C175.431 113.35 171.244 119.122 165.614 123.216C159.985 127.31 153.204 129.515 146.244 129.515H140.708Z" fill="url(#paint3_linear_498_3301)"/>
<path d="M146.244 129.057C149.778 129.057 153.253 128.493 156.572 127.38C159.781 126.304 162.794 124.734 165.527 122.712C168.229 120.714 170.597 118.321 172.566 115.599C174.56 112.843 176.099 109.811 177.141 106.588L177.151 106.555L177.167 106.524C178.553 103.755 179.62 100.826 180.339 97.8181C181.078 94.7231 181.453 91.5249 181.453 88.3123C181.453 85.5475 181.175 82.7846 180.626 80.1003C180.09 77.4844 179.292 74.9114 178.252 72.4527C177.23 70.0385 175.967 67.7099 174.495 65.5317C173.037 63.3741 171.363 61.3451 169.519 59.5012C167.675 57.6573 165.646 55.9832 163.489 54.5256C161.311 53.054 158.982 51.7901 156.568 50.769C154.109 49.729 151.536 48.9303 148.92 48.395C146.236 47.8457 143.473 47.5672 140.708 47.5672C136.13 47.5672 131.637 48.3206 127.352 49.8064L126.991 49.9318L126.803 49.5983C123.317 43.3987 118.245 38.1922 112.137 34.5417C109.048 32.6955 105.729 31.2689 102.273 30.3014C98.7072 29.3033 95.0035 28.7972 91.2647 28.7972C86.2358 28.7972 81.3268 29.7023 76.674 31.4873C72.1792 33.2117 68.0559 35.7027 64.4187 38.891C60.8023 42.061 57.8012 45.8012 55.4987 50.0079C53.1397 54.3179 51.5978 58.9702 50.916 63.8356L50.865 64.1998L50.4984 64.2285C46.3972 64.5495 42.4514 65.6293 38.7705 67.4378C35.1939 69.1951 32.0002 71.572 29.2779 74.5024C23.6843 80.5237 20.6038 88.3689 20.6038 96.5928C20.6038 100.976 21.4621 105.227 23.1549 109.229C23.9685 111.153 24.9755 113.008 26.148 114.744C27.3094 116.463 28.6433 118.08 30.1125 119.549C31.5817 121.018 33.1983 122.352 34.9175 123.513C36.653 124.686 38.5083 125.693 40.4319 126.506C44.434 128.199 48.6855 129.057 53.0684 129.057H140.708H146.244ZM146.244 129.515H140.708H53.0684C34.8859 129.515 20.146 114.775 20.146 96.5928C20.146 79.2871 33.4979 65.1 50.4626 63.7721C53.2688 43.748 70.4671 28.3394 91.2647 28.3394C106.694 28.3394 120.142 36.8194 127.202 49.3739C131.434 47.9064 135.978 47.1094 140.708 47.1094C163.464 47.1094 181.911 65.5567 181.911 88.3123C181.911 94.9319 180.35 101.186 177.576 106.729C173.302 119.951 160.889 129.515 146.244 129.515Z" fill="white" fill-opacity="0.5"/>
</g>
</g>
<defs>
<filter id="filter0_f_498_3301" x="16.146" y="24.3394" width="169.765" height="154.041" filterUnits="userSpaceOnUse" color-interpolation-filters="sRGB">
<feFlood flood-opacity="0" result="BackgroundImageFix"/>
<feBlend mode="normal" in="SourceGraphic" in2="BackgroundImageFix" result="shape"/>
<feGaussianBlur stdDeviation="2" result="effect1_foregroundBlur_498_3301"/>
</filter>
<filter id="filter1_d_498_3301" x="0.145996" y="0.339355" width="221.765" height="161.176" filterUnits="userSpaceOnUse" color-interpolation-filters="sRGB">
<feFlood flood-opacity="0" result="BackgroundImageFix"/>
<feColorMatrix in="SourceAlpha" type="matrix" values="0 0 0 0 0 0 0 0 0 0 0 0 0 0 0 0 0 0 127 0" result="hardAlpha"/>
<feOffset dx="10" dy="2"/>
<feGaussianBlur stdDeviation="15"/>
<feColorMatrix type="matrix" values="0 0 0 0 0.501961 0 0 0 0 0.501961 0 0 0 0 0.501961 0 0 0 0.302 0"/>
<feBlend mode="normal" in2="BackgroundImageFix" result="effect1_dropShadow_498_3301"/>
<feBlend mode="normal" in="SourceGraphic" in2="effect1_dropShadow_498_3301" result="shape"/>
</filter>
<linearGradient id="paint0_linear_498_3301" x1="96.0192" y1="135.009" x2="71.3484" y2="125.964" gradientUnits="userSpaceOnUse">
<stop stop-color="#FFD100"/>
<stop offset="1" stop-color="#FFF0AA"/>
</linearGradient>
<linearGradient id="paint1_linear_498_3301" x1="142.532" y1="140.613" x2="131.701" y2="136.643" gradientUnits="userSpaceOnUse">
<stop stop-color="#FFD100"/>
<stop offset="1" stop-color="#FFF0AA"/>
</linearGradient>
<linearGradient id="paint2_linear_498_3301" x1="47.7657" y1="152.295" x2="36.9345" y2="148.325" gradientUnits="userSpaceOnUse">
<stop stop-color="#FFD100"/>
<stop offset="1" stop-color="#FFF0AA"/>
</linearGradient>
<linearGradient id="paint3_linear_498_3301" x1="101.04" y1="28.3403" x2="148.031" y2="141.952" gradientUnits="userSpaceOnUse">
<stop stop-color="white" stop-opacity="0.604"/>
<stop offset="1" stop-color="white" stop-opacity="0.2"/>
</linearGradient>
</defs>
</svg>
