<svg width="132" height="92" viewBox="0 0 132 92" fill="none" xmlns="http://www.w3.org/2000/svg">
<g filter="url(#filter0_f_498_3228)">
<path d="M76.7264 16.2127C76.7264 16.2127 72.2564 22.2722 68.7628 22.0726C64.3834 21.8153 63.6354 16.5331 59.5755 16.2127C55.3279 16.2763 54.8944 21.7522 50.2906 22.0726C46.1658 21.9989 44.4183 16.3125 40.4862 16.2127C36.554 16.1129 32.3628 22.0726 32.3628 22.0726" stroke="white" stroke-width="16" stroke-linecap="round"/>
<path d="M79.4785 50.5483C79.4785 50.5483 72.7487 56.6079 67.4871 56.4083C60.8946 56.151 59.7634 50.8688 53.653 50.5483C47.2574 50.612 46.6027 56.0879 39.6719 56.4083C33.4613 56.3337 30.8298 50.6477 24.9075 50.5483C18.9853 50.449 12.6753 56.4083 12.6753 56.4083" stroke="white" stroke-width="16" stroke-linecap="round"/>
<path d="M117.935 73.4387C117.935 73.4387 111.205 79.4983 105.943 79.2987C99.3507 79.0414 98.2194 73.7592 92.109 73.4387C85.7134 73.5024 85.0588 78.9782 78.128 79.2987C71.9173 79.2241 69.2858 73.5381 63.3636 73.4387C57.4413 73.3394 51.1313 79.2987 51.1313 79.2987" stroke="white" stroke-width="16" stroke-linecap="round"/>
<path d="M118.004 4.48096C117.113 4.49103 108.08 18.5948 108.08 24.0766C108.08 26.7087 109.125 29.2329 110.986 31.0941C112.847 32.9552 115.372 34.0008 118.004 34.0008C120.636 34.0008 123.16 32.9552 125.021 31.0941C126.882 29.2329 127.928 26.7087 127.928 24.0766C127.928 18.5948 118.894 4.47135 118.004 4.48096Z" fill="#42A0F0"/>
<path d="M123.531 21.1176C122.54 21.4207 122.192 23.1593 122.755 25.0008C123.318 26.8423 124.579 28.0894 125.57 27.7862C126.562 27.4831 126.909 25.7445 126.346 23.903C125.783 22.0615 124.523 20.8144 123.531 21.1176Z" fill="white"/>
<path d="M97.9726 29.6604C97.3386 29.6677 90.9077 39.7084 90.9077 43.6103C90.9077 45.4841 91.6521 47.2811 92.977 48.606C94.3019 49.9309 96.0989 50.6753 97.9726 50.6753C99.8464 50.6753 101.643 49.9309 102.968 48.606C104.293 47.2811 105.038 45.4841 105.038 43.6103C105.038 39.7084 98.6063 29.6535 97.9726 29.6604Z" fill="#42A0F0"/>
<path d="M101.908 41.5036C101.202 41.7195 100.954 42.9572 101.355 44.2683C101.756 45.5793 102.653 46.4671 103.359 46.2512C104.065 46.0353 104.313 44.7976 103.912 43.4866C103.511 42.1756 102.614 41.2878 101.908 41.5036Z" fill="white"/>
</g>
<defs>
<filter id="filter0_f_498_3228" x="0.675293" y="0.480957" width="131.252" height="90.8225" filterUnits="userSpaceOnUse" color-interpolation-filters="sRGB">
<feFlood flood-opacity="0" result="BackgroundImageFix"/>
<feBlend mode="normal" in="SourceGraphic" in2="BackgroundImageFix" result="shape"/>
<feGaussianBlur stdDeviation="2" result="effect1_foregroundBlur_498_3228"/>
</filter>
</defs>
</svg>
