<svg width="142" height="96" viewBox="0 0 142 96" fill="none" xmlns="http://www.w3.org/2000/svg">
<g filter="url(#filter0_f_498_3240)">
<path d="M76.1361 20.3902C76.1361 20.3902 71.6661 26.4497 68.1725 26.2501C63.7931 25.9928 63.045 20.7106 58.9852 20.3902C54.7376 20.4538 54.3041 25.9297 49.7003 26.2501C45.5754 26.1764 43.828 20.49 39.8958 20.3902C35.9637 20.2904 31.7725 26.2501 31.7725 26.2501" stroke="white" stroke-width="16" stroke-linecap="round"/>
<path d="M78.8882 54.2681C78.8882 54.2681 72.1584 60.3277 66.8968 60.128C60.3043 59.8708 59.173 54.5885 53.0626 54.2681C46.667 54.3317 46.0124 59.8076 39.0816 60.128C32.8709 60.0534 30.2394 54.3674 24.3172 54.2681C18.395 54.1687 12.085 60.128 12.085 60.128" stroke="white" stroke-width="16" stroke-linecap="round"/>
<path d="M117.344 77.6165C117.344 77.6165 110.614 83.676 105.353 83.4764C98.7604 83.2191 97.6291 77.9369 91.5187 77.6165C85.1231 77.6801 84.4684 83.156 77.5376 83.4764C71.327 83.4018 68.6955 77.7158 62.7732 77.6165C56.851 77.5171 50.541 83.4764 50.541 83.4764" stroke="white" stroke-width="16" stroke-linecap="round"/>
<path d="M101.554 9.2981L118.5 51.2413" stroke="#42A0F0" stroke-width="10" stroke-linecap="round"/>
<path d="M105.781 19.5171L95.5443 14.9789" stroke="#42A0F0" stroke-width="10" stroke-linecap="round"/>
<path d="M105.781 19.5169L110.225 9.04741" stroke="#42A0F0" stroke-width="10" stroke-linecap="round"/>
<path d="M114.818 41.8863L110.607 52.2616" stroke="#42A0F0" stroke-width="10" stroke-linecap="round"/>
<path d="M114.818 41.8863L125.288 46.3303" stroke="#42A0F0" stroke-width="10" stroke-linecap="round"/>
<path d="M87.7993 27.2549L132.596 33.5507" stroke="#42A0F0" stroke-width="10" stroke-linecap="round"/>
<path d="M98.7622 28.7046L89.7138 35.3005" stroke="#42A0F0" stroke-width="10" stroke-linecap="round"/>
<path d="M98.7621 28.7046L91.9173 19.6212" stroke="#42A0F0" stroke-width="10" stroke-linecap="round"/>
<path d="M122.654 32.0621L129.533 40.8966" stroke="#42A0F0" stroke-width="10" stroke-linecap="round"/>
<path d="M122.653 32.0623L131.737 25.2175" stroke="#42A0F0" stroke-width="10" stroke-linecap="round"/>
<path d="M96.4731 48.1453L124.324 12.4979" stroke="#42A0F0" stroke-width="10" stroke-linecap="round"/>
<path d="M103.21 39.3757L104.398 50.5098" stroke="#42A0F0" stroke-width="10" stroke-linecap="round"/>
<path d="M103.21 39.3757L91.9212 40.7618" stroke="#42A0F0" stroke-width="10" stroke-linecap="round"/>
<path d="M118.063 20.3643L129.154 18.8235" stroke="#42A0F0" stroke-width="10" stroke-linecap="round"/>
<path d="M118.063 20.3643L116.677 9.07544" stroke="#42A0F0" stroke-width="10" stroke-linecap="round"/>
</g>
<defs>
<filter id="filter0_f_498_3240" x="0.0849609" y="0.0461426" width="141.512" height="95.4351" filterUnits="userSpaceOnUse" color-interpolation-filters="sRGB">
<feFlood flood-opacity="0" result="BackgroundImageFix"/>
<feBlend mode="normal" in="SourceGraphic" in2="BackgroundImageFix" result="shape"/>
<feGaussianBlur stdDeviation="2" result="effect1_foregroundBlur_498_3240"/>
</filter>
</defs>
</svg>
