<svg width="151" height="113" viewBox="0 0 151 113" fill="none" xmlns="http://www.w3.org/2000/svg">
<g filter="url(#filter0_f_498_3278)">
<path d="M75.2716 37.5984C75.2716 37.5984 70.8016 43.658 67.308 43.4584C62.9286 43.2011 62.1805 37.9189 58.1207 37.5984C53.8731 37.662 53.4396 43.1379 48.8358 43.4584C44.7109 43.3847 42.9635 37.6982 39.0313 37.5984C35.0992 37.4986 30.908 43.4584 30.908 43.4584" stroke="white" stroke-width="16" stroke-linecap="round"/>
<path d="M78.9392 71.4763C78.9392 71.4763 72.2094 77.5359 66.9478 77.3363C60.3553 77.079 59.2241 71.7968 53.1137 71.4763C46.7181 71.54 46.0634 77.0158 39.1326 77.3363C32.922 77.2617 30.2905 71.5757 24.3682 71.4763C18.446 71.377 12.136 77.3363 12.136 77.3363" stroke="white" stroke-width="16" stroke-linecap="round"/>
<path d="M116.48 94.8247C116.48 94.8247 109.75 100.884 104.488 100.685C97.8958 100.427 96.7646 95.1452 90.6542 94.8247C84.2586 94.8884 83.6039 100.364 76.6731 100.685C70.4625 100.61 67.831 94.9241 61.9087 94.8247C55.9865 94.7254 49.6765 100.685 49.6765 100.685" stroke="white" stroke-width="16" stroke-linecap="round"/>
<path d="M106.166 16.8151C111.588 16.8079 116.885 18.4344 121.369 21.4825C125.439 24.2419 128.691 28.0467 130.783 32.4972C132.875 36.9476 133.73 41.8794 133.257 46.7743C132.785 51.6691 131.002 56.3463 128.098 60.3144C125.193 64.2825 121.273 67.3949 116.75 69.3246C111.913 71.3734 106.586 71.973 101.414 71.0506C96.2432 70.1283 91.4514 67.7236 87.6213 64.1289C82.6094 59.4357 79.5493 53.0267 79.0506 46.1786C80.6327 46.5495 82.2524 46.7364 83.8773 46.7358C87.3952 46.7341 90.8563 45.8495 93.9435 44.1629C97.0307 42.4763 99.6451 40.0418 101.547 37.0826C103.449 34.1233 104.578 30.7339 104.83 27.2251C105.082 23.7163 104.449 20.2004 102.99 16.9996C104.044 16.8768 105.105 16.8152 106.166 16.8151Z" fill="#713FFD"/>
<g filter="url(#filter1_f_498_3278)">
<path d="M124.566 25.2636C118.462 19.7678 110.467 18.6976 106.707 22.8733C102.947 27.0489 104.847 34.8892 110.951 40.385C117.054 45.8807 125.05 46.9509 128.81 42.7752C132.57 38.5996 130.67 30.7593 124.566 25.2636Z" fill="#A586FC"/>
</g>
</g>
<defs>
<filter id="filter0_f_498_3278" x="0.135986" y="12.8152" width="137.248" height="99.8743" filterUnits="userSpaceOnUse" color-interpolation-filters="sRGB">
<feFlood flood-opacity="0" result="BackgroundImageFix"/>
<feBlend mode="normal" in="SourceGraphic" in2="BackgroundImageFix" result="shape"/>
<feGaussianBlur stdDeviation="2" result="effect1_foregroundBlur_498_3278"/>
</filter>
<filter id="filter1_f_498_3278" x="84.7764" y="0.326172" width="65.9641" height="64.9961" filterUnits="userSpaceOnUse" color-interpolation-filters="sRGB">
<feFlood flood-opacity="0" result="BackgroundImageFix"/>
<feBlend mode="normal" in="SourceGraphic" in2="BackgroundImageFix" result="shape"/>
<feGaussianBlur stdDeviation="10" result="effect1_foregroundBlur_498_3278"/>
</filter>
</defs>
</svg>
