<svg width="224" height="182" viewBox="0 0 224 182" fill="none" xmlns="http://www.w3.org/2000/svg">
<g filter="url(#filter0_f_498_4259)">
<path d="M83.1115 102.623C84.9029 102.643 103.078 131.021 103.078 142.048C103.078 147.343 100.974 152.422 97.2299 156.166C93.4855 159.911 88.4069 162.014 83.1115 162.014C77.8161 162.014 72.7375 159.911 68.9931 156.166C65.2486 152.422 63.145 147.343 63.145 142.048C63.145 131.021 81.3201 102.603 83.1115 102.623Z" fill="#42A0F0"/>
<path d="M67.888 149.512C69.883 150.121 72.4187 147.612 73.5515 143.907C74.6843 140.202 73.9853 136.704 71.9903 136.094C69.9952 135.484 67.4596 137.993 66.3268 141.698C65.194 145.403 65.893 148.902 67.888 149.512Z" fill="white"/>
<path d="M130.149 140.045C131.278 140.059 142.73 157.938 142.73 164.887C142.71 168.21 141.376 171.391 139.019 173.734C136.661 176.077 133.473 177.392 130.149 177.392C126.826 177.392 123.637 176.077 121.28 173.734C118.923 171.391 117.588 168.21 117.568 164.887C117.568 157.938 129.02 140.033 130.149 140.045Z" fill="#42A0F0"/>
<path d="M120.557 169.589C121.814 169.974 123.412 168.393 124.125 166.058C124.839 163.724 124.399 161.52 123.142 161.135C121.885 160.751 120.287 162.332 119.573 164.666C118.859 167.001 119.3 169.205 120.557 169.589Z" fill="white"/>
<path d="M51.3647 13.9247C54.5739 13.9239 57.7749 14.2482 60.9188 14.8925C66.9863 16.1422 72.7471 18.5787 77.8701 22.0618C84.9676 26.8724 90.6381 33.5059 94.2859 41.2654C97.9336 49.0248 99.4238 57.6236 98.5999 66.158C97.776 74.6924 94.6683 82.8472 89.6035 89.7655C84.5387 96.6838 77.7039 102.11 69.8172 105.474C66.9503 106.692 63.9693 107.622 60.9183 108.251C54.3025 109.592 47.4767 109.508 40.8958 108.005C34.3148 106.502 28.1297 103.614 22.7525 99.5327C17.3753 95.4518 12.9294 90.2719 9.71097 84.338C6.49255 78.4042 4.57552 71.8526 4.08755 65.1198C9.27523 66.3339 14.6641 66.412 19.8848 65.3487C24.5695 64.3893 29.0196 62.5168 32.9809 59.8381C38.8694 55.8628 43.4786 50.265 46.2501 43.7231C47.1865 41.5075 47.9013 39.2047 48.3839 36.8482C49.4126 31.7992 49.3746 26.5908 48.2722 21.5573C47.7177 19.0404 46.8975 16.5895 45.8257 14.2457C47.6643 14.0317 49.5137 13.9245 51.3647 13.9247Z" fill="#713FFD"/>
<g filter="url(#filter1_f_498_4259)">
<path d="M83.4441 28.6539C72.8025 19.0721 58.8617 17.2064 52.3065 24.4867C45.7513 31.767 49.0639 45.4364 59.7056 55.0182C70.3472 64.5999 84.2879 66.4656 90.8431 59.1853C97.3983 51.905 94.0857 38.2356 83.4441 28.6539Z" fill="#A586FC"/>
</g>
<g filter="url(#filter2_d_498_4259)">
<path d="M142.504 139.95H54.8647C46.363 139.944 38.1933 136.649 32.066 130.755C25.9388 124.861 22.3289 116.826 21.9922 108.331C21.6554 99.8358 24.618 91.5398 30.2595 85.1796C35.9011 78.8194 43.7843 74.8881 52.2588 74.2088C53.4674 65.6752 57.3209 57.7352 63.2773 51.5059C69.2337 45.2766 76.9931 41.0715 85.4641 39.4822C93.935 37.8929 102.691 38.9993 110.5 42.6458C118.31 46.2924 124.779 52.2955 128.999 59.8106C136.738 57.1316 145.1 56.8185 153.018 58.9113C160.936 61.0042 168.051 65.408 173.455 71.5612C178.86 77.7144 182.309 85.338 183.363 93.4597C184.417 101.581 183.028 109.833 179.374 117.162C177.229 123.784 173.041 129.556 167.412 133.651C161.783 137.745 155.001 139.95 148.04 139.95H142.504Z" fill="url(#paint0_linear_498_4259)"/>
<path d="M148.04 139.492C151.574 139.492 155.049 138.928 158.369 137.815C161.578 136.739 164.591 135.168 167.325 133.147C170.026 131.149 172.394 128.755 174.363 126.033C176.357 123.277 177.896 120.245 178.938 117.021L178.949 116.988L178.964 116.957C180.349 114.188 181.416 111.259 182.135 108.252C182.875 105.157 183.25 101.959 183.25 98.7471C183.25 95.9823 182.971 93.2194 182.422 90.5351C181.886 87.9193 181.088 85.3462 180.048 82.8875C179.027 80.4733 177.763 78.1447 176.291 75.9665C174.834 73.8089 173.16 71.7799 171.316 69.936C169.472 68.0921 167.443 66.418 165.285 64.9604C163.107 63.4888 160.778 62.2249 158.364 61.2038C155.905 60.1638 153.332 59.3651 150.716 58.8298C148.032 58.2805 145.269 58.002 142.504 58.002C137.927 58.002 133.433 58.7554 129.149 60.2413L128.787 60.3666L128.6 60.0331C125.113 53.8335 120.041 48.627 113.933 44.9765C110.844 43.1304 107.525 41.7037 104.069 40.7362C100.503 39.7381 96.7997 39.232 93.0609 39.232C88.0319 39.232 83.1229 40.1371 78.4701 41.9221C73.9753 43.6465 69.8521 46.1375 66.2148 49.3258C62.5984 52.4958 59.5974 56.2361 57.2949 60.4427C54.9358 64.7527 53.394 69.405 52.7122 74.2705L52.6611 74.6346L52.2945 74.6633C48.1933 74.9843 44.2475 76.0641 40.5667 77.8727C36.9901 79.63 33.7963 82.0068 31.0741 84.9372C25.4805 90.9585 22.3999 98.8038 22.3999 107.028C22.3999 111.411 23.2582 115.662 24.951 119.664C25.7646 121.588 26.7716 123.443 27.9441 125.179C29.1056 126.898 30.4394 128.514 31.9086 129.984C33.3778 131.453 34.9945 132.787 36.7136 133.948C38.4492 135.121 40.3045 136.128 42.228 136.941C46.2301 138.634 50.4816 139.492 54.8645 139.492H142.504H148.04ZM148.04 139.95H142.504H54.8645C36.6821 139.95 21.9421 125.21 21.9421 107.028C21.9421 89.7219 35.294 75.5348 52.2588 74.2069C55.0649 54.1829 72.2633 38.7742 93.0609 38.7742C108.49 38.7742 121.938 47.2543 128.999 59.8087C133.23 58.3413 137.774 57.5442 142.504 57.5442C165.26 57.5442 183.707 75.9916 183.707 98.7471C183.707 105.365 182.146 111.62 179.374 117.162C175.1 130.386 162.687 139.95 148.04 139.95Z" fill="white" fill-opacity="0.5"/>
</g>
</g>
<defs>
<filter id="filter0_f_498_4259" x="0.0876465" y="9.9248" width="187.62" height="171.467" filterUnits="userSpaceOnUse" color-interpolation-filters="sRGB">
<feFlood flood-opacity="0" result="BackgroundImageFix"/>
<feBlend mode="normal" in="SourceGraphic" in2="BackgroundImageFix" result="shape"/>
<feGaussianBlur stdDeviation="2" result="effect1_foregroundBlur_498_4259"/>
</filter>
<filter id="filter1_f_498_4259" x="28.9409" y="0.0456543" width="85.2678" height="83.5806" filterUnits="userSpaceOnUse" color-interpolation-filters="sRGB">
<feFlood flood-opacity="0" result="BackgroundImageFix"/>
<feBlend mode="normal" in="SourceGraphic" in2="BackgroundImageFix" result="shape"/>
<feGaussianBlur stdDeviation="10" result="effect1_foregroundBlur_498_4259"/>
</filter>
<filter id="filter2_d_498_4259" x="1.94214" y="10.7742" width="221.765" height="161.176" filterUnits="userSpaceOnUse" color-interpolation-filters="sRGB">
<feFlood flood-opacity="0" result="BackgroundImageFix"/>
<feColorMatrix in="SourceAlpha" type="matrix" values="0 0 0 0 0 0 0 0 0 0 0 0 0 0 0 0 0 0 127 0" result="hardAlpha"/>
<feOffset dx="10" dy="2"/>
<feGaussianBlur stdDeviation="15"/>
<feColorMatrix type="matrix" values="0 0 0 0 0.501961 0 0 0 0 0.501961 0 0 0 0 0.501961 0 0 0 0.302 0"/>
<feBlend mode="normal" in2="BackgroundImageFix" result="effect1_dropShadow_498_4259"/>
<feBlend mode="normal" in="SourceGraphic" in2="effect1_dropShadow_498_4259" result="shape"/>
</filter>
<linearGradient id="paint0_linear_498_4259" x1="102.836" y1="38.7754" x2="149.827" y2="152.387" gradientUnits="userSpaceOnUse">
<stop stop-color="white" stop-opacity="0.604"/>
<stop offset="1" stop-color="white" stop-opacity="0.2"/>
</linearGradient>
</defs>
</svg>
