<svg width="223" height="182" viewBox="0 0 223 182" fill="none" xmlns="http://www.w3.org/2000/svg">
<g filter="url(#filter0_f_498_4035)">
<path d="M70.4917 129.805C70.4917 129.805 133.252 130.407 146.841 126.461C160.429 122.514 160.412 102.033 146.841 96.9841C133.27 91.9354 128.632 109.982 128.632 109.982" stroke="#D0D0D0" stroke-width="20" stroke-linecap="round"/>
<path d="M49.9009 150.873C49.9009 150.873 95.9602 146.711 116.265 150.873C136.571 155.034 130.105 166.973 120.482 167.519C110.859 168.064 101.979 161.741 101.979 161.741" stroke="#D0D0D0" stroke-width="20" stroke-linecap="round"/>
<path d="M147.935 150.842H166.247" stroke="#D0D0D0" stroke-width="20" stroke-linecap="round"/>
<path d="M56.5664 14.5155C59.7756 14.5147 62.9766 14.839 66.1204 15.4834C72.188 16.733 77.9488 19.1695 83.0718 22.6527C90.1692 27.4632 95.8398 34.0967 99.4875 41.8562C103.135 49.6156 104.625 58.2144 103.802 66.7488C102.978 75.2832 99.8699 83.438 94.8052 90.3563C89.7404 97.2746 82.9055 102.701 75.0189 106.065C72.1519 107.283 69.171 108.213 66.12 108.841C59.5041 110.183 52.6784 110.099 46.0974 108.596C39.5165 107.093 33.3314 104.205 27.9542 100.124C22.5769 96.0426 18.131 90.8627 14.9126 84.9288C11.6942 78.995 9.77718 72.4434 9.28922 65.7106C14.4769 66.9247 19.8657 67.0028 25.0864 65.9395C29.7712 64.9801 34.2212 63.1076 38.1825 60.4289C44.071 56.4536 48.6803 50.8559 51.4517 44.314C52.3882 42.0984 53.1029 39.7955 53.5856 37.439C54.6143 32.39 54.5763 27.1816 53.4739 22.1482C52.9193 19.6312 52.0992 17.1803 51.0273 14.8365C52.8659 14.6225 54.7154 14.5154 56.5664 14.5155Z" fill="#713FFD"/>
<g filter="url(#filter1_f_498_4035)">
<path d="M88.6455 29.2447C78.0039 19.6629 64.0631 17.7973 57.5079 25.0776C50.9527 32.3578 54.2654 46.0272 64.907 55.609C75.5486 65.1907 89.4893 67.0564 96.0445 59.7761C102.6 52.4958 99.2871 38.8264 88.6455 29.2447Z" fill="#A586FC"/>
</g>
<g filter="url(#filter2_d_498_4035)">
<path d="M140.839 139.626H53.1992C44.6974 139.619 36.5278 136.324 30.4005 130.43C24.2732 124.537 20.6634 116.501 20.3266 108.006C19.9899 99.5111 22.9524 91.2151 28.594 84.8549C34.2356 78.4947 42.1188 74.5634 50.5933 73.8841C51.8018 65.3505 55.6554 57.4105 61.6117 51.1812C67.5681 44.9519 75.3276 40.7468 83.7985 39.1575C92.2695 37.5682 101.026 38.6746 108.835 42.3211C116.644 45.9677 123.114 51.9708 127.333 59.4859C135.073 56.8068 143.435 56.4938 151.353 58.5868C159.271 60.6797 166.386 65.0838 171.79 71.2373C177.195 77.3907 180.644 85.0146 181.698 93.1365C182.752 101.258 181.362 109.51 177.707 116.839C175.562 123.461 171.374 129.232 165.745 133.326C160.116 137.42 153.335 139.625 146.375 139.626H140.839Z" fill="url(#paint0_linear_498_4035)"/>
<path d="M146.374 139.168C149.908 139.168 153.383 138.603 156.702 137.49C159.911 136.414 162.924 134.844 165.657 132.822C168.359 130.825 170.727 128.431 172.696 125.709C174.69 122.953 176.229 119.921 177.271 116.698L177.282 116.665L177.297 116.634C178.683 113.865 179.75 110.936 180.469 107.928C181.209 104.833 181.584 101.635 181.584 98.4224C181.584 95.6576 181.305 92.8947 180.756 90.2104C180.221 87.5946 179.422 85.0215 178.382 82.5628C177.361 80.1486 176.097 77.82 174.625 75.6418C173.168 73.4842 171.494 71.4552 169.65 69.6113C167.806 67.7674 165.777 66.0933 163.619 64.6357C161.441 63.1641 159.112 61.9002 156.698 60.8791C154.239 59.8391 151.666 59.0404 149.051 58.5051C146.366 57.9558 143.603 57.6773 140.839 57.6773C136.261 57.6773 131.767 58.4307 127.483 59.9165L127.121 60.0419L126.934 59.7084C123.447 53.5088 118.376 48.3023 112.267 44.6518C109.178 42.8056 105.859 41.379 102.403 40.4115C98.8376 39.4134 95.1339 38.9073 91.3951 38.9073C86.3661 38.9073 81.4571 39.8124 76.8044 41.5974C72.3096 43.3218 68.1863 45.8128 64.549 49.0011C60.9327 52.1711 57.9316 55.9113 55.6291 60.118C53.2701 64.428 51.7282 69.0803 51.0464 73.9457L50.9954 74.3099L50.6287 74.3386C46.5276 74.6596 42.5818 75.7394 38.9009 77.5479C35.3243 79.3052 32.1305 81.6821 29.4083 84.6125C23.8147 90.6338 20.7342 98.4791 20.7342 106.703C20.7342 111.086 21.5925 115.337 23.2852 119.339C24.0988 121.263 25.1059 123.118 26.2784 124.854C27.4398 126.573 28.7737 128.19 30.2429 129.659C31.7121 131.128 33.3287 132.462 35.0478 133.623C36.7834 134.796 38.6387 135.803 40.5622 136.616C44.5643 138.309 48.8159 139.168 53.1987 139.168H140.839H146.374ZM146.374 139.625H140.839H53.1987C35.0163 139.625 20.2764 124.885 20.2764 106.703C20.2764 89.3972 33.6282 75.2101 50.593 73.8822C53.3991 53.8582 70.5975 38.4495 91.3951 38.4495C106.824 38.4495 120.272 46.9295 127.333 59.484C131.564 58.0165 136.108 57.2195 140.839 57.2195C163.594 57.2195 182.042 75.6668 182.042 98.4224C182.042 105.042 180.481 111.297 177.707 116.839C173.432 130.061 161.02 139.625 146.374 139.625Z" fill="white" fill-opacity="0.5"/>
</g>
</g>
<defs>
<filter id="filter0_f_498_4035" x="5.28906" y="10.5156" width="180.752" height="171.036" filterUnits="userSpaceOnUse" color-interpolation-filters="sRGB">
<feFlood flood-opacity="0" result="BackgroundImageFix"/>
<feBlend mode="normal" in="SourceGraphic" in2="BackgroundImageFix" result="shape"/>
<feGaussianBlur stdDeviation="2" result="effect1_foregroundBlur_498_4035"/>
</filter>
<filter id="filter1_f_498_4035" x="34.1426" y="0.636475" width="85.2676" height="83.5806" filterUnits="userSpaceOnUse" color-interpolation-filters="sRGB">
<feFlood flood-opacity="0" result="BackgroundImageFix"/>
<feBlend mode="normal" in="SourceGraphic" in2="BackgroundImageFix" result="shape"/>
<feGaussianBlur stdDeviation="10" result="effect1_foregroundBlur_498_4035"/>
</filter>
<filter id="filter2_d_498_4035" x="0.276367" y="10.4495" width="221.765" height="161.176" filterUnits="userSpaceOnUse" color-interpolation-filters="sRGB">
<feFlood flood-opacity="0" result="BackgroundImageFix"/>
<feColorMatrix in="SourceAlpha" type="matrix" values="0 0 0 0 0 0 0 0 0 0 0 0 0 0 0 0 0 0 127 0" result="hardAlpha"/>
<feOffset dx="10" dy="2"/>
<feGaussianBlur stdDeviation="15"/>
<feColorMatrix type="matrix" values="0 0 0 0 0.501961 0 0 0 0 0.501961 0 0 0 0 0.501961 0 0 0 0.302 0"/>
<feBlend mode="normal" in2="BackgroundImageFix" result="effect1_dropShadow_498_4035"/>
<feBlend mode="normal" in="SourceGraphic" in2="effect1_dropShadow_498_4035" result="shape"/>
</filter>
<linearGradient id="paint0_linear_498_4035" x1="101.171" y1="38.4507" x2="148.162" y2="152.063" gradientUnits="userSpaceOnUse">
<stop stop-color="white" stop-opacity="0.604"/>
<stop offset="1" stop-color="white" stop-opacity="0.2"/>
</linearGradient>
</defs>
</svg>
