<svg width="228" height="190" viewBox="0 0 228 190" fill="none" xmlns="http://www.w3.org/2000/svg">
<g filter="url(#filter0_f_498_4048)">
<path d="M98.5463 106.916H129.71L111.795 133.224L132.742 133.621L88.7753 185.659L99.4285 145.984H79.9258L98.5463 106.916Z" fill="url(#paint0_linear_498_4048)"/>
<path d="M146.701 134.605H160.384L152.518 146.156L161.715 146.33L142.411 169.178L147.088 151.759H138.527L146.701 134.605Z" fill="url(#paint1_linear_498_4048)"/>
<path d="M51.934 146.287H65.6166L57.7509 157.838L66.9479 158.012L47.6439 180.86L52.3213 163.44H43.7603L51.934 146.287Z" fill="url(#paint2_linear_498_4048)"/>
<path d="M51.3618 14.7685C54.571 14.7677 57.772 15.0919 60.9158 15.7363C66.9834 16.986 72.7442 19.4224 77.8672 22.9056C84.9646 27.7161 90.6352 34.3497 94.2829 42.1091C97.9307 49.8685 99.4209 58.4673 98.597 67.0017C97.773 75.5361 94.6654 83.691 89.6006 90.6093C84.5358 97.5276 77.7009 102.954 69.8143 106.318C66.9473 107.536 63.9664 108.466 60.9154 109.094C54.2996 110.436 47.4738 110.352 40.8929 108.849C34.3119 107.346 28.1268 104.457 22.7496 100.376C17.3723 96.2955 12.9265 91.1156 9.70804 85.1818C6.48962 79.2479 4.57259 72.6964 4.08463 65.9636C9.2723 67.1777 14.6611 67.2557 19.8818 66.1925C24.5666 65.233 29.0166 63.3605 32.978 60.6818C38.8665 56.7065 43.4757 51.1088 46.2471 44.5669C47.1836 42.3513 47.8984 40.0484 48.381 37.692C49.4097 32.6429 49.3717 27.4346 48.2693 22.4011C47.7147 19.8842 46.8946 17.4332 45.8227 15.0894C47.6613 14.8754 49.5108 14.7683 51.3618 14.7685Z" fill="#713FFD"/>
<g filter="url(#filter1_f_498_4048)">
<path d="M83.4409 29.4976C72.7993 19.9159 58.8585 18.0502 52.3033 25.3305C45.7481 32.6108 49.0608 46.2802 59.7024 55.8619C70.344 65.4436 84.2847 67.3093 90.84 60.029C97.3952 52.7487 94.0825 39.0794 83.4409 29.4976Z" fill="#A586FC"/>
</g>
<g filter="url(#filter2_d_498_4048)">
<path d="M146.164 140.794H58.5244C50.0226 140.788 41.853 137.493 35.7257 131.599C29.5984 125.705 25.9886 117.67 25.6518 109.175C25.3151 100.68 28.2776 92.3836 33.9192 86.0234C39.5608 79.6632 47.444 75.7319 55.9185 75.0525C57.127 66.5189 60.9806 58.579 66.9369 52.3497C72.8933 46.1204 80.6528 41.9153 89.1237 40.3259C97.5947 38.7366 106.351 39.843 114.16 43.4896C121.969 47.1361 128.439 53.1392 132.659 60.6544C140.398 57.9753 148.76 57.6623 156.678 59.7552C164.596 61.8482 171.711 66.2523 177.116 72.4057C182.52 78.5592 185.969 86.1831 187.023 94.305C188.077 102.427 186.688 110.679 183.032 118.007C180.887 124.629 176.7 130.401 171.071 134.495C165.441 138.588 158.66 140.794 151.7 140.794H146.164Z" fill="url(#paint3_linear_498_4048)"/>
<path d="M151.7 140.336C155.234 140.336 158.709 139.772 162.028 138.659C165.237 137.583 168.25 136.012 170.983 133.991C173.685 131.993 176.053 129.6 178.022 126.878C180.016 124.122 181.555 121.09 182.597 117.867L182.607 117.834L182.623 117.803C184.009 115.034 185.076 112.105 185.795 109.097C186.534 106.002 186.909 102.804 186.909 99.5911C186.909 96.8263 186.631 94.0634 186.082 91.3791C185.546 88.7633 184.748 86.1902 183.708 83.7315C182.686 81.3173 181.423 78.9887 179.951 76.8105C178.493 74.6529 176.819 72.6239 174.975 70.78C173.131 68.9361 171.102 67.262 168.945 65.8044C166.767 64.3328 164.438 63.0689 162.024 62.0478C159.565 61.0078 156.992 60.2091 154.376 59.6738C151.692 59.1245 148.929 58.846 146.164 58.846C141.586 58.846 137.093 59.5994 132.809 61.0852L132.447 61.2106L132.259 60.8771C128.773 54.6775 123.701 49.471 117.593 45.8205C114.504 43.9743 111.185 42.5477 107.729 41.5802C104.163 40.5821 100.46 40.076 96.7208 40.076C91.6918 40.076 86.7828 40.9811 82.1301 42.7661C77.6353 44.4905 73.512 46.9815 69.8747 50.1698C66.2584 53.3398 63.2573 57.08 60.9548 61.2867C58.5958 65.5967 57.0539 70.249 56.3721 75.1144L56.321 75.4786L55.9544 75.5073C51.8533 75.8283 47.9074 76.9081 44.2266 78.7166C40.65 80.4739 37.4562 82.8508 34.734 85.7812C29.1404 91.8025 26.0599 99.6478 26.0599 107.872C26.0599 112.255 26.9182 116.506 28.6109 120.508C29.4245 122.432 30.4316 124.287 31.604 126.023C32.7655 127.742 34.0993 129.358 35.5685 130.828C37.0377 132.297 38.6544 133.631 40.3735 134.792C42.1091 135.965 43.9644 136.972 45.8879 137.785C49.89 139.478 54.1416 140.336 58.5244 140.336H146.164H151.7ZM151.7 140.794H146.164H58.5244C40.342 140.794 25.6021 126.054 25.6021 107.872C25.6021 90.5659 38.9539 76.3788 55.9187 75.0509C58.7248 55.0269 75.9232 39.6182 96.7208 39.6182C112.15 39.6182 125.598 48.0982 132.659 60.6527C136.89 59.1852 141.434 58.3882 146.164 58.3882C168.92 58.3882 187.367 76.8355 187.367 99.5911C187.367 106.211 185.806 112.465 183.032 118.008C178.758 131.23 166.346 140.794 151.7 140.794Z" fill="white" fill-opacity="0.5"/>
</g>
</g>
<defs>
<filter id="filter0_f_498_4048" x="0.0844727" y="10.7686" width="191.283" height="178.89" filterUnits="userSpaceOnUse" color-interpolation-filters="sRGB">
<feFlood flood-opacity="0" result="BackgroundImageFix"/>
<feBlend mode="normal" in="SourceGraphic" in2="BackgroundImageFix" result="shape"/>
<feGaussianBlur stdDeviation="2" result="effect1_foregroundBlur_498_4048"/>
</filter>
<filter id="filter1_f_498_4048" x="28.938" y="0.889404" width="85.2676" height="83.5806" filterUnits="userSpaceOnUse" color-interpolation-filters="sRGB">
<feFlood flood-opacity="0" result="BackgroundImageFix"/>
<feBlend mode="normal" in="SourceGraphic" in2="BackgroundImageFix" result="shape"/>
<feGaussianBlur stdDeviation="10" result="effect1_foregroundBlur_498_4048"/>
</filter>
<filter id="filter2_d_498_4048" x="5.60205" y="11.6182" width="221.765" height="161.176" filterUnits="userSpaceOnUse" color-interpolation-filters="sRGB">
<feFlood flood-opacity="0" result="BackgroundImageFix"/>
<feColorMatrix in="SourceAlpha" type="matrix" values="0 0 0 0 0 0 0 0 0 0 0 0 0 0 0 0 0 0 127 0" result="hardAlpha"/>
<feOffset dx="10" dy="2"/>
<feGaussianBlur stdDeviation="15"/>
<feColorMatrix type="matrix" values="0 0 0 0 0.501961 0 0 0 0 0.501961 0 0 0 0 0.501961 0 0 0 0.302 0"/>
<feBlend mode="normal" in2="BackgroundImageFix" result="effect1_dropShadow_498_4048"/>
<feBlend mode="normal" in="SourceGraphic" in2="effect1_dropShadow_498_4048" result="shape"/>
</filter>
<linearGradient id="paint0_linear_498_4048" x1="101.475" y1="146.287" x2="76.804" y2="137.243" gradientUnits="userSpaceOnUse">
<stop stop-color="#FFD100"/>
<stop offset="1" stop-color="#FFF0AA"/>
</linearGradient>
<linearGradient id="paint1_linear_498_4048" x1="147.988" y1="151.892" x2="137.157" y2="147.921" gradientUnits="userSpaceOnUse">
<stop stop-color="#FFD100"/>
<stop offset="1" stop-color="#FFF0AA"/>
</linearGradient>
<linearGradient id="paint2_linear_498_4048" x1="53.2208" y1="163.573" x2="42.3896" y2="159.603" gradientUnits="userSpaceOnUse">
<stop stop-color="#FFD100"/>
<stop offset="1" stop-color="#FFF0AA"/>
</linearGradient>
<linearGradient id="paint3_linear_498_4048" x1="106.496" y1="39.6191" x2="153.487" y2="153.231" gradientUnits="userSpaceOnUse">
<stop stop-color="white" stop-opacity="0.604"/>
<stop offset="1" stop-color="white" stop-opacity="0.2"/>
</linearGradient>
</defs>
</svg>
