<svg width="222" height="179" viewBox="0 0 222 179" fill="none" xmlns="http://www.w3.org/2000/svg">
<g filter="url(#filter0_f_498_4654)">
<path d="M113.33 126.142C113.33 126.142 145.435 127.131 158.207 123.422C171.796 119.475 171.778 98.9938 158.207 93.945C144.637 88.8963 139.998 106.943 139.998 106.943" stroke="#D0D0D0" stroke-width="20" stroke-linecap="round"/>
<path d="M93.5068 146.131C93.5068 146.131 107.327 143.672 127.632 147.833C147.938 151.995 141.472 163.933 131.849 164.479C122.226 165.025 113.346 158.701 113.346 158.701" stroke="#D0D0D0" stroke-width="20" stroke-linecap="round"/>
<path d="M159.302 147.803H177.614" stroke="#D0D0D0" stroke-width="20" stroke-linecap="round"/>
<path d="M67.419 115.881C66.4136 115.894 56.2136 131.818 56.2136 138.006C56.2136 140.978 57.3942 143.828 59.4956 145.93C61.597 148.031 64.4471 149.212 67.419 149.212C70.3908 149.212 73.241 148.031 75.3424 145.93C77.4438 143.828 78.6244 140.978 78.6244 138.006C78.6244 131.818 68.4243 115.87 67.419 115.881Z" fill="#42A0F0"/>
<path d="M73.66 134.665C72.5403 135.007 72.1479 136.97 72.7837 139.05C73.4194 141.129 74.8425 142.537 75.9623 142.195C77.082 141.853 77.4744 139.889 76.8386 137.81C76.2029 135.731 74.7798 134.322 73.66 134.665Z" fill="white"/>
<path d="M37.2292 138.354C36.3997 138.363 27.9814 151.506 27.9814 156.614C27.9814 159.067 28.9558 161.419 30.6901 163.153C32.4243 164.888 34.7766 165.862 37.2292 165.862C39.6819 165.862 42.0341 164.888 43.7684 163.153C45.5027 161.419 46.477 159.067 46.477 156.614C46.477 151.506 38.0592 138.344 37.2292 138.354Z" fill="#42A0F0"/>
<path d="M42.3807 153.856C41.4565 154.139 41.1327 155.759 41.6573 157.475C42.182 159.191 43.3564 160.353 44.2806 160.071C45.2047 159.788 45.5286 158.168 45.0039 156.452C44.4793 154.736 43.3048 153.574 42.3807 153.856Z" fill="white"/>
<path d="M53.0797 14.9372C56.0798 14.9365 59.0722 15.2398 62.0112 15.8423C67.6835 17.0106 73.069 19.2883 77.8583 22.5446C84.4934 27.0418 89.7945 33.2433 93.2046 40.4974C96.6146 47.7514 98.0077 55.7901 97.2373 63.7686C96.4669 71.747 93.5615 79.3707 88.8265 85.8382C84.0914 92.3058 77.7017 97.3784 70.3287 100.523C67.6484 101.662 64.8616 102.531 62.0093 103.118C55.8245 104.373 49.4432 104.295 43.2908 102.89C37.1384 101.485 31.356 98.7849 26.329 94.9698C21.3019 91.1546 17.1457 86.3119 14.137 80.7644C11.1284 75.2169 9.3366 69.0919 8.88089 62.7976C11.4598 63.4021 14.1 63.7069 16.7488 63.7059C23.5713 63.7168 30.2399 61.6797 35.8917 57.8583C41.3968 54.143 45.7064 48.9111 48.2984 42.7963C50.0827 38.5801 50.9978 34.0472 50.9889 29.469C50.9893 26.9827 50.7205 24.5038 50.1873 22.0753C49.6683 19.7223 48.9009 17.4309 47.8982 15.2398C49.6181 15.0388 51.3482 14.9377 53.0797 14.9372Z" fill="#713FFD"/>
<g filter="url(#filter1_f_498_4654)">
<path d="M83.0679 28.707C73.1196 19.7495 60.0871 18.0055 53.9589 24.8115C47.8307 31.6176 50.9275 44.3964 60.8758 53.3539C70.824 62.3113 83.8565 64.0554 89.9847 57.2493C96.1129 50.4433 93.0161 37.6644 83.0679 28.707Z" fill="#A586FC"/>
</g>
<g filter="url(#filter2_d_498_4654)">
<path d="M140.761 137.044H53.1211C44.6193 137.038 36.4497 133.743 30.3224 127.849C24.1951 121.955 20.5852 113.92 20.2485 105.425C19.9118 96.9296 22.8743 88.6336 28.5159 82.2734C34.1574 75.9132 42.0406 71.9819 50.5152 71.3025C51.7237 62.7689 55.5772 54.829 61.5336 48.5997C67.49 42.3704 75.2495 38.1653 83.7204 36.5759C92.1913 34.9866 100.947 36.093 108.757 39.7396C116.566 43.3861 123.036 49.3892 127.255 56.9044C134.995 54.2253 143.357 53.9123 151.275 56.0052C159.193 58.0982 166.308 62.5023 171.712 68.6557C177.117 74.8092 180.566 82.4331 181.62 90.555C182.674 98.6768 181.284 106.929 177.629 114.257C175.484 120.879 171.296 126.651 165.667 130.745C160.038 134.838 153.257 137.044 146.296 137.044H140.761Z" fill="url(#paint0_linear_498_4654)"/>
<path d="M146.296 136.586C149.83 136.586 153.305 136.022 156.624 134.909C159.833 133.833 162.846 132.262 165.579 130.241C168.281 128.243 170.649 125.85 172.618 123.128C174.612 120.372 176.151 117.34 177.193 114.117L177.204 114.084L177.219 114.053C178.605 111.284 179.672 108.355 180.391 105.347C181.131 102.252 181.506 99.0537 181.506 95.8411C181.506 93.0763 181.227 90.3134 180.678 87.6291C180.143 85.0133 179.344 82.4402 178.304 79.9815C177.283 77.5673 176.019 75.2387 174.547 73.0605C173.09 70.9029 171.415 68.8739 169.572 67.03C167.728 65.1861 165.699 63.512 163.541 62.0544C161.363 60.5828 159.034 59.3189 156.62 58.2978C154.161 57.2578 151.588 56.4591 148.972 55.9238C146.288 55.3745 143.525 55.096 140.76 55.096C136.183 55.096 131.689 55.8494 127.405 57.3352L127.043 57.4606L126.856 57.1271C123.369 50.9275 118.298 45.721 112.189 42.0705C109.1 40.2243 105.781 38.7977 102.325 37.8302C98.7595 36.8321 95.0558 36.326 91.317 36.326C86.288 36.326 81.379 37.2311 76.7262 39.0161C72.2314 40.7405 68.1082 43.2315 64.4709 46.4198C60.8545 49.5898 57.8535 53.33 55.551 57.5367C53.1919 61.8467 51.6501 66.499 50.9683 71.3644L50.9172 71.7286L50.5506 71.7573C46.4494 72.0783 42.5036 73.1581 38.8228 74.9666C35.2462 76.7239 32.0524 79.1008 29.3302 82.0312C23.7366 88.0525 20.6561 95.8978 20.6561 104.122C20.6561 108.505 21.5143 112.756 23.2071 116.758C24.0207 118.682 25.0277 120.537 26.2002 122.273C27.3617 123.992 28.6955 125.608 30.1647 127.078C31.6339 128.547 33.2506 129.881 34.9697 131.042C36.7053 132.215 38.5606 133.222 40.4841 134.035C44.4862 135.728 48.7377 136.586 53.1206 136.586H140.76H146.296ZM146.296 137.044H140.76H53.1206C34.9382 137.044 20.1982 122.304 20.1982 104.122C20.1982 86.8159 33.5501 72.6288 50.5149 71.3009C53.321 51.2769 70.5194 35.8682 91.317 35.8682C106.746 35.8682 120.194 44.3482 127.255 56.9027C131.486 55.4352 136.03 54.6382 140.76 54.6382C163.516 54.6382 181.963 73.0855 181.963 95.8411C181.963 102.461 180.403 108.715 177.629 114.258C173.354 127.48 160.942 137.044 146.296 137.044Z" fill="white" fill-opacity="0.5"/>
</g>
</g>
<defs>
<filter id="filter0_f_498_4654" x="4.88086" y="10.937" width="186.733" height="167.575" filterUnits="userSpaceOnUse" color-interpolation-filters="sRGB">
<feFlood flood-opacity="0" result="BackgroundImageFix"/>
<feBlend mode="normal" in="SourceGraphic" in2="BackgroundImageFix" result="shape"/>
<feGaussianBlur stdDeviation="2" result="effect1_foregroundBlur_498_4654"/>
</filter>
<filter id="filter1_f_498_4654" x="30.8125" y="0.659668" width="82.3186" height="80.7412" filterUnits="userSpaceOnUse" color-interpolation-filters="sRGB">
<feFlood flood-opacity="0" result="BackgroundImageFix"/>
<feBlend mode="normal" in="SourceGraphic" in2="BackgroundImageFix" result="shape"/>
<feGaussianBlur stdDeviation="10" result="effect1_foregroundBlur_498_4654"/>
</filter>
<filter id="filter2_d_498_4654" x="0.198242" y="7.86816" width="221.765" height="161.176" filterUnits="userSpaceOnUse" color-interpolation-filters="sRGB">
<feFlood flood-opacity="0" result="BackgroundImageFix"/>
<feColorMatrix in="SourceAlpha" type="matrix" values="0 0 0 0 0 0 0 0 0 0 0 0 0 0 0 0 0 0 127 0" result="hardAlpha"/>
<feOffset dx="10" dy="2"/>
<feGaussianBlur stdDeviation="15"/>
<feColorMatrix type="matrix" values="0 0 0 0 0.501961 0 0 0 0 0.501961 0 0 0 0 0.501961 0 0 0 0.302 0"/>
<feBlend mode="normal" in2="BackgroundImageFix" result="effect1_dropShadow_498_4654"/>
<feBlend mode="normal" in="SourceGraphic" in2="effect1_dropShadow_498_4654" result="shape"/>
</filter>
<linearGradient id="paint0_linear_498_4654" x1="101.093" y1="35.8691" x2="148.084" y2="149.481" gradientUnits="userSpaceOnUse">
<stop stop-color="white" stop-opacity="0.604"/>
<stop offset="1" stop-color="white" stop-opacity="0.2"/>
</linearGradient>
</defs>
</svg>
