<svg width="224" height="178" viewBox="0 0 224 178" fill="none" xmlns="http://www.w3.org/2000/svg">
<g filter="url(#filter0_f_498_4064)">
<path d="M71.1992 112.341L101.727 161.186" stroke="#42A0F0" stroke-width="9" stroke-linecap="round"/>
<path d="M78.5646 124.342L81.5496 110.4" stroke="#42A0F0" stroke-width="9" stroke-linecap="round"/>
<path d="M78.5643 124.342L64.4531 121.085" stroke="#42A0F0" stroke-width="9" stroke-linecap="round"/>
<path d="M94.8457 150.393L108.685 153.819" stroke="#42A0F0" stroke-width="9" stroke-linecap="round"/>
<path d="M94.8459 150.392L91.5895 164.504" stroke="#42A0F0" stroke-width="9" stroke-linecap="round"/>
<path d="M99.9922 111.608L72.9552 162.469" stroke="#42A0F0" stroke-width="9" stroke-linecap="round"/>
<path d="M93.2817 123.986L106.848 119.601" stroke="#42A0F0" stroke-width="9" stroke-linecap="round"/>
<path d="M93.2813 123.987L89.0459 110.138" stroke="#42A0F0" stroke-width="9" stroke-linecap="round"/>
<path d="M78.8618 151.112L82.8147 164.811" stroke="#42A0F0" stroke-width="9" stroke-linecap="round"/>
<path d="M78.8619 151.112L65.0131 155.348" stroke="#42A0F0" stroke-width="9" stroke-linecap="round"/>
<path d="M115.022 136.176L57.4573 138.192" stroke="#42A0F0" stroke-width="9" stroke-linecap="round"/>
<path d="M100.947 136.555L111.528 146.111" stroke="#42A0F0" stroke-width="9" stroke-linecap="round"/>
<path d="M100.947 136.554L110.823 125.962" stroke="#42A0F0" stroke-width="9" stroke-linecap="round"/>
<path d="M70.2456 137.629L60.3587 147.902" stroke="#42A0F0" stroke-width="9" stroke-linecap="round"/>
<path d="M70.2456 137.63L59.6532 127.754" stroke="#42A0F0" stroke-width="9" stroke-linecap="round"/>
<path d="M147.349 143.204L135.733 169.289" stroke="#42A0F0" stroke-width="6.00313" stroke-linecap="round"/>
<path d="M144.458 149.557L151.015 146.92" stroke="#42A0F0" stroke-width="6.00313" stroke-linecap="round"/>
<path d="M144.458 149.557L141.885 142.854" stroke="#42A0F0" stroke-width="6.00313" stroke-linecap="round"/>
<path d="M138.263 163.469L140.69 170.107" stroke="#42A0F0" stroke-width="6.00313" stroke-linecap="round"/>
<path d="M138.263 163.469L131.56 166.041" stroke="#42A0F0" stroke-width="6.00313" stroke-linecap="round"/>
<path d="M155.63 154.835L127.232 157.818" stroke="#42A0F0" stroke-width="6.00313" stroke-linecap="round"/>
<path d="M148.682 155.507L154.245 159.868" stroke="#42A0F0" stroke-width="6.00313" stroke-linecap="round"/>
<path d="M148.682 155.507L153.201 149.928" stroke="#42A0F0" stroke-width="6.00313" stroke-linecap="round"/>
<path d="M133.537 157.099L129.002 162.52" stroke="#42A0F0" stroke-width="6.00313" stroke-linecap="round"/>
<path d="M133.537 157.099L127.958 152.58" stroke="#42A0F0" stroke-width="6.00313" stroke-linecap="round"/>
<path d="M149.698 167.823L132.915 144.72" stroke="#42A0F0" stroke-width="6.00313" stroke-linecap="round"/>
<path d="M145.642 162.142L144.647 169.139" stroke="#42A0F0" stroke-width="6.00313" stroke-linecap="round"/>
<path d="M145.642 162.142L152.733 163.265" stroke="#42A0F0" stroke-width="6.00313" stroke-linecap="round"/>
<path d="M136.691 149.82L129.729 148.603" stroke="#42A0F0" stroke-width="6.00313" stroke-linecap="round"/>
<path d="M136.691 149.82L137.815 142.729" stroke="#42A0F0" stroke-width="6.00313" stroke-linecap="round"/>
<path d="M51.6152 13.8886C54.8244 13.8878 58.0254 14.212 61.1693 14.8564C67.2368 16.1061 72.9976 18.5425 78.1206 22.0257C85.218 26.8362 90.8886 33.4698 94.5364 41.2292C98.1841 48.9887 99.6743 57.5874 98.8504 66.1218C98.0264 74.6562 94.9188 82.8111 89.854 89.7294C84.7892 96.6477 77.9543 102.074 70.0677 105.438C67.2008 106.656 64.2198 107.586 61.1688 108.214C54.553 109.556 47.7272 109.472 41.1463 107.969C34.5653 106.466 28.3802 103.578 23.003 99.4966C17.6258 95.4157 13.1799 90.2357 9.96146 84.3019C6.74304 78.368 4.826 71.8165 4.33804 65.0837C9.52572 66.2978 14.9146 66.3759 20.1352 65.3126C24.82 64.3532 29.2701 62.4807 33.2314 59.8019C39.1199 55.8266 43.7291 50.2289 46.5005 43.687C47.437 41.4714 48.1518 39.1685 48.6344 36.8121C49.6631 31.763 49.6251 26.5547 48.5227 21.5212C47.9681 19.0043 47.148 16.5533 46.0762 14.2095C47.9148 13.9956 49.7642 13.8884 51.6152 13.8886Z" fill="#713FFD"/>
<g filter="url(#filter1_f_498_4064)">
<path d="M83.6948 28.618C73.0532 19.0362 59.1124 17.1706 52.5572 24.4508C46.002 31.7311 49.3147 45.4005 59.9563 54.9823C70.5979 64.564 84.5387 66.4297 91.0939 59.1494C97.6491 51.8691 94.3364 38.1997 83.6948 28.618Z" fill="#A586FC"/>
</g>
<g filter="url(#filter2_d_498_4064)">
<path d="M142.755 139.914H55.1152C46.6135 139.908 38.4438 136.613 32.3165 130.719C26.1892 124.826 22.5794 116.79 22.2427 108.295C21.9059 99.7999 24.8684 91.5039 30.51 85.1437C36.1516 78.7835 44.0348 74.8522 52.5093 74.1729C53.7179 65.6393 57.5714 57.6993 63.5278 51.47C69.4841 45.2408 77.2436 41.0356 85.7146 39.4463C94.1855 37.857 102.942 38.9634 110.751 42.6099C118.56 46.2565 125.03 52.2596 129.249 59.7747C136.989 57.0957 145.35 56.7826 153.268 58.8755C161.186 60.9683 168.301 65.3721 173.706 71.5253C179.11 77.6785 182.56 85.3021 183.614 93.4238C184.668 101.545 183.279 109.797 179.624 117.126C177.479 123.748 173.292 129.52 167.662 133.615C162.033 137.709 155.251 139.914 148.291 139.914H142.755Z" fill="url(#paint0_linear_498_4064)"/>
<path d="M148.291 139.456C151.825 139.456 155.3 138.892 158.619 137.779C161.829 136.703 164.842 135.132 167.575 133.111C170.277 131.113 172.645 128.719 174.614 125.997C176.608 123.241 178.147 120.209 179.189 116.985L179.199 116.952L179.215 116.921C180.6 114.152 181.667 111.224 182.386 108.216C183.125 105.121 183.5 101.923 183.5 98.7112C183.5 95.9464 183.222 93.1835 182.672 90.4992C182.137 87.8834 181.338 85.3103 180.298 82.8516C179.277 80.4374 178.013 78.1088 176.542 75.9306C175.084 73.773 173.41 71.7441 171.566 69.9001C169.722 68.0562 167.693 66.3822 165.536 64.9245C163.358 63.4529 161.029 62.189 158.615 61.1679C156.156 60.1279 153.583 59.3292 150.967 58.7939C148.283 58.2446 145.52 57.9661 142.755 57.9661C138.177 57.9661 133.684 58.7195 129.399 60.2054L129.038 60.3307L128.85 59.9972C125.364 53.7976 120.292 48.5911 114.184 44.9406C111.095 43.0945 107.776 41.6678 104.32 40.7003C100.754 39.7022 97.0504 39.1961 93.3116 39.1961C88.2826 39.1961 83.3736 40.1012 78.7209 41.8862C74.2261 43.6106 70.1028 46.1016 66.4655 49.2899C62.8492 52.4599 59.8481 56.2002 57.5456 60.4068C55.1866 64.7168 53.6447 69.3691 52.9629 74.2346L52.9119 74.5988L52.5452 74.6274C48.4441 74.9485 44.4983 76.0282 40.8174 77.8368C37.2408 79.5941 34.047 81.9709 31.3248 84.9013C25.7312 90.9226 22.6507 98.7679 22.6507 106.992C22.6507 111.375 23.509 115.626 25.2017 119.628C26.0153 121.552 27.0224 123.407 28.1949 125.143C29.3563 126.862 30.6902 128.478 32.1594 129.948C33.6286 131.417 35.2452 132.751 36.9644 133.912C38.6999 135.085 40.5552 136.092 42.4787 136.905C46.4808 138.598 50.7324 139.456 55.1152 139.456H142.755H148.291ZM148.291 139.914H142.755H55.1152C36.9328 139.914 22.1929 125.174 22.1929 106.992C22.1929 89.686 35.5447 75.499 52.5095 74.171C55.3156 54.147 72.514 38.7383 93.3116 38.7383C108.741 38.7383 122.189 47.2184 129.249 59.7728C133.481 58.3054 138.025 57.5083 142.755 57.5083C165.511 57.5083 183.958 75.9557 183.958 98.7112C183.958 105.329 182.397 111.584 179.624 117.126C175.351 130.35 162.938 139.914 148.291 139.914Z" fill="white" fill-opacity="0.5"/>
</g>
</g>
<defs>
<filter id="filter0_f_498_4064" x="0.337891" y="9.88867" width="187.62" height="167.22" filterUnits="userSpaceOnUse" color-interpolation-filters="sRGB">
<feFlood flood-opacity="0" result="BackgroundImageFix"/>
<feBlend mode="normal" in="SourceGraphic" in2="BackgroundImageFix" result="shape"/>
<feGaussianBlur stdDeviation="2" result="effect1_foregroundBlur_498_4064"/>
</filter>
<filter id="filter1_f_498_4064" x="29.1919" y="0.00976562" width="85.2676" height="83.5806" filterUnits="userSpaceOnUse" color-interpolation-filters="sRGB">
<feFlood flood-opacity="0" result="BackgroundImageFix"/>
<feBlend mode="normal" in="SourceGraphic" in2="BackgroundImageFix" result="shape"/>
<feGaussianBlur stdDeviation="10" result="effect1_foregroundBlur_498_4064"/>
</filter>
<filter id="filter2_d_498_4064" x="2.19287" y="10.7383" width="221.765" height="161.176" filterUnits="userSpaceOnUse" color-interpolation-filters="sRGB">
<feFlood flood-opacity="0" result="BackgroundImageFix"/>
<feColorMatrix in="SourceAlpha" type="matrix" values="0 0 0 0 0 0 0 0 0 0 0 0 0 0 0 0 0 0 127 0" result="hardAlpha"/>
<feOffset dx="10" dy="2"/>
<feGaussianBlur stdDeviation="15"/>
<feColorMatrix type="matrix" values="0 0 0 0 0.501961 0 0 0 0 0.501961 0 0 0 0 0.501961 0 0 0 0.302 0"/>
<feBlend mode="normal" in2="BackgroundImageFix" result="effect1_dropShadow_498_4064"/>
<feBlend mode="normal" in="SourceGraphic" in2="effect1_dropShadow_498_4064" result="shape"/>
</filter>
<linearGradient id="paint0_linear_498_4064" x1="103.087" y1="38.7395" x2="150.078" y2="152.351" gradientUnits="userSpaceOnUse">
<stop stop-color="white" stop-opacity="0.604"/>
<stop offset="1" stop-color="white" stop-opacity="0.2"/>
</linearGradient>
</defs>
</svg>
