<svg width="130" height="128" viewBox="0 0 130 128" fill="none" xmlns="http://www.w3.org/2000/svg">
<g filter="url(#filter0_f_498_3197)">
<path d="M59.7799 12.975C63.5013 12.9742 67.2132 13.3503 70.8589 14.0975C77.8964 15.5471 84.5781 18.3732 90.52 22.4132C98.7521 27.9928 105.329 35.6869 109.56 44.6869C113.791 53.6869 115.52 63.6604 114.564 73.5592C113.609 83.4581 110.004 92.9167 104.13 100.941C98.2552 108.966 90.3277 115.259 81.1802 119.161C77.855 120.574 74.3975 121.653 70.8589 122.382C63.1853 123.938 55.2683 123.841 47.6352 122.097C40.0021 120.353 32.8281 117.003 26.5912 112.27C20.3542 107.537 15.1975 101.528 11.4645 94.646C7.73153 87.7634 5.50797 80.1645 4.94196 72.3552C10.9591 73.7628 17.2093 73.8527 23.2644 72.6189C28.6983 71.5061 33.8599 69.3341 38.4546 66.227C45.2845 61.6165 50.6308 55.1243 53.8457 47.5369C54.932 44.9671 55.7612 42.296 56.3211 39.5628C57.5141 33.7069 57.47 27.6663 56.1915 21.8286C55.5481 18.9091 54.5966 16.0662 53.3531 13.3476C55.4863 13.0992 57.6322 12.9748 59.7799 12.975Z" fill="#713FFD"/>
<g filter="url(#filter1_f_498_3197)">
<path d="M96.9856 30.0597C84.6426 18.946 68.4731 16.7818 60.8699 25.226C53.2668 33.6701 57.1092 49.5249 69.4523 60.6386C81.7953 71.7523 97.9648 73.9164 105.568 65.4723C113.171 57.0281 109.329 41.1734 96.9856 30.0597Z" fill="#A586FC"/>
</g>
</g>
<defs>
<filter id="filter0_f_498_3197" x="0.941895" y="8.97485" width="117.878" height="118.506" filterUnits="userSpaceOnUse" color-interpolation-filters="sRGB">
<feFlood flood-opacity="0" result="BackgroundImageFix"/>
<feBlend mode="normal" in="SourceGraphic" in2="BackgroundImageFix" result="shape"/>
<feGaussianBlur stdDeviation="2" result="effect1_foregroundBlur_498_3197"/>
</filter>
<filter id="filter1_f_498_3197" x="36.9666" y="0.0749512" width="92.5049" height="90.5481" filterUnits="userSpaceOnUse" color-interpolation-filters="sRGB">
<feFlood flood-opacity="0" result="BackgroundImageFix"/>
<feBlend mode="normal" in="SourceGraphic" in2="BackgroundImageFix" result="shape"/>
<feGaussianBlur stdDeviation="10" result="effect1_foregroundBlur_498_3197"/>
</filter>
</defs>
</svg>
