<svg width="223" height="176" viewBox="0 0 223 176" fill="none" xmlns="http://www.w3.org/2000/svg">
<g filter="url(#filter0_f_498_4674)">
<path d="M84.9309 112.028C85.2198 112.037 88.1516 123.587 88.1516 128.075C88.1516 132.564 86.7095 136.203 84.9309 136.203C83.1523 136.203 81.7102 132.564 81.7102 128.076C81.7102 123.588 84.6402 112.021 84.9309 112.028Z" fill="#42A0F0"/>
<path d="M84.4397 125.498C84.9101 125.661 85.0531 126.678 84.7592 127.769C84.4654 128.86 83.8454 129.612 83.3749 129.449C82.9043 129.286 82.761 128.269 83.0553 127.178C83.3496 126.087 83.9687 125.335 84.4397 125.498Z" fill="white"/>
<path d="M112.368 112.028C112.657 112.037 115.589 123.587 115.589 128.075C115.589 132.564 114.147 136.203 112.368 136.203C110.589 136.203 109.147 132.564 109.147 128.076C109.147 123.588 112.077 112.021 112.368 112.028Z" fill="#42A0F0"/>
<path d="M111.877 125.498C112.347 125.661 112.49 126.678 112.196 127.769C111.902 128.86 111.282 129.612 110.812 129.449C110.341 129.286 110.198 128.269 110.492 127.178C110.787 126.087 111.406 125.335 111.877 125.498Z" fill="white"/>
<path d="M139.805 110.655C140.094 110.663 143.026 122.214 143.026 126.702C143.026 131.19 141.584 134.829 139.805 134.829C138.026 134.829 136.584 131.191 136.584 126.702C136.584 122.214 139.514 110.647 139.805 110.655Z" fill="#42A0F0"/>
<path d="M139.314 124.124C139.784 124.288 139.927 125.304 139.634 126.396C139.34 127.487 138.72 128.238 138.249 128.075C137.779 127.912 137.635 126.895 137.93 125.804C138.224 124.713 138.843 123.961 139.314 124.124Z" fill="white"/>
<path d="M97.8423 142.701C98.1312 142.709 101.063 154.26 101.063 158.748C101.063 163.237 99.6209 166.876 97.8423 166.876C96.0637 166.876 94.6216 163.237 94.6216 158.749C94.6216 154.26 97.5516 142.693 97.8423 142.701Z" fill="#42A0F0"/>
<path d="M97.351 156.171C97.8214 156.334 97.9645 157.351 97.6706 158.442C97.3767 159.533 96.7568 160.285 96.2862 160.122C95.8157 159.959 95.6723 158.942 95.9667 157.851C96.261 156.76 96.88 156.008 97.351 156.171Z" fill="white"/>
<path d="M125.28 142.701C125.568 142.709 128.5 154.26 128.5 158.748C128.5 163.237 127.058 166.876 125.28 166.876C123.501 166.876 122.059 163.237 122.059 158.749C122.059 154.26 124.989 142.693 125.28 142.701Z" fill="#42A0F0"/>
<path d="M124.788 156.171C125.259 156.334 125.402 157.351 125.108 158.442C124.814 159.533 124.194 160.285 123.723 160.122C123.253 159.959 123.11 158.942 123.404 157.851C123.698 156.76 124.317 156.008 124.788 156.171Z" fill="white"/>
<path d="M154.33 142.701C154.619 142.709 157.551 154.26 157.551 158.748C157.551 163.237 156.109 166.876 154.33 166.876C152.552 166.876 151.11 163.237 151.11 158.749C151.11 154.26 154.04 142.693 154.33 142.701Z" fill="#42A0F0"/>
<path d="M153.839 156.171C154.31 156.334 154.453 157.351 154.159 158.442C153.865 159.533 153.245 160.285 152.775 160.122C152.304 159.959 152.161 158.942 152.455 157.851C152.749 156.76 153.368 156.008 153.839 156.171Z" fill="white"/>
<path d="M54.8036 14.9372C57.8037 14.9365 60.7961 15.2398 63.735 15.8423C69.4073 17.0106 74.7929 19.2883 79.5821 22.5446C86.2172 27.0418 91.5184 33.2433 94.9285 40.4974C98.3385 47.7514 99.7315 55.7901 98.9611 63.7686C98.1907 71.747 95.2853 79.3707 90.5503 85.8382C85.8153 92.3058 79.4255 97.3784 72.0525 100.523C69.3723 101.662 66.5855 102.531 63.7332 103.118C57.5483 104.373 51.1671 104.295 45.0147 102.89C38.8623 101.485 33.0799 98.7849 28.0528 94.9698C23.0258 91.1546 18.8695 86.3119 15.8609 80.7644C12.8523 75.2169 11.0605 69.0919 10.6048 62.7976C13.1837 63.4021 15.8238 63.7069 18.4727 63.7059C25.2951 63.7168 31.9638 61.6797 37.6156 57.8583C43.1207 54.143 47.4303 48.9111 50.0222 42.7963C51.8066 38.5801 52.7217 34.0472 52.7128 29.469C52.7131 26.9827 52.4444 24.5038 51.9112 22.0753C51.3921 19.7223 50.6248 17.4309 49.6221 15.2398C51.342 15.0388 53.072 14.9377 54.8036 14.9372Z" fill="#713FFD"/>
<g filter="url(#filter1_f_498_4674)">
<path d="M84.7918 28.707C74.8435 19.7495 61.811 18.0055 55.6828 24.8115C49.5546 31.6176 52.6514 44.3964 62.5996 53.3539C72.5479 62.3113 85.5804 64.0554 91.7086 57.2493C97.8368 50.4433 94.74 37.6644 84.7918 28.707Z" fill="#A586FC"/>
</g>
<path d="M52.0459 124.446H70.5465L59.912 140.063L72.3462 140.298L46.2473 171.189L52.571 147.637H40.9944L52.0459 124.446Z" fill="url(#paint0_linear_498_4674)"/>
<g filter="url(#filter2_d_498_4674)">
<path d="M141.111 138.876H53.4711C44.9694 138.869 36.7998 135.574 30.6725 129.68C24.5452 123.787 20.9353 115.751 20.5986 107.256C20.2619 98.7611 23.2244 90.4651 28.866 84.1049C34.5075 77.7447 42.3907 73.8134 50.8653 73.1341C52.0738 64.6005 55.9273 56.6605 61.8837 50.4312C67.8401 44.2019 75.5996 39.9968 84.0705 38.4075C92.5414 36.8182 101.297 37.9246 109.107 41.5711C116.916 45.2177 123.386 51.2208 127.605 58.7359C135.344 56.0569 143.706 55.7438 151.624 57.8366C159.542 59.9295 166.657 64.3333 172.062 70.4865C177.466 76.6397 180.916 84.2633 181.97 92.385C183.024 100.507 181.635 108.758 177.98 116.087C175.835 122.709 171.648 128.482 166.018 132.576C160.389 136.67 153.607 138.875 146.647 138.876H141.111Z" fill="url(#paint1_linear_498_4674)"/>
<path d="M146.646 138.417C150.181 138.417 153.656 137.853 156.975 136.74C160.185 135.664 163.198 134.093 165.931 132.072C168.633 130.074 171.001 127.68 172.97 124.958C174.963 122.202 176.503 119.17 177.544 115.946L177.555 115.913L177.571 115.882C178.956 113.113 180.023 110.184 180.741 107.177C181.481 104.082 181.856 100.884 181.856 97.6721C181.856 94.9074 181.577 92.1445 181.028 89.4602C180.493 86.8443 179.694 84.2713 178.654 81.8125C177.633 79.3983 176.369 77.0698 174.898 74.8916C173.44 72.7339 171.766 70.705 169.922 68.8611C168.078 67.0171 166.049 65.3431 163.892 63.8854C161.713 62.4139 159.385 61.15 156.971 60.1288C154.512 59.0888 151.939 58.2901 149.323 57.7548C146.639 57.2055 143.876 56.927 141.111 56.927C136.533 56.927 132.039 57.6804 127.755 59.1663L127.394 59.2917L127.206 58.9582C123.719 52.7586 118.648 47.5521 112.54 43.9016C109.451 42.0554 106.132 40.6288 102.675 39.6613C99.1098 38.6631 95.4061 38.157 91.6673 38.157C86.6384 38.157 81.7293 39.0621 77.0766 40.8471C72.5818 42.5715 68.4585 45.0625 64.8212 48.2508C61.2049 51.4208 58.2038 55.1611 55.9013 59.3678C53.5423 63.6777 52.0004 68.3301 51.3186 73.1955L51.2676 73.5597L50.901 73.5884C46.7998 73.9094 42.854 74.9892 39.1731 76.7977C35.5965 78.555 32.4028 80.9319 29.6805 83.8623C24.0869 89.8836 21.0064 97.7288 21.0064 105.953C21.0064 110.336 21.8647 114.587 23.5574 118.589C24.3711 120.513 25.3781 122.368 26.5506 124.104C27.712 125.823 29.0459 127.439 30.5151 128.909C31.9843 130.378 33.6009 131.712 35.3201 132.873C37.0556 134.046 38.9109 135.053 40.8345 135.866C44.8365 137.559 49.0881 138.417 53.471 138.417H141.111H146.646ZM146.646 138.875H141.111H53.471C35.2885 138.875 20.5486 124.135 20.5486 105.953C20.5486 88.647 33.9005 74.4599 50.8652 73.132C53.6713 53.1079 70.8697 37.6992 91.6673 37.6992C107.096 37.6992 120.545 46.1793 127.605 58.7338C131.836 57.2663 136.38 56.4692 141.111 56.4692C163.867 56.4692 182.314 74.9166 182.314 97.6721C182.314 104.29 180.753 110.545 177.98 116.087C173.706 129.311 161.294 138.875 146.646 138.875Z" fill="white" fill-opacity="0.5"/>
</g>
</g>
<defs>
<filter id="filter0_f_498_4674" x="6.60474" y="10.937" width="179.709" height="164.252" filterUnits="userSpaceOnUse" color-interpolation-filters="sRGB">
<feFlood flood-opacity="0" result="BackgroundImageFix"/>
<feBlend mode="normal" in="SourceGraphic" in2="BackgroundImageFix" result="shape"/>
<feGaussianBlur stdDeviation="2" result="effect1_foregroundBlur_498_4674"/>
</filter>
<filter id="filter1_f_498_4674" x="32.5364" y="0.659668" width="82.3186" height="80.7412" filterUnits="userSpaceOnUse" color-interpolation-filters="sRGB">
<feFlood flood-opacity="0" result="BackgroundImageFix"/>
<feBlend mode="normal" in="SourceGraphic" in2="BackgroundImageFix" result="shape"/>
<feGaussianBlur stdDeviation="10" result="effect1_foregroundBlur_498_4674"/>
</filter>
<filter id="filter2_d_498_4674" x="0.548584" y="9.69922" width="221.765" height="161.176" filterUnits="userSpaceOnUse" color-interpolation-filters="sRGB">
<feFlood flood-opacity="0" result="BackgroundImageFix"/>
<feColorMatrix in="SourceAlpha" type="matrix" values="0 0 0 0 0 0 0 0 0 0 0 0 0 0 0 0 0 0 127 0" result="hardAlpha"/>
<feOffset dx="10" dy="2"/>
<feGaussianBlur stdDeviation="15"/>
<feColorMatrix type="matrix" values="0 0 0 0 0.501961 0 0 0 0 0.501961 0 0 0 0 0.501961 0 0 0 0.302 0"/>
<feBlend mode="normal" in2="BackgroundImageFix" result="effect1_dropShadow_498_4674"/>
<feBlend mode="normal" in="SourceGraphic" in2="effect1_dropShadow_498_4674" result="shape"/>
</filter>
<linearGradient id="paint0_linear_498_4674" x1="53.7859" y1="147.818" x2="39.1413" y2="142.449" gradientUnits="userSpaceOnUse">
<stop stop-color="#FFD100"/>
<stop offset="1" stop-color="#FFF0AA"/>
</linearGradient>
<linearGradient id="paint1_linear_498_4674" x1="101.443" y1="37.7007" x2="148.434" y2="151.313" gradientUnits="userSpaceOnUse">
<stop stop-color="white" stop-opacity="0.604"/>
<stop offset="1" stop-color="white" stop-opacity="0.2"/>
</linearGradient>
</defs>
</svg>
