<svg width="223" height="177" viewBox="0 0 223 177" fill="none" xmlns="http://www.w3.org/2000/svg">
<g filter="url(#filter0_f_498_4386)">
<path d="M153.607 108.751C153.607 108.751 145.017 116.484 138.304 116.228C129.889 115.9 128.447 109.16 120.649 108.751C112.487 108.832 111.654 115.822 102.807 116.228C94.8798 116.134 91.5218 108.877 83.9661 108.751C76.4104 108.624 68.3547 116.228 68.3547 116.228" stroke="white" stroke-width="20" stroke-linecap="round"/>
<path d="M124.307 133.473C124.307 133.473 115.717 141.206 109.004 140.95C100.589 140.622 99.1473 133.882 91.349 133.473C83.1867 133.554 82.3539 140.545 73.5067 140.95C65.5798 140.856 62.2217 133.599 54.666 133.473C47.1103 133.346 39.0547 140.95 39.0547 140.95" stroke="white" stroke-width="20" stroke-linecap="round"/>
<path d="M169.172 154.532C169.172 154.532 160.583 162.265 153.869 162.009C145.454 161.681 144.013 154.941 136.214 154.532C128.052 154.613 127.219 161.604 118.372 162.009C110.445 161.915 107.087 154.658 99.5315 154.532C91.9758 154.405 83.9202 162.009 83.9202 162.009" stroke="white" stroke-width="20" stroke-linecap="round"/>
<path d="M52.6445 14.5995C55.8537 14.5987 59.0547 14.923 62.1985 15.5673C68.2661 16.817 74.0269 19.2535 79.1499 22.7366C86.2473 27.5472 91.9179 34.1807 95.5657 41.9402C99.2134 49.6996 100.704 58.2984 99.8797 66.8328C99.0557 75.3672 95.9481 83.522 90.8833 90.4403C85.8185 97.3586 78.9836 102.785 71.097 106.149C68.2301 107.367 65.2491 108.297 62.1981 108.925C55.5823 110.267 48.7565 110.183 42.1756 108.68C35.5946 107.177 29.4095 104.289 24.0323 100.208C18.6551 96.1266 14.2092 90.9467 10.9908 85.0128C7.77234 79.079 5.8553 72.5274 5.36734 65.7946C10.555 67.0087 15.9439 67.0868 21.1645 66.0235C25.8493 65.0641 30.2993 63.1916 34.2607 60.5129C40.1492 56.5376 44.7584 50.9398 47.5298 44.3979C48.4663 42.1823 49.1811 39.8795 49.6637 37.523C50.6924 32.474 50.6544 27.2656 49.552 22.2321C48.9974 19.7152 48.1773 17.2643 47.1055 14.9205C48.944 14.7065 50.7935 14.5993 52.6445 14.5995Z" fill="#713FFD"/>
<g filter="url(#filter1_f_498_4386)">
<path d="M84.7238 29.3289C74.0822 19.7472 60.1415 17.8815 53.5863 25.1618C47.0311 32.4421 50.3437 46.1115 60.9853 55.6932C71.6269 65.2749 85.5677 67.1406 92.1229 59.8603C98.6781 52.58 95.3654 38.9107 84.7238 29.3289Z" fill="#A586FC"/>
</g>
<g filter="url(#filter2_d_498_4386)">
<path d="M141.037 140.625H53.3977C44.8959 140.619 36.7263 137.324 30.599 131.43C24.4717 125.536 20.8619 117.501 20.5251 109.006C20.1884 100.511 23.1509 92.2149 28.7925 85.8547C34.434 79.4945 42.3173 75.5632 50.7918 74.8838C52.0003 66.3502 55.8538 58.4103 61.8102 52.181C67.7666 45.9517 75.5261 41.7466 83.997 40.1572C92.468 38.5679 101.224 39.6743 109.033 43.3209C116.843 46.9674 123.312 52.9705 127.532 60.4857C135.271 57.8066 143.633 57.4936 151.551 59.5865C159.469 61.6795 166.584 66.0836 171.989 72.237C177.394 78.3905 180.843 86.0144 181.897 94.1363C182.95 102.258 181.561 110.51 177.906 117.839C175.761 124.46 171.573 130.232 165.944 134.326C160.315 138.42 153.533 140.625 146.573 140.625H141.037Z" fill="url(#paint0_linear_498_4386)"/>
<path d="M146.573 140.167C150.107 140.167 153.582 139.603 156.901 138.49C160.11 137.414 163.123 135.843 165.856 133.822C168.558 131.824 170.926 129.431 172.895 126.709C174.889 123.953 176.428 120.921 177.47 117.698L177.481 117.665L177.496 117.634C178.882 114.865 179.949 111.936 180.668 108.928C181.408 105.833 181.783 102.635 181.783 99.4221C181.783 96.6574 181.504 93.8945 180.955 91.2102C180.42 88.5943 179.621 86.0213 178.581 83.5625C177.56 81.1483 176.296 78.8198 174.824 76.6416C173.367 74.4839 171.693 72.455 169.849 70.6111C168.005 68.7671 165.976 67.0931 163.818 65.6354C161.64 64.1639 159.311 62.9 156.897 61.8788C154.438 60.8388 151.865 60.0401 149.25 59.5048C146.565 58.9555 143.802 58.677 141.038 58.677C136.46 58.677 131.966 59.4304 127.682 60.9163L127.32 61.0416L127.133 60.7081C123.646 54.5085 118.575 49.302 112.466 45.6516C109.377 43.8054 106.058 42.3787 102.602 41.4112C99.0366 40.4131 95.3329 39.907 91.5941 39.907C86.5651 39.907 81.6561 40.8121 77.0033 42.5971C72.5085 44.3215 68.3853 46.8125 64.748 50.0008C61.1316 53.1708 58.1306 56.9111 55.8281 61.1178C53.469 65.4277 51.9272 70.0801 51.2454 74.9455L51.1943 75.3097L50.8277 75.3384C46.7265 75.6594 42.7807 76.7392 39.0999 78.5477C35.5233 80.305 32.3295 82.6819 29.6073 85.6123C24.0137 91.6336 20.9332 99.4788 20.9332 107.703C20.9332 112.086 21.7914 116.337 23.4842 120.339C24.2978 122.263 25.3048 124.118 26.4773 125.854C27.6388 127.573 28.9726 129.189 30.4418 130.659C31.911 132.128 33.5277 133.462 35.2468 134.623C36.9824 135.796 38.8377 136.803 40.7612 137.616C44.7633 139.309 49.0148 140.167 53.3977 140.167H141.038H146.573ZM146.573 140.625H141.038H53.3977C35.2153 140.625 20.4753 125.885 20.4753 107.703C20.4753 90.397 33.8272 76.2099 50.792 74.882C53.5981 54.8579 70.7965 39.4492 91.5941 39.4492C107.023 39.4492 120.471 47.9293 127.532 60.4837C131.763 59.0163 136.307 58.2192 141.038 58.2192C163.793 58.2192 182.241 76.6666 182.241 99.4221C182.241 106.042 180.68 112.296 177.906 117.839C173.631 131.061 161.219 140.625 146.573 140.625Z" fill="white" fill-opacity="0.5"/>
</g>
</g>
<defs>
<filter id="filter0_f_498_4386" x="1.36743" y="10.5996" width="184.873" height="165.416" filterUnits="userSpaceOnUse" color-interpolation-filters="sRGB">
<feFlood flood-opacity="0" result="BackgroundImageFix"/>
<feBlend mode="normal" in="SourceGraphic" in2="BackgroundImageFix" result="shape"/>
<feGaussianBlur stdDeviation="2" result="effect1_foregroundBlur_498_4386"/>
</filter>
<filter id="filter1_f_498_4386" x="30.2207" y="0.720703" width="85.2678" height="83.5806" filterUnits="userSpaceOnUse" color-interpolation-filters="sRGB">
<feFlood flood-opacity="0" result="BackgroundImageFix"/>
<feBlend mode="normal" in="SourceGraphic" in2="BackgroundImageFix" result="shape"/>
<feGaussianBlur stdDeviation="10" result="effect1_foregroundBlur_498_4386"/>
</filter>
<filter id="filter2_d_498_4386" x="0.475342" y="11.4492" width="221.765" height="161.176" filterUnits="userSpaceOnUse" color-interpolation-filters="sRGB">
<feFlood flood-opacity="0" result="BackgroundImageFix"/>
<feColorMatrix in="SourceAlpha" type="matrix" values="0 0 0 0 0 0 0 0 0 0 0 0 0 0 0 0 0 0 127 0" result="hardAlpha"/>
<feOffset dx="10" dy="2"/>
<feGaussianBlur stdDeviation="15"/>
<feColorMatrix type="matrix" values="0 0 0 0 0.501961 0 0 0 0 0.501961 0 0 0 0 0.501961 0 0 0 0.302 0"/>
<feBlend mode="normal" in2="BackgroundImageFix" result="effect1_dropShadow_498_4386"/>
<feBlend mode="normal" in="SourceGraphic" in2="effect1_dropShadow_498_4386" result="shape"/>
</filter>
<linearGradient id="paint0_linear_498_4386" x1="101.369" y1="39.4504" x2="148.36" y2="153.062" gradientUnits="userSpaceOnUse">
<stop stop-color="white" stop-opacity="0.604"/>
<stop offset="1" stop-color="white" stop-opacity="0.2"/>
</linearGradient>
</defs>
</svg>
