<svg width="95" height="97" viewBox="0 0 95 97" fill="none" xmlns="http://www.w3.org/2000/svg">
<g filter="url(#filter0_f_498_2928)">
<path d="M15.4131 58.2864C16.462 58.2997 27.0914 74.8957 27.0914 81.3458C27.0914 84.4431 25.861 87.4135 23.6709 89.6036C21.4808 91.7937 18.5104 93.0241 15.4131 93.0241C12.3159 93.0241 9.34546 91.7937 7.15535 89.6036C4.96525 87.4135 3.73486 84.4431 3.73486 81.3458C3.73486 74.8957 14.3652 58.2749 15.4131 58.2864Z" fill="#42A0F0"/>
<g filter="url(#filter1_f_498_2928)">
<path d="M6.50885 85.7116C7.67575 86.0684 9.15883 84.6007 9.82141 82.4335C10.484 80.2663 10.0752 78.2202 8.90826 77.8635C7.74137 77.5067 6.25828 78.9744 5.59571 81.1416C4.93313 83.3088 5.34196 85.3549 6.50885 85.7116Z" fill="white"/>
</g>
<path d="M79.6446 58.2864C80.6934 58.2997 91.3229 74.8957 91.3229 81.3458C91.3229 84.4431 90.0925 87.4135 87.9024 89.6036C85.7123 91.7937 82.7419 93.0241 79.6446 93.0241C76.5473 93.0241 73.5769 91.7937 71.3868 89.6036C69.1967 87.4135 67.9663 84.4431 67.9663 81.3458C67.9663 74.8957 78.5967 58.2749 79.6446 58.2864Z" fill="#42A0F0"/>
<g filter="url(#filter2_f_498_2928)">
<path d="M70.7403 85.7116C71.9072 86.0684 73.3903 84.6007 74.0529 82.4335C74.7154 80.2663 74.3066 78.2202 73.1397 77.8635C71.9728 77.5067 70.4897 78.9744 69.8272 81.1416C69.1646 83.3088 69.5734 85.3549 70.7403 85.7116Z" fill="white"/>
</g>
<path d="M45.5626 3.88624C46.6114 3.89951 57.2408 20.4956 57.2408 26.9457C57.2408 30.043 56.0105 33.0134 53.8204 35.2035C51.6303 37.3936 48.6598 38.624 45.5626 38.624C42.4653 38.624 39.4949 37.3936 37.3048 35.2035C35.1147 33.0134 33.8843 30.043 33.8843 26.9457C33.8843 20.4956 44.5146 3.87479 45.5626 3.88624Z" fill="#42A0F0"/>
<g filter="url(#filter3_f_498_2928)">
<path d="M36.0631 31.1503C37.2299 31.5071 38.713 30.0394 39.3756 27.8722C40.0382 25.705 39.6294 23.659 38.4625 23.3022C37.2956 22.9455 35.8125 24.4131 35.1499 26.5803C34.4873 28.7475 34.8962 30.7936 36.0631 31.1503Z" fill="white"/>
</g>
</g>
<defs>
<filter id="filter0_f_498_2928" x="0.734863" y="0.88623" width="93.5879" height="95.1379" filterUnits="userSpaceOnUse" color-interpolation-filters="sRGB">
<feFlood flood-opacity="0" result="BackgroundImageFix"/>
<feBlend mode="normal" in="SourceGraphic" in2="BackgroundImageFix" result="shape"/>
<feGaussianBlur stdDeviation="1.5" result="effect1_foregroundBlur_498_2928"/>
</filter>
<filter id="filter1_f_498_2928" x="1.27832" y="73.8101" width="12.8604" height="15.9551" filterUnits="userSpaceOnUse" color-interpolation-filters="sRGB">
<feFlood flood-opacity="0" result="BackgroundImageFix"/>
<feBlend mode="normal" in="SourceGraphic" in2="BackgroundImageFix" result="shape"/>
<feGaussianBlur stdDeviation="2" result="effect1_foregroundBlur_498_2928"/>
</filter>
<filter id="filter2_f_498_2928" x="65.5098" y="73.8101" width="12.8604" height="15.9551" filterUnits="userSpaceOnUse" color-interpolation-filters="sRGB">
<feFlood flood-opacity="0" result="BackgroundImageFix"/>
<feBlend mode="normal" in="SourceGraphic" in2="BackgroundImageFix" result="shape"/>
<feGaussianBlur stdDeviation="2" result="effect1_foregroundBlur_498_2928"/>
</filter>
<filter id="filter3_f_498_2928" x="30.8325" y="19.2488" width="12.8604" height="15.9551" filterUnits="userSpaceOnUse" color-interpolation-filters="sRGB">
<feFlood flood-opacity="0" result="BackgroundImageFix"/>
<feBlend mode="normal" in="SourceGraphic" in2="BackgroundImageFix" result="shape"/>
<feGaussianBlur stdDeviation="2" result="effect1_foregroundBlur_498_2928"/>
</filter>
</defs>
</svg>
