<svg width="231" height="170" viewBox="0 0 231 170" fill="none" xmlns="http://www.w3.org/2000/svg">
<g filter="url(#filter0_f_498_4585)">
<path d="M93.1177 106.476C93.4065 106.484 96.3384 118.034 96.3384 122.523C96.3384 127.011 94.8963 130.65 93.1177 130.65C91.3391 130.65 89.897 127.012 89.897 122.523C89.897 118.035 92.827 106.468 93.1177 106.476Z" fill="#42A0F0"/>
<path d="M92.6264 119.945C93.0968 120.109 93.2399 121.125 92.946 122.216C92.6521 123.307 92.0322 124.059 91.5616 123.896C91.0911 123.733 90.9477 122.716 91.242 121.625C91.5364 120.534 92.1554 119.782 92.6264 119.945Z" fill="white"/>
<path d="M120.555 106.476C120.844 106.484 123.775 118.034 123.775 122.523C123.775 127.011 122.333 130.65 120.555 130.65C118.776 130.65 117.334 127.012 117.334 122.523C117.334 118.035 120.264 106.468 120.555 106.476Z" fill="#42A0F0"/>
<path d="M120.063 119.945C120.534 120.109 120.677 121.125 120.383 122.216C120.089 123.307 119.469 124.059 118.999 123.896C118.528 123.733 118.385 122.716 118.679 121.625C118.973 120.534 119.592 119.782 120.063 119.945Z" fill="white"/>
<path d="M147.992 105.103C148.281 105.111 151.212 116.661 151.212 121.15C151.212 125.638 149.77 129.277 147.992 129.277C146.213 129.277 144.771 125.639 144.771 121.15C144.771 116.662 147.701 105.095 147.992 105.103Z" fill="#42A0F0"/>
<path d="M147.5 118.572C147.971 118.736 148.114 119.752 147.82 120.843C147.526 121.934 146.906 122.686 146.436 122.523C145.965 122.36 145.822 121.343 146.116 120.252C146.41 119.161 147.029 118.409 147.5 118.572Z" fill="white"/>
<path d="M106.029 137.149C106.318 137.157 109.25 148.708 109.25 153.196C109.25 157.684 107.808 161.324 106.029 161.324C104.251 161.324 102.809 157.685 102.809 153.197C102.809 148.708 105.739 137.141 106.029 137.149Z" fill="#42A0F0"/>
<path d="M105.538 150.619C106.008 150.782 106.152 151.798 105.858 152.89C105.564 153.981 104.944 154.732 104.473 154.569C104.003 154.406 103.859 153.389 104.154 152.298C104.448 151.207 105.067 150.455 105.538 150.619Z" fill="white"/>
<path d="M133.466 137.149C133.755 137.157 136.687 148.708 136.687 153.196C136.687 157.684 135.245 161.324 133.466 161.324C131.688 161.324 130.246 157.685 130.246 153.197C130.246 148.708 133.176 137.141 133.466 137.149Z" fill="#42A0F0"/>
<path d="M132.975 150.619C133.445 150.782 133.589 151.798 133.295 152.89C133.001 153.981 132.381 154.732 131.91 154.569C131.44 154.406 131.296 153.389 131.591 152.298C131.885 151.207 132.504 150.455 132.975 150.619Z" fill="white"/>
<path d="M162.517 137.149C162.806 137.157 165.738 148.708 165.738 153.196C165.738 157.684 164.296 161.324 162.517 161.324C160.738 161.324 159.296 157.685 159.296 153.197C159.296 148.708 162.226 137.141 162.517 137.149Z" fill="#42A0F0"/>
<path d="M162.026 150.619C162.496 150.782 162.639 151.798 162.345 152.89C162.052 153.981 161.432 154.732 160.961 154.569C160.491 154.406 160.347 153.389 160.641 152.298C160.936 151.207 161.555 150.455 162.026 150.619Z" fill="white"/>
<path d="M60.2322 118.895H78.7328L68.0983 134.511L80.5324 134.746L54.4336 165.637L60.7573 142.085H49.1807L60.2322 118.895Z" fill="url(#paint0_linear_498_4585)"/>
<path d="M57.4383 102.335C80.3031 102.335 98.8386 83.7049 98.8386 60.7242C98.8386 37.7434 80.3031 19.1138 57.4383 19.1138C34.5736 19.1138 16.0381 37.7434 16.0381 60.7242C16.0381 83.7049 34.5736 102.335 57.4383 102.335Z" fill="#FA9E42"/>
<g filter="url(#filter1_f_498_4585)">
<path d="M54.4473 54.8069C68.2067 47.4986 75.9027 35.0631 71.6367 27.0313C67.3707 18.9996 52.7581 18.4131 38.9987 25.7213C25.2392 33.0296 17.5432 45.4651 21.8093 53.4969C26.0753 61.5286 40.6878 62.1151 54.4473 54.8069Z" fill="#F8E36F"/>
</g>
<g filter="url(#filter2_d_498_4585)">
<path d="M149.297 133.324H61.6572C53.1555 133.317 44.9858 130.022 38.8585 124.129C32.7312 118.235 29.1214 110.199 28.7846 101.704C28.4479 93.2094 31.4104 84.9134 37.052 78.5532C42.6936 72.193 50.5768 68.2617 59.0513 67.5823C60.2598 59.0487 64.1134 51.1088 70.0698 44.8795C76.0261 38.6502 83.7856 34.4451 92.2565 32.8557C100.727 31.2664 109.484 32.3728 117.293 36.0194C125.102 39.6659 131.572 45.669 135.791 53.1842C143.531 50.5051 151.892 50.1921 159.81 52.2849C167.728 54.3777 174.843 58.7816 180.248 64.9348C185.652 71.088 189.102 78.7116 190.156 86.8332C191.21 94.9549 189.821 103.206 186.166 110.535C184.021 117.158 179.834 122.93 174.204 127.024C168.575 131.118 161.793 133.324 154.833 133.324H149.297Z" fill="url(#paint1_linear_498_4585)"/>
<path d="M154.833 132.866C158.367 132.866 161.842 132.301 165.161 131.188C168.371 130.112 171.384 128.541 174.117 126.52C176.819 124.522 179.187 122.129 181.156 119.406C183.15 116.65 184.689 113.618 185.731 110.394L185.741 110.361L185.757 110.33C187.142 107.562 188.209 104.633 188.928 101.625C189.667 98.53 190.042 95.3322 190.042 92.1204C190.042 89.3556 189.764 86.5927 189.214 83.9084C188.679 81.2926 187.88 78.7195 186.84 76.2608C185.819 73.8466 184.555 71.518 183.084 69.3398C181.626 67.1822 179.952 65.1532 178.108 63.3093C176.264 61.4654 174.235 59.7913 172.078 58.3337C169.9 56.8621 167.571 55.5982 165.157 54.5771C162.698 53.5371 160.125 52.7384 157.509 52.2031C154.825 51.6538 152.062 51.3753 149.297 51.3753C144.719 51.3753 140.226 52.1287 135.941 53.6145L135.58 53.7399L135.392 53.4064C131.906 47.2068 126.834 42.0003 120.726 38.3498C117.637 36.5037 114.318 35.077 110.862 34.1095C107.296 33.1114 103.592 32.6053 99.8536 32.6053C94.8246 32.6053 89.9156 33.5104 85.2629 35.2954C80.7681 37.0198 76.6448 39.5108 73.0075 42.6991C69.3912 45.8691 66.3901 49.6093 64.0876 53.816C61.7286 58.126 60.1867 62.7783 59.5049 67.6437L59.4539 68.0079L59.0872 68.0366C54.9861 68.3576 51.0403 69.4374 47.3594 71.2459C43.7828 73.0032 40.589 75.3801 37.8668 78.3105C32.2732 84.3318 29.1927 92.1771 29.1927 100.401C29.1927 104.784 30.051 109.035 31.7437 113.037C32.5573 114.961 33.5644 116.816 34.7369 118.552C35.8983 120.271 37.2322 121.888 38.7014 123.357C40.1705 124.826 41.7872 126.16 43.5063 127.321C45.2419 128.494 47.0972 129.501 49.0207 130.314C53.0228 132.007 57.2744 132.866 61.6572 132.866H149.297H154.833ZM154.833 133.323H149.297H61.6572C43.4748 133.323 28.7349 118.583 28.7349 100.401C28.7349 83.0952 42.0867 68.9081 59.0515 67.5802C61.8576 47.5562 79.056 32.1475 99.8536 32.1475C115.283 32.1475 128.731 40.6276 135.791 53.182C140.023 51.7146 144.567 50.9175 149.297 50.9175C172.053 50.9175 190.5 69.3648 190.5 92.1204C190.5 98.7386 188.939 104.994 186.166 110.535C181.893 123.759 169.48 133.323 154.833 133.323Z" fill="white" fill-opacity="0.5"/>
</g>
</g>
<defs>
<filter id="filter0_f_498_4585" x="12.0381" y="15.1138" width="182.462" height="154.523" filterUnits="userSpaceOnUse" color-interpolation-filters="sRGB">
<feFlood flood-opacity="0" result="BackgroundImageFix"/>
<feBlend mode="normal" in="SourceGraphic" in2="BackgroundImageFix" result="shape"/>
<feGaussianBlur stdDeviation="2" result="effect1_foregroundBlur_498_4585"/>
</filter>
<filter id="filter1_f_498_4585" x="0.632324" y="0.602051" width="92.1812" height="79.3242" filterUnits="userSpaceOnUse" color-interpolation-filters="sRGB">
<feFlood flood-opacity="0" result="BackgroundImageFix"/>
<feBlend mode="normal" in="SourceGraphic" in2="BackgroundImageFix" result="shape"/>
<feGaussianBlur stdDeviation="10" result="effect1_foregroundBlur_498_4585"/>
</filter>
<filter id="filter2_d_498_4585" x="8.73486" y="4.14746" width="221.765" height="161.176" filterUnits="userSpaceOnUse" color-interpolation-filters="sRGB">
<feFlood flood-opacity="0" result="BackgroundImageFix"/>
<feColorMatrix in="SourceAlpha" type="matrix" values="0 0 0 0 0 0 0 0 0 0 0 0 0 0 0 0 0 0 127 0" result="hardAlpha"/>
<feOffset dx="10" dy="2"/>
<feGaussianBlur stdDeviation="15"/>
<feColorMatrix type="matrix" values="0 0 0 0 0.501961 0 0 0 0 0.501961 0 0 0 0 0.501961 0 0 0 0.302 0"/>
<feBlend mode="normal" in2="BackgroundImageFix" result="effect1_dropShadow_498_4585"/>
<feBlend mode="normal" in="SourceGraphic" in2="effect1_dropShadow_498_4585" result="shape"/>
</filter>
<linearGradient id="paint0_linear_498_4585" x1="61.9722" y1="142.266" x2="47.3276" y2="136.897" gradientUnits="userSpaceOnUse">
<stop stop-color="#FFD100"/>
<stop offset="1" stop-color="#FFF0AA"/>
</linearGradient>
<linearGradient id="paint1_linear_498_4585" x1="109.629" y1="32.1489" x2="156.62" y2="145.761" gradientUnits="userSpaceOnUse">
<stop stop-color="white" stop-opacity="0.604"/>
<stop offset="1" stop-color="white" stop-opacity="0.2"/>
</linearGradient>
</defs>
</svg>
