<svg width="227" height="179" viewBox="0 0 227 179" fill="none" xmlns="http://www.w3.org/2000/svg">
<g filter="url(#filter0_f_498_3700)">
<path d="M73.5493 114.112L104.077 162.957" stroke="#42A0F0" stroke-width="9" stroke-linecap="round"/>
<path d="M80.9147 126.113L83.8997 112.171" stroke="#42A0F0" stroke-width="9" stroke-linecap="round"/>
<path d="M80.9144 126.113L66.8032 122.856" stroke="#42A0F0" stroke-width="9" stroke-linecap="round"/>
<path d="M97.1958 152.164L111.036 155.59" stroke="#42A0F0" stroke-width="9" stroke-linecap="round"/>
<path d="M97.196 152.163L93.9396 166.275" stroke="#42A0F0" stroke-width="9" stroke-linecap="round"/>
<path d="M102.342 113.378L75.3048 164.239" stroke="#42A0F0" stroke-width="9" stroke-linecap="round"/>
<path d="M95.6313 125.757L109.198 121.372" stroke="#42A0F0" stroke-width="9" stroke-linecap="round"/>
<path d="M95.6314 125.757L91.396 111.908" stroke="#42A0F0" stroke-width="9" stroke-linecap="round"/>
<path d="M81.2119 152.883L85.1648 166.582" stroke="#42A0F0" stroke-width="9" stroke-linecap="round"/>
<path d="M81.2116 152.883L67.3627 157.118" stroke="#42A0F0" stroke-width="9" stroke-linecap="round"/>
<path d="M117.373 137.947L59.8074 139.963" stroke="#42A0F0" stroke-width="9" stroke-linecap="round"/>
<path d="M103.297 138.325L113.878 147.881" stroke="#42A0F0" stroke-width="9" stroke-linecap="round"/>
<path d="M103.297 138.325L113.173 127.732" stroke="#42A0F0" stroke-width="9" stroke-linecap="round"/>
<path d="M72.5957 139.4L62.7088 149.672" stroke="#42A0F0" stroke-width="9" stroke-linecap="round"/>
<path d="M72.5956 139.4L62.0033 129.524" stroke="#42A0F0" stroke-width="9" stroke-linecap="round"/>
<path d="M149.699 144.974L138.083 171.059" stroke="#42A0F0" stroke-width="6.00313" stroke-linecap="round"/>
<path d="M146.807 151.327L153.365 148.69" stroke="#42A0F0" stroke-width="6.00313" stroke-linecap="round"/>
<path d="M146.807 151.327L144.235 144.624" stroke="#42A0F0" stroke-width="6.00313" stroke-linecap="round"/>
<path d="M140.612 165.239L143.04 171.877" stroke="#42A0F0" stroke-width="6.00313" stroke-linecap="round"/>
<path d="M140.612 165.239L133.91 167.812" stroke="#42A0F0" stroke-width="6.00313" stroke-linecap="round"/>
<path d="M157.98 156.605L129.581 159.588" stroke="#42A0F0" stroke-width="6.00313" stroke-linecap="round"/>
<path d="M151.032 157.278L156.594 161.638" stroke="#42A0F0" stroke-width="6.00313" stroke-linecap="round"/>
<path d="M151.032 157.278L155.55 151.698" stroke="#42A0F0" stroke-width="6.00313" stroke-linecap="round"/>
<path d="M135.886 158.869L131.351 164.29" stroke="#42A0F0" stroke-width="6.00313" stroke-linecap="round"/>
<path d="M135.886 158.869L130.307 154.35" stroke="#42A0F0" stroke-width="6.00313" stroke-linecap="round"/>
<path d="M152.047 169.592L135.264 146.49" stroke="#42A0F0" stroke-width="6.00313" stroke-linecap="round"/>
<path d="M147.991 163.911L146.996 170.909" stroke="#42A0F0" stroke-width="6.00313" stroke-linecap="round"/>
<path d="M147.991 163.911L155.082 165.035" stroke="#42A0F0" stroke-width="6.00313" stroke-linecap="round"/>
<path d="M139.041 151.59L132.078 150.373" stroke="#42A0F0" stroke-width="6.00313" stroke-linecap="round"/>
<path d="M139.04 151.59L140.164 144.499" stroke="#42A0F0" stroke-width="6.00313" stroke-linecap="round"/>
<path d="M60.3199 109.179C85.2248 109.179 105.414 88.8875 105.414 63.8562C105.414 38.8249 85.2248 18.533 60.3199 18.533C35.415 18.533 15.2256 38.8249 15.2256 63.8562C15.2256 88.8875 35.415 109.179 60.3199 109.179Z" fill="#FA9E42"/>
<g filter="url(#filter1_f_498_3700)">
<path d="M57.0614 57.4106C72.0485 49.4503 80.4312 35.9052 75.7845 27.1568C71.1379 18.4084 55.2215 17.7695 40.2343 25.7298C25.2472 33.6902 16.8645 47.2353 21.5112 55.9837C26.1579 64.7321 42.0742 65.371 57.0614 57.4106Z" fill="#F8E36F"/>
</g>
<g filter="url(#filter2_d_498_3700)">
<path d="M145.105 141.684H57.4658C48.964 141.677 40.7944 138.383 34.6671 132.489C28.5398 126.595 24.93 118.56 24.5932 110.065C24.2565 101.569 27.219 93.2735 32.8606 86.9133C38.5022 80.5531 46.3854 76.6218 54.8599 75.9424C56.0684 67.4088 59.922 59.4689 65.8783 53.2396C71.8347 47.0103 79.5942 42.8052 88.0651 41.2158C96.5361 39.6265 105.292 40.7329 113.101 44.3795C120.911 48.026 127.38 54.0291 131.6 61.5443C139.339 58.8652 147.701 58.5522 155.619 60.645C163.537 62.7378 170.652 67.1417 176.056 73.2949C181.461 79.4481 184.91 87.0717 185.964 95.1933C187.019 103.315 185.63 111.567 181.975 118.896C179.83 125.518 175.642 131.29 170.013 135.384C164.384 139.478 157.602 141.684 150.641 141.684H145.105Z" fill="url(#paint0_linear_498_3700)"/>
<path d="M150.641 141.226C154.175 141.226 157.65 140.662 160.969 139.549C164.179 138.473 167.192 136.902 169.925 134.881C172.627 132.883 174.995 130.489 176.964 127.767C178.958 125.011 180.497 121.978 181.539 118.755L181.549 118.722L181.565 118.691C182.95 115.922 184.017 112.993 184.736 109.986C185.475 106.891 185.85 103.693 185.85 100.481C185.85 97.7162 185.572 94.9533 185.023 92.269C184.487 89.6531 183.689 87.0801 182.649 84.6214C181.627 82.2072 180.364 79.8786 178.892 77.7004C177.434 75.5428 175.76 73.5138 173.916 71.6699C172.073 69.826 170.044 68.1519 167.886 66.6943C165.708 65.2227 163.379 63.9588 160.965 62.9377C158.506 61.8977 155.933 61.099 153.317 60.5637C150.633 60.0144 147.87 59.7359 145.105 59.7359C140.527 59.7359 136.034 60.4893 131.749 61.9751L131.388 62.1005L131.2 61.767C127.714 55.5674 122.642 50.3609 116.534 46.7104C113.445 44.8642 110.126 43.4376 106.67 42.4701C103.104 41.472 99.4005 40.9659 95.6617 40.9659C90.6327 40.9659 85.7237 41.871 81.071 43.656C76.5762 45.3804 72.4529 47.8714 68.8156 51.0597C65.1993 54.2297 62.1982 57.9699 59.8957 62.1766C57.5367 66.4866 55.9948 71.1389 55.313 76.0043L55.262 76.3685L54.8953 76.3972C50.7942 76.7182 46.8484 77.798 43.1675 79.6065C39.5909 81.3638 36.3971 83.7407 33.6749 86.6711C28.0813 92.6924 25.0008 100.538 25.0008 108.762C25.0008 113.144 25.8591 117.396 27.5518 121.398C28.3654 123.322 29.3725 125.177 30.545 126.912C31.7064 128.632 33.0403 130.248 34.5095 131.717C35.9787 133.187 37.5953 134.52 39.3144 135.682C41.05 136.854 42.9053 137.861 44.8288 138.675C48.8309 140.368 53.0825 141.226 57.4653 141.226H145.105H150.641ZM150.641 141.684H145.105H57.4653C39.2829 141.684 24.543 126.944 24.543 108.762C24.543 91.4558 37.8948 77.2687 54.8596 75.9408C57.6657 55.9167 74.8641 40.5081 95.6617 40.5081C111.091 40.5081 124.539 48.9882 131.599 61.5426C135.831 60.0752 140.375 59.2781 145.105 59.2781C167.861 59.2781 186.308 77.7254 186.308 100.481C186.308 107.099 184.747 113.354 181.974 118.896C177.701 132.12 165.288 141.684 150.641 141.684Z" fill="white" fill-opacity="0.5"/>
</g>
</g>
<defs>
<filter id="filter0_f_498_3700" x="11.2256" y="14.533" width="179.083" height="164.347" filterUnits="userSpaceOnUse" color-interpolation-filters="sRGB">
<feFlood flood-opacity="0" result="BackgroundImageFix"/>
<feBlend mode="normal" in="SourceGraphic" in2="BackgroundImageFix" result="shape"/>
<feGaussianBlur stdDeviation="2" result="effect1_foregroundBlur_498_3700"/>
</filter>
<filter id="filter1_f_498_3700" x="0.229492" y="0.153564" width="96.8369" height="82.8333" filterUnits="userSpaceOnUse" color-interpolation-filters="sRGB">
<feFlood flood-opacity="0" result="BackgroundImageFix"/>
<feBlend mode="normal" in="SourceGraphic" in2="BackgroundImageFix" result="shape"/>
<feGaussianBlur stdDeviation="10" result="effect1_foregroundBlur_498_3700"/>
</filter>
<filter id="filter2_d_498_3700" x="4.54297" y="12.5081" width="221.765" height="161.176" filterUnits="userSpaceOnUse" color-interpolation-filters="sRGB">
<feFlood flood-opacity="0" result="BackgroundImageFix"/>
<feColorMatrix in="SourceAlpha" type="matrix" values="0 0 0 0 0 0 0 0 0 0 0 0 0 0 0 0 0 0 127 0" result="hardAlpha"/>
<feOffset dx="10" dy="2"/>
<feGaussianBlur stdDeviation="15"/>
<feColorMatrix type="matrix" values="0 0 0 0 0.501961 0 0 0 0 0.501961 0 0 0 0 0.501961 0 0 0 0.302 0"/>
<feBlend mode="normal" in2="BackgroundImageFix" result="effect1_dropShadow_498_3700"/>
<feBlend mode="normal" in="SourceGraphic" in2="effect1_dropShadow_498_3700" result="shape"/>
</filter>
<linearGradient id="paint0_linear_498_3700" x1="105.437" y1="40.509" x2="152.428" y2="154.121" gradientUnits="userSpaceOnUse">
<stop stop-color="white" stop-opacity="0.604"/>
<stop offset="1" stop-color="white" stop-opacity="0.2"/>
</linearGradient>
</defs>
</svg>
