<svg width="231" height="187" viewBox="0 0 231 187" fill="none" xmlns="http://www.w3.org/2000/svg">
<g filter="url(#filter0_f_498_3684)">
<path d="M101.367 103.89H132.531L114.615 130.199L135.562 130.595L91.5956 182.634L102.249 142.959H82.7461L101.367 103.89Z" fill="url(#paint0_linear_498_3684)"/>
<path d="M149.521 131.58H163.204L155.338 143.131L164.535 143.305L145.231 166.153L149.909 148.733H141.348L149.521 131.58Z" fill="url(#paint1_linear_498_3684)"/>
<path d="M54.7548 143.262H68.4374L60.5717 154.813L69.7687 154.987L50.4647 177.835L55.1421 160.415H46.5811L54.7548 143.262Z" fill="url(#paint2_linear_498_3684)"/>
<path d="M60.5367 109.842C85.4416 109.842 105.631 89.5503 105.631 64.519C105.631 39.4877 85.4416 19.1958 60.5367 19.1958C35.6318 19.1958 15.4424 39.4877 15.4424 64.519C15.4424 89.5503 35.6318 109.842 60.5367 109.842Z" fill="#FA9E42"/>
<g filter="url(#filter1_f_498_3684)">
<path d="M57.2782 58.0735C72.2653 50.1131 80.648 36.568 76.0013 27.8196C71.3546 19.0712 55.4383 18.4323 40.4511 26.3927C25.464 34.353 17.0813 47.8981 21.728 56.6466C26.3746 65.395 42.291 66.0338 57.2782 58.0735Z" fill="#F8E36F"/>
</g>
<g filter="url(#filter2_d_498_3684)">
<path d="M148.984 137.769H61.3447C52.843 137.763 44.6733 134.468 38.546 128.574C32.4187 122.68 28.8089 114.645 28.4721 106.15C28.1354 97.6547 31.0979 89.3587 36.7395 82.9985C42.3811 76.6383 50.2643 72.707 58.7388 72.0276C59.9473 63.494 63.8009 55.5541 69.7573 49.3248C75.7136 43.0955 83.4731 38.8904 91.944 37.301C100.415 35.7117 109.171 36.8181 116.98 40.4647C124.79 44.1112 131.259 50.1143 135.479 57.6295C143.218 54.9504 151.58 54.6374 159.498 56.7303C167.416 58.8233 174.531 63.2274 179.936 69.3808C185.341 75.5343 188.79 83.1582 189.844 91.2801C190.897 99.4019 189.508 107.654 185.853 114.983C183.708 121.604 179.52 127.376 173.891 131.47C168.262 135.563 161.48 137.769 154.52 137.769H148.984Z" fill="url(#paint3_linear_498_3684)"/>
<path d="M154.52 137.311C158.054 137.311 161.529 136.747 164.848 135.634C168.057 134.558 171.07 132.987 173.803 130.966C176.505 128.968 178.873 126.575 180.842 123.853C182.836 121.097 184.375 118.065 185.417 114.842L185.428 114.809L185.443 114.777C186.829 112.009 187.896 109.08 188.615 106.072C189.355 102.977 189.73 99.7785 189.73 96.5659C189.73 93.8012 189.451 91.0383 188.902 88.354C188.367 85.7381 187.568 83.1651 186.528 80.7063C185.507 78.2921 184.243 75.9636 182.771 73.7854C181.314 71.6277 179.64 69.5988 177.796 67.7549C175.952 65.9109 173.923 64.2369 171.765 62.7792C169.587 61.3077 167.258 60.0437 164.844 59.0226C162.385 57.9826 159.812 57.1839 157.197 56.6486C154.512 56.0993 151.749 55.8208 148.985 55.8208C144.407 55.8208 139.913 56.5742 135.629 58.0601L135.267 58.1854L135.08 57.8519C131.593 51.6523 126.522 46.4458 120.413 42.7953C117.324 40.9492 114.005 39.5225 110.549 38.555C106.984 37.5569 103.28 37.0508 99.5411 37.0508C94.5121 37.0508 89.6031 37.9559 84.9504 39.7409C80.4556 41.4653 76.3323 43.9563 72.695 47.1446C69.0787 50.3146 66.0776 54.0549 63.7751 58.2616C61.4161 62.5715 59.8742 67.2239 59.1924 72.0893L59.1414 72.4535L58.7747 72.4822C54.6736 72.8032 50.7278 73.883 47.0469 75.6915C43.4703 77.4488 40.2765 79.8257 37.5543 82.7561C31.9607 88.7774 28.8802 96.6226 28.8802 104.847C28.8802 109.229 29.7385 113.481 31.4312 117.483C32.2448 119.407 33.2519 121.262 34.4244 122.997C35.5858 124.717 36.9197 126.333 38.3889 127.802C39.858 129.272 41.4747 130.605 43.1938 131.767C44.9294 132.939 46.7847 133.946 48.7082 134.76C52.7103 136.453 56.9619 137.311 61.3447 137.311H148.985H154.52ZM154.52 137.769H148.985H61.3447C43.1623 137.769 28.4224 123.029 28.4224 104.847C28.4224 87.5408 41.7742 73.3537 58.739 72.0258C61.5451 52.0017 78.7435 36.593 99.5411 36.593C114.97 36.593 128.418 45.0731 135.479 57.6275C139.71 56.1601 144.254 55.363 148.985 55.363C171.74 55.363 190.188 73.8104 190.188 96.5659C190.188 103.186 188.627 109.44 185.853 114.982C181.578 128.205 169.166 137.769 154.52 137.769Z" fill="white" fill-opacity="0.5"/>
</g>
</g>
<defs>
<filter id="filter0_f_498_3684" x="11.4424" y="15.1958" width="182.745" height="171.438" filterUnits="userSpaceOnUse" color-interpolation-filters="sRGB">
<feFlood flood-opacity="0" result="BackgroundImageFix"/>
<feBlend mode="normal" in="SourceGraphic" in2="BackgroundImageFix" result="shape"/>
<feGaussianBlur stdDeviation="2" result="effect1_foregroundBlur_498_3684"/>
</filter>
<filter id="filter1_f_498_3684" x="0.446289" y="0.816406" width="96.8369" height="82.8333" filterUnits="userSpaceOnUse" color-interpolation-filters="sRGB">
<feFlood flood-opacity="0" result="BackgroundImageFix"/>
<feBlend mode="normal" in="SourceGraphic" in2="BackgroundImageFix" result="shape"/>
<feGaussianBlur stdDeviation="10" result="effect1_foregroundBlur_498_3684"/>
</filter>
<filter id="filter2_d_498_3684" x="8.42236" y="8.59302" width="221.765" height="161.176" filterUnits="userSpaceOnUse" color-interpolation-filters="sRGB">
<feFlood flood-opacity="0" result="BackgroundImageFix"/>
<feColorMatrix in="SourceAlpha" type="matrix" values="0 0 0 0 0 0 0 0 0 0 0 0 0 0 0 0 0 0 127 0" result="hardAlpha"/>
<feOffset dx="10" dy="2"/>
<feGaussianBlur stdDeviation="15"/>
<feColorMatrix type="matrix" values="0 0 0 0 0.501961 0 0 0 0 0.501961 0 0 0 0 0.501961 0 0 0 0.302 0"/>
<feBlend mode="normal" in2="BackgroundImageFix" result="effect1_dropShadow_498_3684"/>
<feBlend mode="normal" in="SourceGraphic" in2="effect1_dropShadow_498_3684" result="shape"/>
</filter>
<linearGradient id="paint0_linear_498_3684" x1="104.295" y1="143.262" x2="79.6243" y2="134.218" gradientUnits="userSpaceOnUse">
<stop stop-color="#FFD100"/>
<stop offset="1" stop-color="#FFF0AA"/>
</linearGradient>
<linearGradient id="paint1_linear_498_3684" x1="150.808" y1="148.866" x2="139.977" y2="144.896" gradientUnits="userSpaceOnUse">
<stop stop-color="#FFD100"/>
<stop offset="1" stop-color="#FFF0AA"/>
</linearGradient>
<linearGradient id="paint2_linear_498_3684" x1="56.0416" y1="160.548" x2="45.2104" y2="156.578" gradientUnits="userSpaceOnUse">
<stop stop-color="#FFD100"/>
<stop offset="1" stop-color="#FFF0AA"/>
</linearGradient>
<linearGradient id="paint3_linear_498_3684" x1="109.316" y1="36.5942" x2="156.307" y2="150.206" gradientUnits="userSpaceOnUse">
<stop stop-color="white" stop-opacity="0.604"/>
<stop offset="1" stop-color="white" stop-opacity="0.2"/>
</linearGradient>
</defs>
</svg>
