<svg width="118" height="123" viewBox="0 0 118 123" fill="none" xmlns="http://www.w3.org/2000/svg">
<g filter="url(#filter0_f_498_2776)">
<path d="M59.2739 20.2151L59.2739 109.993" stroke="#42A0F0" stroke-width="10" stroke-linecap="round"/>
<path d="M59.0942 42.1611L74.5559 26.2004" stroke="#42A0F0" stroke-width="10" stroke-linecap="round"/>
<path d="M59.0944 42.1611L43.1338 26.2004" stroke="#42A0F0" stroke-width="10" stroke-linecap="round"/>
<path d="M59.0942 90.0427L74.5559 106.003" stroke="#42A0F0" stroke-width="10" stroke-linecap="round"/>
<path d="M59.0944 90.0425L43.1338 106.003" stroke="#42A0F0" stroke-width="10" stroke-linecap="round"/>
<path d="M97.9341 43.0308L20.1841 87.9198" stroke="#42A0F0" stroke-width="10" stroke-linecap="round"/>
<path d="M78.8388 53.8482L100.392 59.2581" stroke="#42A0F0" stroke-width="10" stroke-linecap="round"/>
<path d="M78.8387 53.8483L84.6807 32.0457" stroke="#42A0F0" stroke-width="10" stroke-linecap="round"/>
<path d="M37.3721 77.7893L31.2806 99.1598" stroke="#42A0F0" stroke-width="10" stroke-linecap="round"/>
<path d="M37.3724 77.7891L15.5698 71.9471" stroke="#42A0F0" stroke-width="10" stroke-linecap="round"/>
<path d="M97.5059 87.9199L19.7558 43.0309" stroke="#42A0F0" stroke-width="10" stroke-linecap="round"/>
<path d="M78.5898 76.7914L84.6813 98.1619" stroke="#42A0F0" stroke-width="10" stroke-linecap="round"/>
<path d="M78.5894 76.7915L100.392 70.9495" stroke="#42A0F0" stroke-width="10" stroke-linecap="round"/>
<path d="M37.123 52.8508L15.5699 58.2607" stroke="#42A0F0" stroke-width="10" stroke-linecap="round"/>
<path d="M37.1232 52.8509L31.2812 31.0482" stroke="#42A0F0" stroke-width="10" stroke-linecap="round"/>
</g>
<g filter="url(#filter1_f_498_2776)">
<path d="M26.3086 2.26001V8.39192" stroke="#42A0F0" stroke-linecap="round"/>
<path d="M26.1758 3.75637L27.1734 3.25781" stroke="#42A0F0" stroke-linecap="round"/>
<path d="M26.1758 3.75612L24.6797 3.25757" stroke="#42A0F0" stroke-linecap="round"/>
<path d="M26.1758 7.24756L27.1734 7.74611" stroke="#42A0F0" stroke-linecap="round"/>
<path d="M26.1758 7.2478L24.6797 7.74636" stroke="#42A0F0" stroke-linecap="round"/>
<path d="M28.9492 3.81836L23.6388 6.88432" stroke="#42A0F0" stroke-linecap="round"/>
<path d="M27.6449 4.55699L29.117 4.92663" stroke="#42A0F0" stroke-linecap="round"/>
<path d="M27.645 4.55715L28.0439 3.06812" stroke="#42A0F0" stroke-linecap="round"/>
<path d="M24.8125 6.19238L24.3966 7.65207" stroke="#42A0F0" stroke-linecap="round"/>
<path d="M24.8121 6.1923L23.3231 5.79331" stroke="#42A0F0" stroke-linecap="round"/>
<path d="M28.9194 6.88452L23.609 3.81857" stroke="#42A0F0" stroke-linecap="round"/>
<path d="M27.6278 6.12417L28.0437 7.58386" stroke="#42A0F0" stroke-linecap="round"/>
<path d="M27.6277 6.12433L29.1167 5.72534" stroke="#42A0F0" stroke-linecap="round"/>
<path d="M24.7954 4.48926L23.3233 4.8589" stroke="#42A0F0" stroke-linecap="round"/>
<path d="M24.7953 4.48917L24.3963 3.00014" stroke="#42A0F0" stroke-linecap="round"/>
</g>
<g filter="url(#filter2_f_498_2776)">
<path d="M110.905 15.8359V26.3473" stroke="#42A0F0" stroke-linecap="round"/>
<path d="M110.467 18.2197L112.462 17.7212" stroke="#42A0F0" stroke-linecap="round"/>
<path d="M110.467 18.22L107.974 17.7214" stroke="#42A0F0" stroke-linecap="round"/>
<path d="M110.467 24.2056L112.462 25.2031" stroke="#42A0F0" stroke-linecap="round"/>
<path d="M110.467 24.2056L107.974 25.2031" stroke="#42A0F0" stroke-linecap="round"/>
<path d="M115.432 18.5071L106.329 23.7627" stroke="#42A0F0" stroke-linecap="round"/>
<path d="M113.196 19.774L115.72 20.4073" stroke="#42A0F0" stroke-linecap="round"/>
<path d="M113.196 19.774L113.88 17.2212" stroke="#42A0F0" stroke-linecap="round"/>
<path d="M108.341 22.5764L107.627 25.0785" stroke="#42A0F0" stroke-linecap="round"/>
<path d="M108.341 22.5767L105.788 21.8926" stroke="#42A0F0" stroke-linecap="round"/>
<path d="M115.381 23.7634L106.278 18.5078" stroke="#42A0F0" stroke-linecap="round"/>
<path d="M113.166 22.4601L113.88 24.9622" stroke="#42A0F0" stroke-linecap="round"/>
<path d="M113.166 22.4604L115.719 21.7764" stroke="#42A0F0" stroke-linecap="round"/>
<path d="M108.311 19.6572L105.788 20.2905" stroke="#42A0F0" stroke-linecap="round"/>
<path d="M108.311 19.6572L107.627 17.1044" stroke="#42A0F0" stroke-linecap="round"/>
</g>
<g filter="url(#filter3_f_498_2776)">
<path d="M104.43 93.1443V101.774" stroke="#42A0F0" stroke-linecap="round"/>
<path d="M103.983 95.0298L105.479 94.5312" stroke="#42A0F0" stroke-linecap="round"/>
<path d="M103.983 95.0298L101.988 94.5312" stroke="#42A0F0" stroke-linecap="round"/>
<path d="M103.983 100.018L105.479 101.015" stroke="#42A0F0" stroke-linecap="round"/>
<path d="M103.983 100.018L101.988 101.015" stroke="#42A0F0" stroke-linecap="round"/>
<path d="M108.146 95.3381L100.673 99.653" stroke="#42A0F0" stroke-linecap="round"/>
<path d="M106.311 96.3777L108.383 96.8976" stroke="#42A0F0" stroke-linecap="round"/>
<path d="M106.311 96.3776L106.873 94.282" stroke="#42A0F0" stroke-linecap="round"/>
<path d="M102.325 98.679L101.74 100.733" stroke="#42A0F0" stroke-linecap="round"/>
<path d="M102.325 98.6789L100.23 98.1174" stroke="#42A0F0" stroke-linecap="round"/>
<path d="M108.105 99.6528L100.632 95.338" stroke="#42A0F0" stroke-linecap="round"/>
<path d="M106.287 98.583L106.873 100.637" stroke="#42A0F0" stroke-linecap="round"/>
<path d="M106.287 98.583L108.383 98.0215" stroke="#42A0F0" stroke-linecap="round"/>
<path d="M102.302 96.2815L100.23 96.8014" stroke="#42A0F0" stroke-linecap="round"/>
<path d="M102.301 96.2815L101.74 94.1858" stroke="#42A0F0" stroke-linecap="round"/>
</g>
<g filter="url(#filter4_f_498_2776)">
<path d="M33.564 113.096V120.698" stroke="#42A0F0" stroke-linecap="round"/>
<path d="M33.1582 114.981L34.6543 114.483" stroke="#42A0F0" stroke-linecap="round"/>
<path d="M33.1582 114.981L31.6621 114.483" stroke="#42A0F0" stroke-linecap="round"/>
<path d="M33.1582 118.972L34.6543 119.969" stroke="#42A0F0" stroke-linecap="round"/>
<path d="M33.1582 118.971L31.6621 119.969" stroke="#42A0F0" stroke-linecap="round"/>
<path d="M36.8374 115.028L30.2539 118.829" stroke="#42A0F0" stroke-linecap="round"/>
<path d="M35.2207 115.944L37.0458 116.402" stroke="#42A0F0" stroke-linecap="round"/>
<path d="M35.2207 115.944L35.7153 114.098" stroke="#42A0F0" stroke-linecap="round"/>
<path d="M31.7095 117.971L31.1937 119.781" stroke="#42A0F0" stroke-linecap="round"/>
<path d="M31.7094 117.971L29.8633 117.476" stroke="#42A0F0" stroke-linecap="round"/>
<path d="M36.8013 118.829L30.2178 115.028" stroke="#42A0F0" stroke-linecap="round"/>
<path d="M35.1997 117.887L35.7154 119.696" stroke="#42A0F0" stroke-linecap="round"/>
<path d="M35.1998 117.887L37.0459 117.392" stroke="#42A0F0" stroke-linecap="round"/>
<path d="M31.6885 115.859L29.8634 116.317" stroke="#42A0F0" stroke-linecap="round"/>
<path d="M31.6885 115.859L31.1939 114.013" stroke="#42A0F0" stroke-linecap="round"/>
</g>
<g filter="url(#filter5_f_498_2776)">
<path d="M4.87939 81.1736V87.3394" stroke="#42A0F0" stroke-linecap="round"/>
<path d="M4.72852 82.5606L5.72608 82.062" stroke="#42A0F0" stroke-linecap="round"/>
<path d="M4.72855 82.5603L3.23242 82.0618" stroke="#42A0F0" stroke-linecap="round"/>
<path d="M4.72852 86.0513L5.72608 86.5498" stroke="#42A0F0" stroke-linecap="round"/>
<path d="M4.72855 86.0515L3.23242 86.5501" stroke="#42A0F0" stroke-linecap="round"/>
<path d="M7.53369 82.7405L2.19396 85.8234" stroke="#42A0F0" stroke-linecap="round"/>
<path d="M6.22222 83.4831L7.70222 83.8545" stroke="#42A0F0" stroke-linecap="round"/>
<path d="M6.22237 83.4832L6.62354 81.9861" stroke="#42A0F0" stroke-linecap="round"/>
<path d="M3.37451 85.1279L2.95618 86.5954" stroke="#42A0F0" stroke-linecap="round"/>
<path d="M3.37466 85.1279L1.8775 84.7267" stroke="#42A0F0" stroke-linecap="round"/>
<path d="M7.50439 85.8235L2.16466 82.7406" stroke="#42A0F0" stroke-linecap="round"/>
<path d="M6.20562 85.0589L6.62395 86.5264" stroke="#42A0F0" stroke-linecap="round"/>
<path d="M6.20548 85.0591L7.70264 84.658" stroke="#42A0F0" stroke-linecap="round"/>
<path d="M3.35742 83.415L1.87743 83.7865" stroke="#42A0F0" stroke-linecap="round"/>
<path d="M3.35727 83.415L2.95611 81.9178" stroke="#42A0F0" stroke-linecap="round"/>
</g>
<defs>
<filter id="filter0_f_498_2776" x="6.56836" y="11.2151" width="102.825" height="107.778" filterUnits="userSpaceOnUse" color-interpolation-filters="sRGB">
<feFlood flood-opacity="0" result="BackgroundImageFix"/>
<feBlend mode="normal" in="SourceGraphic" in2="BackgroundImageFix" result="shape"/>
<feGaussianBlur stdDeviation="2" result="effect1_foregroundBlur_498_2776"/>
</filter>
<filter id="filter1_f_498_2776" x="21.8228" y="0.76001" width="8.79443" height="9.13184" filterUnits="userSpaceOnUse" color-interpolation-filters="sRGB">
<feFlood flood-opacity="0" result="BackgroundImageFix"/>
<feBlend mode="normal" in="SourceGraphic" in2="BackgroundImageFix" result="shape"/>
<feGaussianBlur stdDeviation="0.5" result="effect1_foregroundBlur_498_2776"/>
</filter>
<filter id="filter2_f_498_2776" x="104.288" y="14.3359" width="12.9321" height="13.5112" filterUnits="userSpaceOnUse" color-interpolation-filters="sRGB">
<feFlood flood-opacity="0" result="BackgroundImageFix"/>
<feBlend mode="normal" in="SourceGraphic" in2="BackgroundImageFix" result="shape"/>
<feGaussianBlur stdDeviation="0.5" result="effect1_foregroundBlur_498_2776"/>
</filter>
<filter id="filter3_f_498_2776" x="98.7295" y="91.6443" width="11.1533" height="11.6296" filterUnits="userSpaceOnUse" color-interpolation-filters="sRGB">
<feFlood flood-opacity="0" result="BackgroundImageFix"/>
<feBlend mode="normal" in="SourceGraphic" in2="BackgroundImageFix" result="shape"/>
<feGaussianBlur stdDeviation="0.5" result="effect1_foregroundBlur_498_2776"/>
</filter>
<filter id="filter4_f_498_2776" x="28.3633" y="111.596" width="10.1826" height="10.6021" filterUnits="userSpaceOnUse" color-interpolation-filters="sRGB">
<feFlood flood-opacity="0" result="BackgroundImageFix"/>
<feBlend mode="normal" in="SourceGraphic" in2="BackgroundImageFix" result="shape"/>
<feGaussianBlur stdDeviation="0.5" result="effect1_foregroundBlur_498_2776"/>
</filter>
<filter id="filter5_f_498_2776" x="0.377441" y="79.6736" width="8.8252" height="9.16577" filterUnits="userSpaceOnUse" color-interpolation-filters="sRGB">
<feFlood flood-opacity="0" result="BackgroundImageFix"/>
<feBlend mode="normal" in="SourceGraphic" in2="BackgroundImageFix" result="shape"/>
<feGaussianBlur stdDeviation="0.5" result="effect1_foregroundBlur_498_2776"/>
</filter>
</defs>
</svg>
