<svg width="227" height="177" viewBox="0 0 227 177" fill="none" xmlns="http://www.w3.org/2000/svg">
<g filter="url(#filter0_f_498_4022)">
<path d="M60.4691 109.179C85.374 109.179 105.563 88.8875 105.563 63.8562C105.563 38.8249 85.374 18.533 60.4691 18.533C35.5642 18.533 15.3748 38.8249 15.3748 63.8562C15.3748 88.8875 35.5642 109.179 60.4691 109.179Z" fill="#FA9E42"/>
<g filter="url(#filter1_f_498_4022)">
<path d="M57.2106 57.4106C72.1977 49.4503 80.5804 35.9052 75.9337 27.1568C71.287 18.4084 55.3707 17.7695 40.3835 25.7298C25.3963 33.6902 17.0137 47.2353 21.6604 55.9837C26.307 64.7321 42.2234 65.371 57.2106 57.4106Z" fill="#F8E36F"/>
</g>
<path d="M157.824 109.432C157.824 109.432 149.234 117.165 142.521 116.909C134.105 116.581 132.664 109.841 124.866 109.432C116.704 109.513 115.871 116.504 107.024 116.909C99.0966 116.815 95.7386 109.558 88.1829 109.432C80.6272 109.306 72.5715 116.909 72.5715 116.909" stroke="white" stroke-width="20" stroke-linecap="round"/>
<path d="M128.524 134.154C128.524 134.154 119.934 141.887 113.221 141.631C104.805 141.303 103.364 134.563 95.5658 134.154C87.4035 134.235 86.5707 141.225 77.7235 141.631C69.7966 141.537 66.4385 134.28 58.8828 134.154C51.3271 134.027 43.2715 141.631 43.2715 141.631" stroke="white" stroke-width="20" stroke-linecap="round"/>
<path d="M173.389 155.213C173.389 155.213 164.8 162.946 158.086 162.69C149.671 162.362 148.23 155.622 140.431 155.213C132.269 155.294 131.436 162.285 122.589 162.69C114.662 162.596 111.304 155.339 103.748 155.213C96.1926 155.087 88.137 162.69 88.137 162.69" stroke="white" stroke-width="20" stroke-linecap="round"/>
<g filter="url(#filter2_d_498_4022)">
<path d="M145.254 141.306H57.6145C49.1127 141.3 40.9431 138.005 34.8158 132.111C28.6885 126.217 25.0786 118.182 24.7419 109.687C24.4052 101.192 27.3677 92.8955 33.0093 86.5353C38.6508 80.1751 46.5341 76.2439 55.0086 75.5645C56.2171 67.0309 60.0706 59.0909 66.027 52.8616C71.9834 46.6324 79.7429 42.4272 88.2138 40.8379C96.6848 39.2486 105.441 40.355 113.25 44.0015C121.059 47.6481 127.529 53.6512 131.749 61.1663C139.488 58.4872 147.85 58.1742 155.768 60.2672C163.686 62.3602 170.801 66.7643 176.206 72.9177C181.61 79.0712 185.06 86.6951 186.113 94.8169C187.167 102.939 185.778 111.19 182.122 118.519C179.977 125.141 175.79 130.913 170.161 135.007C164.531 139.1 157.75 141.306 150.79 141.306H145.254Z" fill="url(#paint0_linear_498_4022)"/>
<path d="M150.79 140.848C154.324 140.848 157.799 140.284 161.118 139.171C164.327 138.095 167.34 136.524 170.073 134.503C172.775 132.505 175.143 130.112 177.112 127.39C179.106 124.634 180.645 121.602 181.687 118.378L181.698 118.345L181.713 118.314C183.099 115.546 184.166 112.616 184.885 109.609C185.624 106.514 186 103.315 186 100.103C186 97.338 185.721 94.5751 185.172 91.8908C184.636 89.275 183.838 86.702 182.798 84.2432C181.777 81.829 180.513 79.5004 179.041 77.3222C177.583 75.1646 175.909 73.1357 174.065 71.2917C172.222 69.4478 170.193 67.7738 168.035 66.3161C165.857 64.8445 163.528 63.5806 161.114 62.5595C158.655 61.5195 156.082 60.7208 153.466 60.1855C150.782 59.6362 148.019 59.3577 145.254 59.3577C140.676 59.3577 136.183 60.1111 131.899 61.5969L131.537 61.7223L131.35 61.3888C127.863 55.1892 122.791 49.9827 116.683 46.3322C113.594 44.4861 110.275 43.0594 106.819 42.0919C103.253 41.0938 99.5497 40.5877 95.8109 40.5877C90.7819 40.5877 85.8729 41.4928 81.2201 43.2778C76.7253 45.0022 72.6021 47.4932 68.9648 50.6815C65.3484 53.8515 62.3474 57.5918 60.0449 61.7984C57.6858 66.1084 56.144 70.7607 55.4622 75.6262L55.4111 75.9904L55.0445 76.0191C50.9433 76.3401 46.9975 77.4198 43.3167 79.2284C39.7401 80.9857 36.5463 83.3625 33.8241 86.2929C28.2305 92.3143 25.1499 100.159 25.1499 108.383C25.1499 112.766 26.0082 117.018 27.701 121.02C28.5146 122.943 29.5216 124.799 30.6941 126.534C31.8556 128.253 33.1894 129.87 34.6586 131.339C36.1278 132.808 37.7445 134.142 39.4636 135.304C41.1992 136.476 43.0545 137.483 44.978 138.297C48.9801 139.99 53.2316 140.848 57.6145 140.848H145.254H150.79ZM150.79 141.306H145.254H57.6145C39.4321 141.306 24.6921 126.566 24.6921 108.383C24.6921 91.0776 38.044 76.8906 55.0088 75.5626C57.8149 55.5386 75.0133 40.1299 95.8109 40.1299C111.24 40.1299 124.688 48.61 131.749 61.1644C135.98 59.697 140.524 58.8999 145.254 58.8999C168.01 58.8999 186.457 77.3473 186.457 100.103C186.457 106.722 184.896 112.977 182.123 118.519C177.848 131.742 165.436 141.306 150.79 141.306Z" fill="white" fill-opacity="0.5"/>
</g>
</g>
<defs>
<filter id="filter0_f_498_4022" x="11.3748" y="14.533" width="179.083" height="162.164" filterUnits="userSpaceOnUse" color-interpolation-filters="sRGB">
<feFlood flood-opacity="0" result="BackgroundImageFix"/>
<feBlend mode="normal" in="SourceGraphic" in2="BackgroundImageFix" result="shape"/>
<feGaussianBlur stdDeviation="2" result="effect1_foregroundBlur_498_4022"/>
</filter>
<filter id="filter1_f_498_4022" x="0.378418" y="0.153564" width="96.8372" height="82.8333" filterUnits="userSpaceOnUse" color-interpolation-filters="sRGB">
<feFlood flood-opacity="0" result="BackgroundImageFix"/>
<feBlend mode="normal" in="SourceGraphic" in2="BackgroundImageFix" result="shape"/>
<feGaussianBlur stdDeviation="10" result="effect1_foregroundBlur_498_4022"/>
</filter>
<filter id="filter2_d_498_4022" x="4.69214" y="12.1299" width="221.765" height="161.176" filterUnits="userSpaceOnUse" color-interpolation-filters="sRGB">
<feFlood flood-opacity="0" result="BackgroundImageFix"/>
<feColorMatrix in="SourceAlpha" type="matrix" values="0 0 0 0 0 0 0 0 0 0 0 0 0 0 0 0 0 0 127 0" result="hardAlpha"/>
<feOffset dx="10" dy="2"/>
<feGaussianBlur stdDeviation="15"/>
<feColorMatrix type="matrix" values="0 0 0 0 0.501961 0 0 0 0 0.501961 0 0 0 0 0.501961 0 0 0 0.302 0"/>
<feBlend mode="normal" in2="BackgroundImageFix" result="effect1_dropShadow_498_4022"/>
<feBlend mode="normal" in="SourceGraphic" in2="effect1_dropShadow_498_4022" result="shape"/>
</filter>
<linearGradient id="paint0_linear_498_4022" x1="105.586" y1="40.1311" x2="152.577" y2="153.743" gradientUnits="userSpaceOnUse">
<stop stop-color="white" stop-opacity="0.604"/>
<stop offset="1" stop-color="white" stop-opacity="0.2"/>
</linearGradient>
</defs>
</svg>
