<svg width="227" height="187" viewBox="0 0 227 187" fill="none" xmlns="http://www.w3.org/2000/svg">
<g filter="url(#filter0_f_498_3895)">
<path d="M60.3099 109.384C85.2148 109.384 105.404 89.0926 105.404 64.0613C105.404 39.0299 85.2148 18.738 60.3099 18.738C35.405 18.738 15.2156 39.0299 15.2156 64.0613C15.2156 89.0926 35.405 109.384 60.3099 109.384Z" fill="#FA9E42"/>
<g filter="url(#filter1_f_498_3895)">
<path d="M57.0514 57.6155C72.0385 49.6551 80.4212 36.11 75.7745 27.3616C71.1278 18.6132 55.2115 17.9743 40.2243 25.9347C25.2371 33.895 16.8545 47.4401 21.5012 56.1885C26.1478 64.937 42.0642 65.5758 57.0514 57.6155Z" fill="#F8E36F"/>
</g>
<path d="M85.7021 107.846C87.4935 107.866 105.669 136.244 105.669 147.271C105.669 152.566 103.565 157.645 99.8205 161.389C96.0761 165.134 90.9975 167.237 85.7021 167.237C80.4066 167.237 75.3281 165.134 71.5836 161.389C67.8392 157.645 65.7356 152.566 65.7356 147.271C65.7356 136.244 83.9107 107.827 85.7021 107.846Z" fill="#42A0F0"/>
<path d="M70.4783 154.734C72.4734 155.344 75.009 152.835 76.1418 149.13C77.2746 145.425 76.5756 141.927 74.5806 141.317C72.5856 140.707 70.0499 143.216 68.9171 146.921C67.7843 150.626 68.4833 154.125 70.4783 154.734Z" fill="white"/>
<path d="M132.74 145.268C133.869 145.282 145.321 163.161 145.321 170.11C145.301 173.433 143.967 176.614 141.609 178.957C139.252 181.3 136.064 182.615 132.74 182.615C129.416 182.615 126.228 181.3 123.871 178.957C121.514 176.614 120.179 173.433 120.159 170.11C120.159 163.161 131.611 145.256 132.74 145.268Z" fill="#42A0F0"/>
<path d="M123.148 174.812C124.405 175.196 126.003 173.615 126.717 171.281C127.43 168.946 126.99 166.742 125.733 166.358C124.476 165.974 122.878 167.555 122.164 169.889C121.45 172.224 121.891 174.428 123.148 174.812Z" fill="white"/>
<g filter="url(#filter2_d_498_3895)">
<path d="M145.095 141.053H57.4553C48.9535 141.047 40.7839 137.752 34.6566 131.858C28.5293 125.964 24.9195 117.929 24.5827 109.434C24.246 100.939 27.2085 92.6426 32.8501 86.2824C38.4917 79.9222 46.3749 75.9909 54.8494 75.3115C56.0579 66.778 59.9115 58.838 65.8678 52.6087C71.8242 46.3794 79.5837 42.1743 88.0546 40.585C96.5256 38.9956 105.282 40.1021 113.091 43.7486C120.9 47.3951 127.37 53.3983 131.589 60.9134C139.329 58.2344 147.69 57.9213 155.608 60.0141C163.526 62.107 170.641 66.5108 176.046 72.664C181.451 78.8172 184.9 86.4408 185.954 94.5625C187.008 102.684 185.619 110.936 181.964 118.265C179.819 124.887 175.632 130.659 170.003 134.753C164.373 138.847 157.591 141.053 150.631 141.053H145.095Z" fill="url(#paint0_linear_498_3895)"/>
<path d="M150.631 140.595C154.165 140.595 157.64 140.03 160.959 138.917C164.169 137.841 167.182 136.271 169.915 134.249C172.617 132.251 174.985 129.858 176.954 127.136C178.948 124.379 180.487 121.347 181.529 118.123L181.539 118.09L181.555 118.059C182.94 115.291 184.007 112.362 184.726 109.354C185.465 106.259 185.84 103.061 185.84 99.8496C185.84 97.0849 185.562 94.322 185.013 91.6376C184.477 89.0218 183.679 86.4488 182.639 83.99C181.617 81.5758 180.354 79.2473 178.882 77.0691C177.424 74.9114 175.75 72.8825 173.906 71.0386C172.063 69.1946 170.034 67.5206 167.876 66.0629C165.698 64.5914 163.369 63.3274 160.955 62.3063C158.496 61.2663 155.923 60.4676 153.307 59.9323C150.623 59.383 147.86 59.1045 145.095 59.1045C140.517 59.1045 136.024 59.8579 131.739 61.3438L131.378 61.4692L131.19 61.1357C127.704 54.9361 122.632 49.7296 116.524 46.0791C113.435 44.2329 110.116 42.8063 106.66 41.8388C103.094 40.8406 99.3905 40.3345 95.6517 40.3345C90.6227 40.3345 85.7137 41.2396 81.061 43.0246C76.5662 44.749 72.4429 47.24 68.8056 50.4283C65.1893 53.5983 62.1882 57.3386 59.8857 61.5452C57.5267 65.8552 55.9848 70.5076 55.303 75.373L55.252 75.7372L54.8853 75.7659C50.7842 76.0869 46.8384 77.1667 43.1575 78.9752C39.5809 80.7325 36.3871 83.1094 33.6649 86.0397C28.0713 92.0611 24.9908 99.9063 24.9908 108.13C24.9908 112.513 25.8491 116.765 27.5418 120.767C28.3554 122.69 29.3625 124.546 30.535 126.281C31.6964 128 33.0303 129.617 34.4994 131.086C35.9686 132.555 37.5853 133.889 39.3044 135.051C41.04 136.223 42.8953 137.23 44.8188 138.044C48.8209 139.736 53.0725 140.595 57.4553 140.595H145.095H150.631ZM150.631 141.053H145.095H57.4553C39.2729 141.053 24.533 126.313 24.533 108.13C24.533 90.8245 37.8848 76.6374 54.8496 75.3095C57.6557 55.2854 74.8541 39.8767 95.6517 39.8767C111.081 39.8767 124.529 48.3568 131.589 60.9113C135.821 59.4438 140.365 58.6467 145.095 58.6467C167.851 58.6467 186.298 77.0941 186.298 99.8496C186.298 106.468 184.737 112.723 181.964 118.264C177.691 131.488 165.278 141.053 150.631 141.053Z" fill="white" fill-opacity="0.5"/>
</g>
</g>
<defs>
<filter id="filter0_f_498_3895" x="11.2156" y="14.738" width="179.083" height="171.877" filterUnits="userSpaceOnUse" color-interpolation-filters="sRGB">
<feFlood flood-opacity="0" result="BackgroundImageFix"/>
<feBlend mode="normal" in="SourceGraphic" in2="BackgroundImageFix" result="shape"/>
<feGaussianBlur stdDeviation="2" result="effect1_foregroundBlur_498_3895"/>
</filter>
<filter id="filter1_f_498_3895" x="0.219238" y="0.358398" width="96.8372" height="82.8333" filterUnits="userSpaceOnUse" color-interpolation-filters="sRGB">
<feFlood flood-opacity="0" result="BackgroundImageFix"/>
<feBlend mode="normal" in="SourceGraphic" in2="BackgroundImageFix" result="shape"/>
<feGaussianBlur stdDeviation="10" result="effect1_foregroundBlur_498_3895"/>
</filter>
<filter id="filter2_d_498_3895" x="4.53296" y="11.8767" width="221.765" height="161.177" filterUnits="userSpaceOnUse" color-interpolation-filters="sRGB">
<feFlood flood-opacity="0" result="BackgroundImageFix"/>
<feColorMatrix in="SourceAlpha" type="matrix" values="0 0 0 0 0 0 0 0 0 0 0 0 0 0 0 0 0 0 127 0" result="hardAlpha"/>
<feOffset dx="10" dy="2"/>
<feGaussianBlur stdDeviation="15"/>
<feColorMatrix type="matrix" values="0 0 0 0 0.501961 0 0 0 0 0.501961 0 0 0 0 0.501961 0 0 0 0.302 0"/>
<feBlend mode="normal" in2="BackgroundImageFix" result="effect1_dropShadow_498_3895"/>
<feBlend mode="normal" in="SourceGraphic" in2="effect1_dropShadow_498_3895" result="shape"/>
</filter>
<linearGradient id="paint0_linear_498_3895" x1="105.427" y1="39.8782" x2="152.418" y2="153.49" gradientUnits="userSpaceOnUse">
<stop stop-color="white" stop-opacity="0.604"/>
<stop offset="1" stop-color="white" stop-opacity="0.2"/>
</linearGradient>
</defs>
</svg>
