<svg width="227" height="183" viewBox="0 0 227 183" fill="none" xmlns="http://www.w3.org/2000/svg">
<g filter="url(#filter0_f_498_3671)">
<path d="M74.6606 130.695C74.6606 130.695 137.421 131.297 151.01 127.351C164.598 123.404 164.581 102.923 151.01 97.874C137.439 92.8253 132.801 110.872 132.801 110.872" stroke="#D0D0D0" stroke-width="20" stroke-linecap="round"/>
<path d="M54.0698 151.762C54.0698 151.762 100.129 147.601 120.434 151.762C140.74 155.924 134.274 167.862 124.651 168.408C115.028 168.954 106.148 162.63 106.148 162.63" stroke="#D0D0D0" stroke-width="20" stroke-linecap="round"/>
<path d="M152.104 151.732H170.416" stroke="#D0D0D0" stroke-width="20" stroke-linecap="round"/>
<path d="M60.2222 109.842C85.1272 109.842 105.317 89.5503 105.317 64.519C105.317 39.4877 85.1272 19.1958 60.2222 19.1958C35.3173 19.1958 15.1279 39.4877 15.1279 64.519C15.1279 89.5503 35.3173 109.842 60.2222 109.842Z" fill="#FA9E42"/>
<g filter="url(#filter1_f_498_3671)">
<path d="M56.9637 58.0735C71.9509 50.1131 80.3335 36.568 75.6869 27.8196C71.0402 19.0712 55.1238 18.4323 40.1367 26.3927C25.1495 34.353 16.7669 47.8981 21.4135 56.6466C26.0602 65.395 41.9766 66.0338 56.9637 58.0735Z" fill="#F8E36F"/>
</g>
<g filter="url(#filter2_d_498_3671)">
<path d="M145.007 140.516H57.3676C48.8659 140.509 40.6963 137.214 34.569 131.321C28.4417 125.427 24.8318 117.391 24.4951 108.896C24.1584 100.401 27.1209 92.1053 32.7625 85.7451C38.404 79.3849 46.2872 75.4536 54.7618 74.7742C55.9703 66.2406 59.8238 58.3006 65.7802 52.0714C71.7366 45.8421 79.4961 41.637 87.967 40.0476C96.4379 38.4583 105.194 39.5647 113.003 43.2113C120.813 46.8578 127.282 52.8609 131.502 60.3761C139.241 57.697 147.603 57.3839 155.521 59.4769C163.439 61.5699 170.554 65.974 175.959 72.1274C181.363 78.2809 184.813 85.9048 185.866 94.0266C186.92 102.149 185.531 110.4 181.876 117.729C179.73 124.351 175.543 130.122 169.914 134.216C164.285 138.31 157.503 140.515 150.543 140.516H145.007Z" fill="url(#paint0_linear_498_3671)"/>
<path d="M150.543 140.058C154.077 140.058 157.552 139.493 160.871 138.38C164.08 137.304 167.093 135.734 169.826 133.713C172.528 131.715 174.896 129.321 176.865 126.599C178.859 123.843 180.398 120.812 181.44 117.588L181.451 117.555L181.466 117.524C182.852 114.755 183.919 111.826 184.638 108.818C185.378 105.723 185.753 102.525 185.753 99.3125C185.753 96.5478 185.474 93.7848 184.925 91.1005C184.39 88.4847 183.591 85.9117 182.551 83.4529C181.53 81.0387 180.266 78.7101 178.794 76.5319C177.337 74.3743 175.663 72.3454 173.819 70.5015C171.975 68.6575 169.946 66.9835 167.788 65.5258C165.61 64.0542 163.281 62.7903 160.867 61.7692C158.408 60.7292 155.835 59.9305 153.22 59.3952C150.535 58.8459 147.772 58.5674 145.008 58.5674C140.43 58.5674 135.936 59.3208 131.652 60.8066L131.29 60.932L131.103 60.5985C127.616 54.3989 122.545 49.1924 116.436 45.5419C113.347 43.6958 110.028 42.2691 106.572 41.3016C103.007 40.3035 99.3028 39.7974 95.564 39.7974C90.5351 39.7974 85.6261 40.7025 80.9733 42.4875C76.4785 44.2119 72.3552 46.7029 68.718 49.8912C65.1016 53.0612 62.1005 56.8015 59.798 61.0081C57.439 65.3181 55.8972 69.9704 55.2153 74.8359L55.1643 75.2001L54.7977 75.2288C50.6965 75.5498 46.7507 76.6296 43.0698 78.4381C39.4932 80.1954 36.2995 82.5723 33.5773 85.5026C27.9837 91.524 24.9031 99.3692 24.9031 107.593C24.9031 111.976 25.7614 116.227 27.4542 120.23C28.2678 122.153 29.2748 124.008 30.4473 125.744C31.6088 127.463 32.9426 129.08 34.4118 130.549C35.881 132.018 37.4977 133.352 39.2168 134.513C40.9523 135.686 42.8076 136.693 44.7312 137.507C48.7333 139.199 52.9848 140.058 57.3677 140.058H145.008H150.543ZM150.543 140.515H145.008H57.3677C39.1852 140.515 24.4453 125.776 24.4453 107.593C24.4453 90.2874 37.7972 76.1003 54.762 74.7724C57.5681 54.7483 74.7664 39.3396 95.564 39.3396C110.993 39.3396 124.441 47.8197 131.502 60.3741C135.733 58.9067 140.277 58.1096 145.008 58.1096C167.763 58.1096 186.21 76.557 186.21 99.3125C186.21 105.932 184.65 112.187 181.876 117.729C177.601 130.952 165.189 140.515 150.543 140.515Z" fill="white" fill-opacity="0.5"/>
</g>
</g>
<defs>
<filter id="filter0_f_498_3671" x="11.1279" y="15.1958" width="179.083" height="167.246" filterUnits="userSpaceOnUse" color-interpolation-filters="sRGB">
<feFlood flood-opacity="0" result="BackgroundImageFix"/>
<feBlend mode="normal" in="SourceGraphic" in2="BackgroundImageFix" result="shape"/>
<feGaussianBlur stdDeviation="2" result="effect1_foregroundBlur_498_3671"/>
</filter>
<filter id="filter1_f_498_3671" x="0.131836" y="0.816406" width="96.8369" height="82.8333" filterUnits="userSpaceOnUse" color-interpolation-filters="sRGB">
<feFlood flood-opacity="0" result="BackgroundImageFix"/>
<feBlend mode="normal" in="SourceGraphic" in2="BackgroundImageFix" result="shape"/>
<feGaussianBlur stdDeviation="10" result="effect1_foregroundBlur_498_3671"/>
</filter>
<filter id="filter2_d_498_3671" x="4.44531" y="11.3396" width="221.765" height="161.176" filterUnits="userSpaceOnUse" color-interpolation-filters="sRGB">
<feFlood flood-opacity="0" result="BackgroundImageFix"/>
<feColorMatrix in="SourceAlpha" type="matrix" values="0 0 0 0 0 0 0 0 0 0 0 0 0 0 0 0 0 0 127 0" result="hardAlpha"/>
<feOffset dx="10" dy="2"/>
<feGaussianBlur stdDeviation="15"/>
<feColorMatrix type="matrix" values="0 0 0 0 0.501961 0 0 0 0 0.501961 0 0 0 0 0.501961 0 0 0 0.302 0"/>
<feBlend mode="normal" in2="BackgroundImageFix" result="effect1_dropShadow_498_3671"/>
<feBlend mode="normal" in="SourceGraphic" in2="effect1_dropShadow_498_3671" result="shape"/>
</filter>
<linearGradient id="paint0_linear_498_3671" x1="105.339" y1="39.3408" x2="152.33" y2="152.953" gradientUnits="userSpaceOnUse">
<stop stop-color="white" stop-opacity="0.604"/>
<stop offset="1" stop-color="white" stop-opacity="0.2"/>
</linearGradient>
</defs>
</svg>
