<svg width="228" height="180" viewBox="0 0 228 180" fill="none" xmlns="http://www.w3.org/2000/svg">
<g filter="url(#filter0_f_498_4565)">
<path d="M118.408 127.005C118.408 127.005 150.513 127.994 163.286 124.284C176.874 120.338 176.856 99.8566 163.286 94.8078C149.715 89.7591 145.077 107.806 145.077 107.806" stroke="#D0D0D0" stroke-width="20" stroke-linecap="round"/>
<path d="M98.585 146.994C98.585 146.994 112.405 144.535 132.711 148.696C153.016 152.857 146.55 164.796 136.927 165.342C127.304 165.888 118.424 159.564 118.424 159.564" stroke="#D0D0D0" stroke-width="20" stroke-linecap="round"/>
<path d="M164.38 148.666H182.692" stroke="#D0D0D0" stroke-width="20" stroke-linecap="round"/>
<path d="M72.4969 116.744C71.4915 116.757 61.2915 132.68 61.2915 138.869C61.2915 141.841 62.4721 144.691 64.5735 146.793C66.6749 148.894 69.525 150.075 72.4969 150.075C75.4687 150.075 78.3188 148.894 80.4203 146.793C82.5217 144.691 83.7022 141.841 83.7022 138.869C83.7022 132.68 73.5022 116.733 72.4969 116.744Z" fill="#42A0F0"/>
<path d="M78.7382 135.528C77.6184 135.87 77.226 137.833 77.8618 139.913C78.4975 141.992 79.9206 143.4 81.0404 143.058C82.1601 142.716 82.5525 140.752 81.9168 138.673C81.281 136.593 79.8579 135.185 78.7382 135.528Z" fill="white"/>
<path d="M42.3069 139.216C41.4773 139.225 33.0591 152.369 33.0591 157.477C33.0591 159.93 34.0334 162.282 35.7677 164.016C37.502 165.75 39.8542 166.725 42.3069 166.725C44.7595 166.725 47.1117 165.75 48.846 164.016C50.5803 162.282 51.5546 159.93 51.5546 157.477C51.5546 152.369 43.1369 139.207 42.3069 139.216Z" fill="#42A0F0"/>
<path d="M47.4581 154.719C46.5339 155.002 46.2101 156.622 46.7347 158.338C47.2594 160.054 48.4338 161.216 49.358 160.933C50.2821 160.651 50.6059 159.031 50.0813 157.315C49.5567 155.599 48.3822 154.437 47.4581 154.719Z" fill="white"/>
<path d="M57.1849 101.961C80.0496 101.961 98.5852 83.3314 98.5852 60.3506C98.5852 37.3698 80.0496 18.7402 57.1849 18.7402C34.3202 18.7402 15.7847 37.3698 15.7847 60.3506C15.7847 83.3314 34.3202 101.961 57.1849 101.961Z" fill="#FA9E42"/>
<g filter="url(#filter1_f_498_4565)">
<path d="M54.1934 54.4333C67.9528 47.1251 75.6488 34.6896 71.3828 26.6578C67.1168 18.6261 52.5042 18.0395 38.7448 25.3478C24.9853 32.6561 17.2893 45.0916 21.5554 53.1233C25.8214 61.1551 40.4339 61.7416 54.1934 54.4333Z" fill="#F8E36F"/>
</g>
<g filter="url(#filter2_d_498_4565)">
<path d="M145.838 137.907H58.1987C49.697 137.9 41.5273 134.605 35.4 128.712C29.2727 122.818 25.6629 114.783 25.3262 106.287C24.9894 97.7924 27.9519 89.4964 33.5935 83.1362C39.2351 76.776 47.1183 72.8447 55.5928 72.1653C56.8013 63.6317 60.6549 55.6918 66.6113 49.4625C72.5676 43.2332 80.3271 39.0281 88.7981 37.4387C97.269 35.8494 106.025 36.9558 113.834 40.6024C121.644 44.2489 128.113 50.252 132.333 57.7672C140.072 55.0881 148.434 54.775 156.352 56.868C164.27 58.961 171.385 63.3651 176.79 69.5185C182.195 75.672 185.644 83.2959 186.698 91.4178C187.751 99.5396 186.362 107.791 182.707 115.12C180.562 121.742 176.374 127.514 170.745 131.607C165.116 135.701 158.334 137.906 151.374 137.907H145.838Z" fill="url(#paint0_linear_498_4565)"/>
<path d="M151.374 137.449C154.908 137.449 158.382 136.885 161.701 135.772C164.911 134.696 167.924 133.125 170.657 131.104C173.358 129.106 175.727 126.713 177.696 123.991C179.689 121.235 181.229 118.203 182.271 114.98L182.281 114.946L182.297 114.915C183.683 112.147 184.75 109.218 185.469 106.21C186.208 103.115 186.583 99.9165 186.583 96.7039C186.583 93.9391 186.305 91.1762 185.755 88.4919C185.22 85.876 184.421 83.303 183.381 80.8443C182.36 78.4301 181.096 76.1015 179.625 73.9233C178.167 71.7657 176.493 69.7367 174.649 67.8928C172.805 66.0489 170.776 64.3748 168.619 62.9172C166.44 61.4456 164.112 60.1817 161.698 59.1606C159.239 58.1206 156.666 57.3219 154.05 56.7866C151.366 56.2373 148.603 55.9588 145.838 55.9588C141.26 55.9588 136.767 56.7122 132.482 58.198L132.121 58.3234L131.933 57.9899C128.447 51.7903 123.375 46.5838 117.267 42.9333C114.178 41.0871 110.859 39.6605 107.403 38.693C103.837 37.6949 100.133 37.1888 96.3946 37.1888C91.3657 37.1888 86.4566 38.0939 81.8039 39.8789C77.3091 41.6033 73.1858 44.0943 69.5485 47.2826C65.9322 50.4526 62.9311 54.1928 60.6286 58.3995C58.2696 62.7095 56.7277 67.3618 56.0459 72.2272L55.9949 72.5914L55.6282 72.6201C51.5271 72.9411 47.5813 74.0209 43.9004 75.8294C40.3238 77.5867 37.13 79.9636 34.4078 82.894C28.8142 88.9153 25.7337 96.7606 25.7337 104.984C25.7337 109.367 26.592 113.619 28.2847 117.621C29.0983 119.545 30.1054 121.4 31.2779 123.135C32.4393 124.854 33.7732 126.471 35.2424 127.94C36.7116 129.41 38.3282 130.743 40.0474 131.905C41.7829 133.077 43.6382 134.084 45.5617 134.898C49.5638 136.591 53.8154 137.449 58.1982 137.449H145.838H151.374ZM151.374 137.907H145.838H58.1982C40.0158 137.907 25.2759 123.167 25.2759 104.984C25.2759 87.6787 38.6278 73.4916 55.5925 72.1637C58.3986 52.1396 75.597 36.731 96.3946 36.731C111.824 36.731 125.272 45.211 132.332 57.7655C136.564 56.298 141.107 55.501 145.838 55.501C168.594 55.501 187.041 73.9483 187.041 96.7039C187.041 103.323 185.48 109.578 182.706 115.12C178.432 128.343 166.019 137.907 151.374 137.907Z" fill="white" fill-opacity="0.5"/>
</g>
</g>
<defs>
<filter id="filter0_f_498_4565" x="11.7847" y="14.7402" width="184.908" height="164.635" filterUnits="userSpaceOnUse" color-interpolation-filters="sRGB">
<feFlood flood-opacity="0" result="BackgroundImageFix"/>
<feBlend mode="normal" in="SourceGraphic" in2="BackgroundImageFix" result="shape"/>
<feGaussianBlur stdDeviation="2" result="effect1_foregroundBlur_498_4565"/>
</filter>
<filter id="filter1_f_498_4565" x="0.378418" y="0.228516" width="92.1812" height="79.3242" filterUnits="userSpaceOnUse" color-interpolation-filters="sRGB">
<feFlood flood-opacity="0" result="BackgroundImageFix"/>
<feBlend mode="normal" in="SourceGraphic" in2="BackgroundImageFix" result="shape"/>
<feGaussianBlur stdDeviation="10" result="effect1_foregroundBlur_498_4565"/>
</filter>
<filter id="filter2_d_498_4565" x="5.27588" y="8.73096" width="221.765" height="161.176" filterUnits="userSpaceOnUse" color-interpolation-filters="sRGB">
<feFlood flood-opacity="0" result="BackgroundImageFix"/>
<feColorMatrix in="SourceAlpha" type="matrix" values="0 0 0 0 0 0 0 0 0 0 0 0 0 0 0 0 0 0 127 0" result="hardAlpha"/>
<feOffset dx="10" dy="2"/>
<feGaussianBlur stdDeviation="15"/>
<feColorMatrix type="matrix" values="0 0 0 0 0.501961 0 0 0 0 0.501961 0 0 0 0 0.501961 0 0 0 0.302 0"/>
<feBlend mode="normal" in2="BackgroundImageFix" result="effect1_dropShadow_498_4565"/>
<feBlend mode="normal" in="SourceGraphic" in2="effect1_dropShadow_498_4565" result="shape"/>
</filter>
<linearGradient id="paint0_linear_498_4565" x1="106.17" y1="36.7319" x2="153.161" y2="150.344" gradientUnits="userSpaceOnUse">
<stop stop-color="white" stop-opacity="0.604"/>
<stop offset="1" stop-color="white" stop-opacity="0.2"/>
</linearGradient>
</defs>
</svg>
