<svg width="172" height="101" viewBox="0 0 172 101" fill="none" xmlns="http://www.w3.org/2000/svg">
<g filter="url(#filter0_f_498_3106)">
<path d="M61.7354 48.6304C61.7354 48.6304 124.496 49.2319 138.084 45.2856C151.673 41.3393 151.655 20.8578 138.084 15.8091C124.514 10.7603 119.875 28.8067 119.875 28.8067" stroke="#D0D0D0" stroke-width="20" stroke-linecap="round"/>
<path d="M77.311 70.1552C77.311 70.1552 123.37 65.9937 143.676 70.1552C163.981 74.3167 157.515 86.255 147.892 86.8007C138.269 87.3465 129.389 81.0232 129.389 81.0232" stroke="#D0D0D0" stroke-width="20" stroke-linecap="round"/>
<path d="M27.4727 22.9701C27.4727 22.9701 41.4446 24.1283 58.0004 24.1283C74.5562 24.1283 96.9967 21.9556 96.9967 21.9556" stroke="#D0D0D0" stroke-width="20" stroke-linecap="round"/>
<path d="M12.8096 67.1492C13.5421 67.1574 20.9669 78.7505 20.9669 83.2559C20.9669 85.4193 20.1075 87.4941 18.5777 89.0239C17.0479 90.5537 14.9731 91.4131 12.8096 91.4131C10.6462 91.4131 8.57134 90.5537 7.04155 89.0239C5.51177 87.4941 4.65234 85.4193 4.65234 83.2559C4.65234 78.751 12.0776 67.1409 12.8096 67.1492Z" fill="#42A0F0"/>
<path d="M6.59056 86.3046C7.40565 86.5538 8.44155 85.5288 8.90431 84.0152C9.36707 82.5015 9.08146 81.0725 8.26637 80.8233C7.45129 80.5741 6.41538 81.5991 5.95262 83.1127C5.48986 84.6264 5.77547 86.0554 6.59056 86.3046Z" fill="white"/>
<path d="M52.1812 67.1492C52.9137 67.1574 60.3385 78.7505 60.3385 83.2559C60.3385 85.4193 59.479 87.4941 57.9492 89.0239C56.4195 90.5537 54.3446 91.4131 52.1812 91.4131C50.0178 91.4131 47.9429 90.5537 46.4131 89.0239C44.8833 87.4941 44.0239 85.4193 44.0239 83.2559C44.0239 78.751 51.4492 67.1409 52.1812 67.1492Z" fill="#42A0F0"/>
<path d="M45.9621 86.3046C46.7772 86.5538 47.8131 85.5288 48.2759 84.0152C48.7387 82.5015 48.453 81.0725 47.638 80.8233C46.8229 80.5741 45.787 81.5991 45.3242 83.1127C44.8614 84.6264 45.1471 86.0554 45.9621 86.3046Z" fill="white"/>
<path d="M32.0376 37.3914C32.7701 37.3996 40.1949 48.9927 40.1949 53.498C40.1949 55.6615 39.3355 57.7363 37.8057 59.2661C36.2759 60.7959 34.2011 61.6553 32.0376 61.6553C29.8742 61.6553 27.7994 60.7959 26.2696 59.2661C24.7398 57.7363 23.8804 55.6615 23.8804 53.498C23.8804 48.9932 31.3056 37.3831 32.0376 37.3914Z" fill="#42A0F0"/>
<path d="M25.8186 56.5468C26.6337 56.796 27.6696 55.771 28.1323 54.2573C28.5951 52.7437 28.3095 51.3147 27.4944 51.0655C26.6793 50.8163 25.6434 51.8413 25.1806 53.3549C24.7179 54.8686 25.0035 56.2976 25.8186 56.5468Z" fill="white"/>
</g>
<defs>
<filter id="filter0_f_498_3106" x="0.652344" y="0.917725" width="170.372" height="99.9165" filterUnits="userSpaceOnUse" color-interpolation-filters="sRGB">
<feFlood flood-opacity="0" result="BackgroundImageFix"/>
<feBlend mode="normal" in="SourceGraphic" in2="BackgroundImageFix" result="shape"/>
<feGaussianBlur stdDeviation="2" result="effect1_foregroundBlur_498_3106"/>
</filter>
</defs>
</svg>
