<svg width="163" height="103" viewBox="0 0 163 103" fill="none" xmlns="http://www.w3.org/2000/svg">
<g filter="url(#filter0_f_498_3099)">
<path d="M48.5073 47.9195C48.5073 47.9195 111.268 48.521 124.856 44.5747C138.445 40.6284 138.427 20.1468 124.856 15.0981C111.285 10.0494 106.647 28.0958 106.647 28.0958" stroke="#D0D0D0" stroke-width="20" stroke-linecap="round"/>
<path d="M69.1191 71.7333C69.1191 71.7333 115.178 67.5718 135.484 71.7333C155.789 75.8948 149.323 87.8332 139.7 88.3789C130.077 88.9246 121.197 82.6013 121.197 82.6013" stroke="#D0D0D0" stroke-width="20" stroke-linecap="round"/>
<path d="M14.2446 22.2591C14.2446 22.2591 28.2165 23.4174 44.7723 23.4174C61.3281 23.4174 83.7686 21.2446 83.7686 21.2446" stroke="#D0D0D0" stroke-width="20" stroke-linecap="round"/>
<path d="M18.2675 44.5991H35.6895L25.6735 59.3072L37.3839 59.5288L12.8045 88.6208L18.7601 66.4403H7.85693L18.2675 44.5991Z" fill="url(#paint0_linear_498_3099)"/>
</g>
<defs>
<filter id="filter0_f_498_3099" x="0.244141" y="0.206787" width="162.588" height="102.206" filterUnits="userSpaceOnUse" color-interpolation-filters="sRGB">
<feFlood flood-opacity="0" result="BackgroundImageFix"/>
<feBlend mode="normal" in="SourceGraphic" in2="BackgroundImageFix" result="shape"/>
<feGaussianBlur stdDeviation="2" result="effect1_foregroundBlur_498_3099"/>
</filter>
<linearGradient id="paint0_linear_498_3099" x1="19.9039" y1="66.61" x2="6.1117" y2="61.5537" gradientUnits="userSpaceOnUse">
<stop stop-color="#FFD100"/>
<stop offset="1" stop-color="#FFF0AA"/>
</linearGradient>
</defs>
</svg>
