<svg width="176" height="101" viewBox="0 0 176 101" fill="none" xmlns="http://www.w3.org/2000/svg">
<g filter="url(#filter0_f_498_3121)">
<path d="M66.292 47.9195C66.292 47.9195 129.053 48.521 142.641 44.5747C156.229 40.6284 156.212 20.1468 142.641 15.0981C129.07 10.0494 124.432 28.0958 124.432 28.0958" stroke="#D0D0D0" stroke-width="20" stroke-linecap="round"/>
<path d="M81.8677 69.4443C81.8677 69.4443 127.927 65.2828 148.232 69.4443C168.538 73.6058 162.072 85.5441 152.449 86.0898C142.826 86.6355 133.945 80.3122 133.945 80.3122" stroke="#D0D0D0" stroke-width="20" stroke-linecap="round"/>
<path d="M32.0288 22.2591C32.0288 22.2591 46.0007 23.4174 62.5565 23.4174C79.1123 23.4174 101.553 21.2446 101.553 21.2446" stroke="#D0D0D0" stroke-width="20" stroke-linecap="round"/>
<path d="M32.2043 40.0239V88.8714" stroke="#42A0F0" stroke-width="7" stroke-linecap="round"/>
<path d="M32.1069 51.9647L40.5197 43.2805" stroke="#42A0F0" stroke-width="7" stroke-linecap="round"/>
<path d="M32.1071 51.9645L23.4229 43.2803" stroke="#42A0F0" stroke-width="7" stroke-linecap="round"/>
<path d="M32.1064 78.0159L40.5192 86.7001" stroke="#42A0F0" stroke-width="7" stroke-linecap="round"/>
<path d="M32.1071 78.0161L23.4229 86.7003" stroke="#42A0F0" stroke-width="7" stroke-linecap="round"/>
<path d="M53.239 52.4377L10.9359 76.8615" stroke="#42A0F0" stroke-width="7" stroke-linecap="round"/>
<path d="M42.8491 58.3233L54.5762 61.2668" stroke="#42A0F0" stroke-width="7" stroke-linecap="round"/>
<path d="M42.8492 58.3235L46.0278 46.4607" stroke="#42A0F0" stroke-width="7" stroke-linecap="round"/>
<path d="M20.2881 71.3494L16.9737 82.9771" stroke="#42A0F0" stroke-width="7" stroke-linecap="round"/>
<path d="M20.2879 71.3494L8.42506 68.1707" stroke="#42A0F0" stroke-width="7" stroke-linecap="round"/>
<path d="M53.0056 76.8611L10.7025 52.4374" stroke="#42A0F0" stroke-width="7" stroke-linecap="round"/>
<path d="M42.7136 70.8058L46.028 82.4336" stroke="#42A0F0" stroke-width="7" stroke-linecap="round"/>
<path d="M42.7133 70.8063L54.5762 67.6277" stroke="#42A0F0" stroke-width="7" stroke-linecap="round"/>
<path d="M20.1523 57.7798L8.42524 60.7233" stroke="#42A0F0" stroke-width="7" stroke-linecap="round"/>
<path d="M20.152 57.7805L16.9734 45.9177" stroke="#42A0F0" stroke-width="7" stroke-linecap="round"/>
</g>
<defs>
<filter id="filter0_f_498_3121" x="0.924316" y="0.206787" width="174.656" height="99.9165" filterUnits="userSpaceOnUse" color-interpolation-filters="sRGB">
<feFlood flood-opacity="0" result="BackgroundImageFix"/>
<feBlend mode="normal" in="SourceGraphic" in2="BackgroundImageFix" result="shape"/>
<feGaussianBlur stdDeviation="2" result="effect1_foregroundBlur_498_3121"/>
</filter>
</defs>
</svg>
