<svg width="169" height="101" viewBox="0 0 169 101" fill="none" xmlns="http://www.w3.org/2000/svg">
<g filter="url(#filter0_f_498_3167)">
<path d="M66.3596 48.51C66.3596 48.51 129.12 49.1116 142.709 45.1653C156.297 41.2189 156.28 20.7374 142.709 15.6887C129.138 10.64 124.5 28.6864 124.5 28.6864" stroke="#D0D0D0" stroke-width="20" stroke-linecap="round"/>
<path d="M70.9478 70.0351C70.9478 70.0351 99.5824 65.8736 112.207 70.0351C124.831 74.1966 120.811 86.1349 114.828 86.6806C108.845 87.2263 103.325 80.9031 103.325 80.9031" stroke="#D0D0D0" stroke-width="20" stroke-linecap="round"/>
<path d="M32.0967 22.85C32.0967 22.85 46.0686 24.0082 62.6244 24.0082C79.1802 24.0082 101.621 21.8354 101.621 21.8354" stroke="#D0D0D0" stroke-width="20" stroke-linecap="round"/>
<path d="M31.0514 33.6911C36.3084 33.6836 41.4456 35.2605 45.7929 38.2161C49.7398 40.8913 52.8932 44.5804 54.9216 48.8955C56.95 53.2106 57.7786 57.9925 57.3202 62.7385C56.8618 67.4845 55.1334 72.0194 52.3166 75.8666C49.4998 79.7137 45.6987 82.7311 41.3128 84.6015C36.6235 86.5882 31.458 87.1699 26.4443 86.2759C21.4306 85.3819 16.7845 83.0506 13.0709 79.5655C8.21184 75.0153 5.24511 68.8017 4.76167 62.1623C6.2956 62.5219 7.86591 62.7032 9.44141 62.7026C12.8521 62.7009 16.2078 61.8432 19.2009 60.208C22.1941 58.5728 24.7288 56.2124 26.5729 53.3432C28.417 50.474 29.5113 47.1879 29.7556 43.7859C30 40.384 29.3864 36.9752 27.9713 33.8719C28.9936 33.7521 30.0221 33.6917 31.0514 33.6911Z" fill="#713FFD"/>
<g filter="url(#filter1_f_498_3167)">
<path d="M48.8903 41.8827C42.9726 36.5544 35.2203 35.5169 31.5751 39.5654C27.9299 43.6138 29.772 51.2152 35.6897 56.5435C41.6073 61.8717 49.3596 62.9092 53.0048 58.8608C56.6501 54.8123 54.8079 47.211 48.8903 41.8827Z" fill="#A586FC"/>
</g>
<path d="M150.949 59.4595H163.58L156.319 70.1223L164.809 70.283L146.989 91.3743L151.306 75.2938H143.402L150.949 59.4595Z" fill="url(#paint0_linear_498_3167)"/>
</g>
<defs>
<filter id="filter0_f_498_3167" x="0.761719" y="0.797363" width="168.047" height="99.9175" filterUnits="userSpaceOnUse" color-interpolation-filters="sRGB">
<feFlood flood-opacity="0" result="BackgroundImageFix"/>
<feBlend mode="normal" in="SourceGraphic" in2="BackgroundImageFix" result="shape"/>
<feGaussianBlur stdDeviation="2" result="effect1_foregroundBlur_498_3167"/>
</filter>
<filter id="filter1_f_498_3167" x="9.70361" y="17.0957" width="65.1726" height="64.2346" filterUnits="userSpaceOnUse" color-interpolation-filters="sRGB">
<feFlood flood-opacity="0" result="BackgroundImageFix"/>
<feBlend mode="normal" in="SourceGraphic" in2="BackgroundImageFix" result="shape"/>
<feGaussianBlur stdDeviation="10" result="effect1_foregroundBlur_498_3167"/>
</filter>
<linearGradient id="paint0_linear_498_3167" x1="152.136" y1="75.4169" x2="142.137" y2="71.7511" gradientUnits="userSpaceOnUse">
<stop stop-color="#FFD100"/>
<stop offset="1" stop-color="#FFF0AA"/>
</linearGradient>
</defs>
</svg>
