<svg width="169" height="101" viewBox="0 0 169 101" fill="none" xmlns="http://www.w3.org/2000/svg">
<g filter="url(#filter0_f_498_3177)">
<path d="M66.1448 48.3772C66.1448 48.3772 128.906 48.9788 142.494 45.0324C156.082 41.0861 156.065 20.6046 142.494 15.5559C128.923 10.5071 124.285 28.5536 124.285 28.5536" stroke="#D0D0D0" stroke-width="20" stroke-linecap="round"/>
<path d="M70.7329 69.902C70.7329 69.902 99.3676 65.7405 111.992 69.902C124.616 74.0635 120.596 86.0019 114.613 86.5476C108.63 87.0933 103.11 80.77 103.11 80.77" stroke="#D0D0D0" stroke-width="20" stroke-linecap="round"/>
<path d="M31.8818 22.7169C31.8818 22.7169 45.8538 23.8752 62.4095 23.8752C78.9653 23.8752 101.406 21.7024 101.406 21.7024" stroke="#D0D0D0" stroke-width="20" stroke-linecap="round"/>
<path d="M150.734 59.3267H163.365L156.104 69.9895L164.594 70.1502L146.774 91.2415L151.092 75.1609H143.187L150.734 59.3267Z" fill="url(#paint0_linear_498_3177)"/>
<path d="M12.1831 66.8955C12.9156 66.9038 20.3404 78.4969 20.3404 83.0022C20.3404 85.1656 19.481 87.2405 17.9512 88.7703C16.4214 90.3 14.3466 91.1595 12.1831 91.1595C10.0197 91.1595 7.94487 90.3 6.41509 88.7703C4.8853 87.2405 4.02588 85.1656 4.02588 83.0022C4.02588 78.4973 11.4511 66.8873 12.1831 66.8955Z" fill="#42A0F0"/>
<path d="M5.96385 86.0512C6.77894 86.3004 7.81484 85.2754 8.2776 83.7617C8.74036 82.2481 8.45475 80.8191 7.63966 80.5699C6.82458 80.3207 5.78868 81.3457 5.32591 82.8593C4.86315 84.3729 5.14876 85.802 5.96385 86.0512Z" fill="white"/>
<path d="M51.555 66.8955C52.2875 66.9038 59.7122 78.4969 59.7122 83.0022C59.7122 85.1656 58.8528 87.2405 57.323 88.7703C55.7932 90.3 53.7184 91.1595 51.555 91.1595C49.3915 91.1595 47.3167 90.3 45.7869 88.7703C44.2571 87.2405 43.3977 85.1656 43.3977 83.0022C43.3977 78.4973 50.8229 66.8873 51.555 66.8955Z" fill="#42A0F0"/>
<path d="M45.3357 86.0512C46.1508 86.3004 47.1867 85.2754 47.6494 83.7617C48.1122 82.2481 47.8266 80.8191 47.0115 80.5699C46.1964 80.3207 45.1605 81.3457 44.6977 82.8593C44.235 84.3729 44.5206 85.802 45.3357 86.0512Z" fill="white"/>
<path d="M31.4112 37.1377C32.1437 37.1459 39.5684 48.7391 39.5684 53.2444C39.5684 55.4078 38.709 57.4827 37.1792 59.0124C35.6494 60.5422 33.5746 61.4016 31.4112 61.4016C29.2477 61.4016 27.1729 60.5422 25.6431 59.0124C24.1133 57.4827 23.2539 55.4078 23.2539 53.2444C23.2539 48.7395 30.6791 37.1295 31.4112 37.1377Z" fill="#42A0F0"/>
<path d="M25.1919 56.2929C26.007 56.5421 27.0429 55.5171 27.5056 54.0034C27.9684 52.4898 27.6828 51.0608 26.8677 50.8116C26.0526 50.5624 25.0167 51.5874 24.5539 53.101C24.0912 54.6146 24.3768 56.0437 25.1919 56.2929Z" fill="white"/>
</g>
<defs>
<filter id="filter0_f_498_3177" x="0.0258789" y="0.664551" width="168.568" height="99.9172" filterUnits="userSpaceOnUse" color-interpolation-filters="sRGB">
<feFlood flood-opacity="0" result="BackgroundImageFix"/>
<feBlend mode="normal" in="SourceGraphic" in2="BackgroundImageFix" result="shape"/>
<feGaussianBlur stdDeviation="2" result="effect1_foregroundBlur_498_3177"/>
</filter>
<linearGradient id="paint0_linear_498_3177" x1="151.921" y1="75.2841" x2="141.922" y2="71.6183" gradientUnits="userSpaceOnUse">
<stop stop-color="#FFD100"/>
<stop offset="1" stop-color="#FFF0AA"/>
</linearGradient>
</defs>
</svg>
